<?xml version="1.0" encoding="utf-8"?>
<!-- Generator: Adobe Illustrator 28.0.0, SVG Export Plug-In . SVG Version: 6.00 Build 0)  -->
<svg version="1.1" id="Calque_1" xmlns="http://www.w3.org/2000/svg" xmlns:xlink="http://www.w3.org/1999/xlink" x="0px" y="0px"
	 viewBox="0 0 2540 2478" style="enable-background:new 0 0 2540 2478;" xml:space="preserve">
<style type="text/css">
	.st0{fill:#090909;stroke:#FFFFFF;stroke-width:8;stroke-miterlimit:10;}
	.st1{fill:none;stroke:#090909;stroke-width:40;stroke-miterlimit:10;}
</style>
<path d="M1942.2,803.8c0.6-75.1-13.3-149.5-41.2-219.2c-25.4-63.9-61.9-122.8-107.3-174.8c-120.6-138.2-304-227.1-510.1-228.7
	c-82-0.7-160.6,12.6-233.3,37.3c-155.6,53-284,158.7-360,294.1c0,0-86.5,162-86.5,232.9s66.4,78.5,66.4,78.5l317.3,28.6l15.7,1.4
	c0-12.6,1.7-24.8,4.8-36.6c3.5-13,8.7-25.4,15.4-37.1c11.8-20.4,28.3-38.9,48.5-54.5c42.3-32.6,100.6-52.8,164.9-52.8
	c121.8,0,221.8,72.2,232.7,164.4c0.8,6.5,1.1,13,0.9,19.5l0,0c-8.6,7.5-17.4,14.9-26.2,22.2l0,0c-37,30.5-75.8,58.8-116.2,84.7
	c-39.8,25.6-81.1,48.8-123.7,69.5c-78.8,38.4-161.6,68.1-246.8,88.6v216.8c9.6,5,19.4,9.7,29.3,14.3c86.7,39.7,184,62.3,287,63.1
	h0.2c45.9,0.4,91.8-3.7,137-12.1c10.6,5.8,45.2,27.8,65.9,77.7c3.8,9.2,7.1,19.3,9.8,30.4l0,0c0.2,1,0.5,2,0.7,3l0,0
	c5.1,61.1-36.3,234.6-239.2,234.6s-259.8-195.7-259.8-195.7l-7.2,0.9l-51.2,6.5c-9.4,1.2-18.7,2.4-28.1,3.6
	c-91.9,11.6-225.3,28.5-235.5,29.7c-8.6,1-28.4,8.7-44.5,34.8l0,0c-13.3,21.5-24.2,55.5-24.2,108.5c0,112.1,128.6,283.6,139.7,298.1
	l0.1,0.2l0.1,0.2l0.5,0.7c118.1,157.3,313.1,260.1,533.6,260.1c360.3,0,652.5-274.3,652.5-612.7c0-165.9-70.2-316.3-184.2-426.6
	c-2.7-2.6-5.4-5.2-8.1-7.7C1860.2,1138.4,1940.9,980,1942.2,803.8L1942.2,803.8z"/>
<path class="st0" d="M1765.5,1639.4v-2.1c0-1.6,0.1-3.3,0.1-4.9c0-2.4,0.1-4.9,0.1-7.3c0-121.6-43.5-232.2-114.8-314.9
	c-71.3,45-152.5,77.3-239.9,93.7c10.6,5.8,45.2,27.8,65.9,77.7c3.8,9.2,7.1,19.3,9.7,30.4l0,0l0,0l0.7,3l0,0
	c1.8,8,3.2,16.6,4.2,25.7c3.9,37.2-0.9,71.3-8.8,99.9c-32.9,52-111.4,147.5-244.6,147.5c-180,0-247.5-142.5-249.6-147v-0.1l0,0l0,0
	c-0.7,0.2-39.3,10.2-63.8,54.1c-4.4,7.9-8,16.2-10.8,24.8l0,0c-5.5,16.8-9,36.9-9,61.2c0,119,105.4,324.8,379.1,324.8
	c66.2,0,125.3-14.9,177-37.4l0,0C1483.5,2058.1,1756.9,1935.4,1765.5,1639.4L1765.5,1639.4z"/>
<path class="st0" d="M1740,1257.8c-2.7-2.6-5.4-5.2-8.1-7.7c-25.4,22.1-52.5,42.2-80.9,60.1c71.2,82.6,114.8,193.3,114.8,314.9
	c0,1.3,0,2.6,0,3.9v3.5c0,1.6-0.1,3.3-0.1,4.9v2.1c-8.6,296.1-282,418.8-304.6,428.8l0,0c-51.6,22.5-110.8,37.4-177,37.4
	c-273.8,0-379.1-205.8-379.1-324.8c0-24.2,3.5-44.4,9-61.2l0,0c3.1-9.3,6.7-17.5,10.8-24.8c24.5-43.9,63.2-53.9,63.8-54.1l0,0v-86.9
	l-7.2,0.9l-51.4,6.5l-21.5,2.7l-6.6,0.8c-78.5,10-157,19.9-235.5,29.7c-8.6,1-28.4,8.7-44.5,34.8c-13.3,21.5-24.2,55.5-24.2,108.5
	c0,112,128.3,283.2,139.6,298.1l0,0l0.1,0.2l0.1,0.2l0.5,0.7c118.1,157.3,313.1,260.1,533.6,260.1c360.3,0,652.5-274.3,652.5-612.7
	C1924.2,1518.4,1854.1,1368.1,1740,1257.8L1740,1257.8z"/>
<path class="st0" d="M1482.8,1640.4c-32.9,52-111.4,147.5-244.6,147.5c-183,0-249.7-147.2-249.7-147.2v-86.9
	c0,0,56.8,195.7,259.8,195.7c202.9,0,244.2-173.6,239.2-234.6c1.8,8,3.2,16.6,4.2,25.7C1495.5,1577.8,1490.7,1611.8,1482.8,1640.4
	L1482.8,1640.4z"/>
<path class="st0" d="M1482.8,1640.4c-3.3,5.4-6.7,10.7-10.2,15.9c-1.8,2.6-3.6,5.2-5.4,7.7l-2.8,3.8l-2.8,3.8
	c-7.6,10.1-15.8,19.7-24.4,28.9c-17.3,18.3-36.7,34.8-58.1,48.4c-10.7,6.8-21.8,12.9-33.3,18.1c-11.5,5.3-23.5,9.7-35.6,13.1
	c-12.2,3.5-24.6,6-37.2,7.7l-9.4,1.1c-3.2,0.3-6.3,0.5-9.5,0.7c-3.2,0.3-6.3,0.3-9.5,0.4s-6.3,0.2-9.5,0.1l-9.5-0.2
	c-1.6-0.1-3.2,0-4.7-0.2l-4.7-0.4l-9.5-0.7c-3.2-0.3-6.3-0.8-9.4-1.2l-4.7-0.6c-0.8-0.1-1.6-0.2-2.3-0.3l-2.3-0.4l-9.4-1.7
	c-3.1-0.5-6.2-1.3-9.3-2l-4.6-1.1c-1.5-0.4-3.1-0.7-4.6-1.2c-6.1-1.8-12.2-3.4-18.2-5.6l-4.5-1.5l-2.2-0.8l-2.2-0.9l-8.8-3.5
	c-11.6-5-23-10.7-33.8-17.3c-21.6-13.2-41.3-29.3-58.6-47.8c-8.6-9.3-16.5-19.1-23.8-29.4c-3.6-5.2-7.1-10.4-10.3-15.8
	s-6.2-11-8.8-16.7c2.8,5.6,6.1,11,9.4,16.3c3.4,5.3,7,10.5,10.7,15.5c7.5,10.1,15.7,19.6,24.4,28.6c17.5,18,37.2,33.6,58.8,46.3
	l8.2,4.6c0.7,0.4,1.4,0.8,2,1.1l2.1,1.1l4.2,2.1l4.2,2.1c1.4,0.7,2.8,1.3,4.3,1.9l4.3,1.9l2.1,1l1.1,0.5l1.1,0.4l8.7,3.4l2.2,0.9
	l2.2,0.8l4.4,1.5c5.9,2.1,11.9,3.7,17.9,5.4c1.5,0.5,3,0.8,4.5,1.1l4.6,1.1c3,0.7,6.1,1.5,9.1,1.9l9.2,1.6l2.3,0.4
	c0.8,0.1,1.6,0.2,2.3,0.3l4.6,0.6c3.1,0.4,6.2,0.8,9.3,1.1l9.3,0.7l4.7,0.3c1.6,0.1,3.1,0.1,4.7,0.2l9.4,0.2c3.1,0.1,6.2,0,9.3,0
	c3.1-0.1,6.2-0.1,9.3-0.3c3.1-0.2,6.2-0.4,9.3-0.6l9.3-1c12.4-1.6,24.6-4.1,36.6-7.4c24.1-6.6,47-17.1,68.3-30.1
	c21.3-13.2,40.8-29.1,58.4-46.9C1453.2,1681.2,1468.9,1661.4,1482.8,1640.4L1482.8,1640.4z"/>
<path class="st0" d="M988.5,1640.8L988.5,1640.8L988.5,1640.8c-4.5,1.2-8.8,3.1-13,5.1c-4.2,2.1-8.3,4.5-12.2,7.1
	c-11.7,7.9-21.9,17.8-30.1,29.2c-2.7,3.8-5.3,7.7-7.6,11.8c-4.6,8.2-8.4,16.8-11.2,25.7v-0.2v0.1v0.1c-5.5,16.9-8,34.6-8.6,52.4
	c-0.3,8.9-0.1,17.8,0.7,26.6c0.8,8.8,2,17.6,3.7,26.3c3.4,17.4,8.3,34.5,14.6,51.1s13.9,32.7,22.7,48.1c17.6,30.9,39.8,58.8,66,82.9
	c1.7,1.5,3.2,3,4.9,4.5l5,4.3c3.4,2.8,6.8,5.7,10.3,8.4c3.5,2.8,7,5.4,10.6,8c1.8,1.3,3.6,2.5,5.4,3.8c0.9,0.6,1.8,1.3,2.7,1.9
	l2.8,1.8c14.8,9.8,30.2,18.5,46.3,26c32.1,14.9,66.4,25.1,101.3,30.9c17.5,2.9,35.1,4.8,52.8,5.7c17.7,0.9,35.5,1.1,53.1,0
	c17.7-1,35.3-3.2,52.7-6.3c17.4-3.2,34.6-7.4,51.5-12.7s33.5-11.5,49.7-18.7c16.1-7.4,31.8-15.6,47.1-24.7
	c30.6-18,59.5-38.7,86.4-61.9c26.9-23.1,51.5-48.9,73.3-76.9c10.8-14,20.9-28.6,30.2-43.8c9.2-15.2,17.5-30.8,24.9-47
	c14.7-32.3,25.4-66.3,31.9-101.3c3.3-17.4,5.5-35.1,6.7-52.8l0.2-3.3l0.2-3.3l0.3-6.7c0.1-2.2,0.2-4.4,0.3-6.7
	c0.1-2.2,0.1-4.4,0.1-6.7v-3.3c0-1.1,0-2.2,0-3.3l-0.1-6.7l-0.3-13.3c-1.5-35.5-6.7-70.8-15.6-105.3c-1-4.3-2.3-8.6-3.6-12.8
	c-1.3-4.3-2.5-8.5-3.8-12.8l-4.3-12.6l-2.2-6.3c-0.8-2.1-1.6-4.1-2.4-6.2l-4.9-12.4l-0.6-1.6l-0.7-1.5l-1.4-3l-2.7-6.1l-2.7-6.1
	c-0.5-1-0.9-2-1.4-3l-1.5-3l-5.9-11.9l-1.5-3l-1.6-2.9l-3.2-5.8l-3.2-5.8c-1.1-2-2.1-3.9-3.3-5.8l-7-11.4l-1.7-2.8l-0.9-1.4
	l-0.9-1.4l-3.7-5.5c-2.5-3.7-4.9-7.4-7.5-11l-7.9-10.7c-1.3-1.8-2.6-3.6-4-5.4l-4.2-5.2l-8.4-10.4l8.6,10.3l4.3,5.1
	c1.4,1.7,2.7,3.5,4.1,5.3l8.1,10.6c2.6,3.6,5.1,7.3,7.6,11l3.8,5.5l0.9,1.4l0.9,1.4l1.8,2.8l7.1,11.3c1.2,1.9,2.3,3.8,3.4,5.8
	l3.3,5.8l3.3,5.8l1.6,2.9l1.5,3l6.1,11.9l1.5,3c0.5,1,0.9,2,1.4,3l2.8,6.1l2.8,6.1l1.4,3l0.7,1.5l0.6,1.5l5,12.4
	c0.8,2.1,1.7,4.1,2.5,6.2l2.2,6.3l4.4,12.6c1.4,4.2,2.6,8.5,3.9,12.8s2.7,8.5,3.7,12.9l3.3,13l0.8,3.3c0.3,1.1,0.5,2.2,0.7,3.3
	l1.4,6.6c0.9,4.4,1.8,8.7,2.7,13.1l2.1,13.2l1.1,6.6c0.2,1.1,0.3,2.2,0.4,3.3l0.4,3.3l1.5,13.3l0.4,3.3l0.2,3.3l0.5,6.7
	c0.3,4.5,0.7,8.9,0.9,13.4l0.3,13.4l0.2,6.7c0,1.1,0.1,2.2,0,3.3v3.3c0,2.2-0.1,4.5-0.1,6.7s-0.1,4.5-0.2,6.7l-0.3,6.7l-0.2,3.3
	l-0.2,3.3c-1.1,17.8-3.3,35.6-6.4,53.2c-3.2,17.6-7.4,35-12.7,52.1c-5.3,17.1-11.6,33.9-19,50.2c-7.4,16.3-15.7,32.1-25,47.5
	c-9.3,15.3-19.4,30.1-30.3,44.2c-21.9,28.3-46.6,54.3-73.8,77.6c-13.5,11.7-27.6,22.7-42.1,33.1s-29.5,20.2-44.9,29.3
	c-15.4,9.1-31.2,17.5-47.5,25c-16.4,7.3-33.1,13.6-50.2,18.9c-34.2,10.7-69.6,17.1-105.3,19.2c-4.5,0.2-8.9,0.4-13.4,0.5
	c-4.5,0-8.9,0.2-13.4,0.1l-6.7-0.1c-2.2,0-4.5,0-6.7-0.1l-6.7-0.2l-3.3-0.1l-3.3-0.2c-17.9-1-35.6-3-53.3-5.9
	c-35.3-6-69.8-16.4-102.3-31.6c-32.5-15.2-62.4-35.4-88.7-59.7c-13.1-12.2-25.3-25.3-36.4-39.4c-11.1-14.1-21-29-29.8-44.6
	s-16.3-31.9-22.5-48.6c-6.3-16.8-11-34-14.3-51.6c-1.6-8.8-2.8-17.7-3.5-26.6s-0.9-17.9-0.5-26.8c0.7-17.8,3.4-35.7,9.1-52.7v0.2
	v-0.1v-0.1c3-8.9,6.8-17.6,11.5-25.8c2.3-4.1,4.9-8,7.7-11.8s5.8-7.5,9-10.9c6.4-6.9,13.7-13,21.6-18.1c3.9-2.6,8-4.9,12.3-6.9
	c4.2-2.1,8.6-3.8,13.1-5.1l0,0L988.5,1640.8z"/>
<path class="st0" d="M1706.9,642.5c0,187.2-123.2,337-269.7,448.9c-32.8,25-66.9,48.4-101.9,70.2c-48.2,30.1-96.5,56.4-141.6,78.8
	c-59.3,29.5-120.1,55.9-182.1,79.1c-33.3,12.4-53.4,18.7-53.9,18.9l0,0v-216.8c33.7-8.1,67-17.6,99.9-28.6
	c50.2-16.7,99.3-36.8,146.9-60c55.8-27.2,109.5-58.7,160.5-94.1c27.3-18.9,53.7-39,79.3-60l0,0c8.8-7.3,17.6-14.7,26.2-22.2
	c0-1,0-1.9,0-2.9c0-5.6-0.3-11.1-1-16.6c-10.8-92.2-110.9-164.4-232.7-164.4c-64.4,0-122.7,20.2-164.9,52.8
	c-20.2,15.6-36.7,34-48.5,54.5c-6.7,11.6-11.9,24.1-15.4,37.1c-3.2,12-4.8,24.3-4.8,36.6l-15.7-1.4l-317.3-28.6
	c0,0-66.4-7.6-66.4-78.5s86.5-232.9,86.5-232.9c76-135.4,204.4-241.1,360-294.1c184.2-39.5,387.3,19.2,518.1,136.3
	c69.8,62.5,119,141.6,133.8,231.2C1705.3,604.3,1706.9,623.2,1706.9,642.5L1706.9,642.5z"/>
<path class="st0" d="M1942.2,803.8c-1.4,176.3-82.1,334.8-210.3,446.3c-25.4,22.1-52.5,42.2-80.9,60.1
	c-71.3,45-152.5,77.3-239.9,93.7c-45.2,8.4-91,12.5-137,12.1h-0.2c-103-0.8-200.3-23.4-287-63.1c-9.9-4.5-19.6-9.3-29.3-14.3
	c0.5-0.2,20.6-6.5,53.9-18.9c62-23.2,122.8-49.7,182.1-79.1c45.1-22.4,93.4-48.7,141.6-78.8c35.1-21.8,69.1-45.2,101.9-70.2
	c146.5-112,269.7-261.8,269.7-448.9c0-19.3-1.6-38.3-4.6-56.7c-14.8-89.7-64-168.8-133.8-231.2
	c-130.8-117.1-333.9-175.8-518.1-136.3c72.7-24.7,151.3-38,233.3-37.3c206.1,1.6,389.5,90.5,510.1,228.7
	c45.4,52,81.8,110.9,107.3,174.8C1928.9,654.2,1942.9,728.7,1942.2,803.8L1942.2,803.8z"/>
<path class="st0" d="M1684.1,1287.8c-10.8,7.8-21.8,15.2-33.1,22.3c-71.3,45-152.5,77.3-239.9,93.7c-45.2,8.4-91,12.5-137,12.1h-0.2
	c-103-0.8-200.3-23.4-287-63.1c-9.9-4.5-19.6-9.3-29.3-14.3c0.5-0.2,20.6-6.5,53.9-18.9c62-23.2,122.8-49.7,182.1-79.1
	c83.4,59.7,183.4,91.8,286,91.6c58.1,0,113.8-10.1,165.6-28.6C1658.5,1298.8,1671.4,1293.7,1684.1,1287.8L1684.1,1287.8z"/>
<path class="st0" d="M1279.9,595.2h-37.7c-132,0-238.9,82.9-238.9,185.1V854c0-12.6,1.6-24.8,4.8-36.6c3.5-13,8.7-25.4,15.4-37.1
	c11.8-20.4,28.3-38.9,48.5-54.5c42.3-32.6,100.6-52.8,164.9-52.8c121.8,0,221.8,72.2,232.7,164.4c0.8,6.5,1.1,13,0.9,19.5
	C1566.7,700.2,1408.5,595.2,1279.9,595.2L1279.9,595.2z"/>
<path class="st0" d="M1050.4,218.4c17.4-3.8,35.1-6.7,52.8-8.9c17.7-2,35.6-3.3,53.4-3.8c17.9-0.4,35.7,0,53.6,1.1l13.4,1
	c2.2,0.2,4.5,0.4,6.7,0.6l6.7,0.7l6.7,0.7l6.6,0.9l6.6,0.9c2.2,0.3,4.4,0.6,6.6,1c70.6,10.9,139.5,33.8,202.4,67.9
	c7.9,4.2,15.6,8.8,23.3,13.3l11.4,7.1l2.9,1.8l2.8,1.9l5.6,3.7l5.6,3.7l5.5,3.9l5.5,3.9l2.7,2l2.7,2l10.7,8.1l10.4,8.5l2.6,2.1
	l2.5,2.2l5.1,4.4c1.7,1.5,3.4,2.9,5.1,4.4l4.9,4.6l4.9,4.6l2.5,2.3c0.8,0.8,1.6,1.6,2.4,2.4l9.5,9.5c12.5,12.9,24.2,26.4,35.3,40.6
	c10.9,14.3,20.9,29.2,29.9,44.7l6.6,11.7l6.1,12l1.5,3l1.4,3.1l2.8,6.1l2.8,6.1l2.5,6.3l2.5,6.3l1.2,3.1l1.1,3.2l4.4,12.7l3.8,12.9
	l0.9,3.2c0.3,1.1,0.5,2.2,0.8,3.3l1.6,6.5l1.6,6.6c0.5,2.2,0.9,4.4,1.3,6.6l1.3,6.6c0.4,2.2,0.9,4.4,1.2,6.6
	c2.8,17.8,4.2,35.7,4.3,53.7c0,4.5-0.2,9-0.3,13.5l-0.1,3.4v1.7l-0.1,1.7l-0.4,6.7c-0.3,4.5-0.5,9-1,13.4c-0.5,4.5-0.9,8.9-1.4,13.4
	l-1.9,13.3c-0.2,1.1-0.3,2.2-0.5,3.3l-0.6,3.3l-1.2,6.6c-0.4,2.2-0.8,4.4-1.3,6.6l-1.5,6.6l-1.5,6.6c-0.3,1.1-0.5,2.2-0.8,3.3
	l-0.9,3.3c-1.2,4.3-2.3,8.7-3.5,13l-4,12.9c-5.6,17.1-12.1,33.8-19.5,50.1c-7.5,16.3-15.8,32.2-24.9,47.7s-18.9,30.5-29.4,45
	c-5.2,7.3-10.7,14.4-16.1,21.5l-8.4,10.5c-1.4,1.8-2.8,3.5-4.3,5.2l-4.3,5.1l-4.3,5.1l-4.5,5l-4.5,5l-2.2,2.5l-2.3,2.5l-9.1,9.8
	l-9.3,9.6c-12.5,12.8-25.4,25.2-38.7,37.2c-13.3,12-26.9,23.6-40.7,34.9c-7,5.6-13.9,11.2-21.1,16.6c-7.1,5.5-14.2,10.9-21.4,16.1
	c-14.4,10.6-29,20.8-43.8,30.8c-29.7,19.8-60.1,38.6-91.2,56.2c-15.5,8.8-31.2,17.4-46.9,25.7c-15.8,8.3-31.7,16.4-47.7,24.2
	c15.9-8.1,31.7-16.3,47.4-24.8c15.7-8.5,31.3-17.2,46.7-26.2c30.8-18,61.1-36.9,90.5-57c14.7-10,29.3-20.4,43.5-31
	c7.1-5.3,14.2-10.7,21.2-16.2c7.1-5.5,13.9-11.1,20.9-16.7c13.7-11.3,27.2-23,40.4-35c13.1-12,25.9-24.4,38.3-37.2l9.2-9.7l9-9.8
	l2.3-2.5l2.2-2.5l4.4-5l4.4-5l4.3-5.1l4.3-5.1c1.4-1.7,2.9-3.4,4.2-5.2l8.3-10.4c5.4-7.1,10.8-14.1,15.9-21.4
	c10.4-14.4,20.1-29.4,29-44.8c9-15.4,17.2-31.1,24.5-47.3s13.7-32.8,19.2-49.7l3.9-12.7c1.2-4.3,2.3-8.6,3.4-12.9l0.9-3.2
	c0.3-1.1,0.5-2.2,0.8-3.2l1.5-6.5l1.5-6.5c0.4-2.2,0.8-4.4,1.2-6.5l1.2-6.6l0.6-3.3c0.2-1.1,0.3-2.2,0.5-3.3l1.9-13.2
	c0.5-4.4,0.9-8.8,1.4-13.3c0.5-4.4,0.7-8.8,1-13.3l0.4-6.7l0.1-1.7v-1.7l0.1-3.3c0.1-4.4,0.2-8.9,0.2-13.3c0-17.7-1.5-35.5-4.2-53
	c-0.3-2.2-0.8-4.4-1.2-6.6l-1.2-6.5c-0.4-2.2-0.8-4.4-1.3-6.5l-1.6-6.5l-1.6-6.5c-0.3-1.1-0.5-2.2-0.8-3.2l-0.9-3.2L1688,537
	l-4.3-12.6c-0.4-1-0.7-2.1-1.1-3.1l-1.2-3.1l-2.4-6.2l-2.5-6.2l-2.7-6.1l-2.7-6.1l-1.4-3l-1.5-3l-6-11.9l-6.5-11.6
	c-8.9-15.3-18.8-30.1-29.5-44.3c-10.9-14.1-22.5-27.5-34.8-40.3l-9.4-9.4c-0.8-0.8-1.6-1.6-2.4-2.4l-2.4-2.3l-4.9-4.5l-4.9-4.5
	c-1.7-1.5-3.4-2.9-5-4.4l-5-4.4l-2.5-2.2l-2.6-2.1l-10.3-8.4l-10.6-8.1l-2.7-2l-2.7-1.9l-5.4-3.9l-5.4-3.9l-5.5-3.7l-5.5-3.7
	l-2.8-1.9l-2.8-1.8l-11.3-7.1c-7.7-4.5-15.3-9.1-23.1-13.3l-5.8-3.2c-2-1.1-4-2-5.9-3.1l-5.9-3.1c-2-1-3.9-2.1-6-3l-12-5.8
	c-2-1-4.1-1.8-6.1-2.8l-6.1-2.7c-2-0.9-4-1.8-6.1-2.7l-6.2-2.5l-6.2-2.5c-1-0.4-2.1-0.9-3.1-1.3l-3.1-1.2l-12.5-4.7l-12.6-4.4
	c-4.2-1.5-8.4-2.8-12.7-4.2c-4.2-1.4-8.5-2.7-12.8-3.9s-8.6-2.5-12.8-3.7l-12.9-3.3l-3.2-0.8l-3.3-0.7l-6.5-1.5l-6.5-1.5
	c-2.2-0.5-4.4-0.9-6.5-1.3l-6.5-1.3c-2.2-0.4-4.4-0.9-6.6-1.3l-13.2-2.3c-2.2-0.4-4.4-0.7-6.6-1l-6.6-1l-6.6-1l-6.6-0.8l-6.6-0.8
	c-2.2-0.2-4.4-0.5-6.6-0.7l-13.3-1.1c-17.8-1.3-35.6-1.8-53.4-1.6c-17.8,0.3-35.6,1.4-53.4,3.3
	C1085.5,212.1,1067.8,214.8,1050.4,218.4L1050.4,218.4z"/>
<path class="st1" d="M462.7,20.2h1614.6c244.8,0,442.7,198,442.7,442.8v1552c0,244.8-197.9,442.7-442.7,442.7H462.7
	C217.9,2457.9,20,2259.9,20,2015.1v-1552C20,218.2,217.9,20.2,462.7,20.2z"/>
</svg>
