<?xml version="1.0" encoding="utf-8"?>
<!-- Generator: Adobe Illustrator 28.0.0, SVG Export Plug-In . SVG Version: 6.00 Build 0)  -->
<svg version="1.1" id="Calque_1" xmlns="http://www.w3.org/2000/svg" xmlns:xlink="http://www.w3.org/1999/xlink" x="0px" y="0px"
	 viewBox="0 0 2540 2478" style="enable-background:new 0 0 2540 2478;" xml:space="preserve">
<style type="text/css">
	.st0{fill:none;stroke:#090909;stroke-width:40;stroke-miterlimit:10;}
	.st1{fill:#090909;}
</style>
<path class="st0" d="M462.7,20.2h1614.6c244.8,0,442.7,198,442.7,442.8v1552c0,244.8-197.9,442.7-442.7,442.7H462.7
	C217.9,2457.8,20,2259.8,20,2015V463C20,218.2,217.9,20.2,462.7,20.2z"/>
<g>
	<path class="st1" d="M1024.2,1478.6H636.7l-79.2,245.8c-2.1,9.4-10.4,15.6-19.8,14.6H341.9c-11.5,0-14.6-6.2-11.5-18.8l335.4-961.5
		c3.1-10.4,6.2-19.8,10.4-32.3c4.2-21.9,6.2-44.8,6.2-67.7c-1-5.2,3.1-10.4,8.3-11.5h269.8c7.3,0,12.5,3.1,13.5,8.3L1354.2,1718
		c3.1,11.5,0,16.7-10.4,16.7h-217.7c-7.3,1-14.6-4.2-16.7-11.5l-85.4-250L1024.2,1478.6L1024.2,1478.6z M697.1,1271.3h264.6
		c-6.2-21.9-14.6-47.9-24-75c-9.4-28.1-18.8-58.3-28.1-89.6c-10.4-32.3-19.8-63.5-30.2-95.8s-19.8-62.5-28.1-92.7
		C843,889,835.7,862,828.4,837h-2.1c-9.4,44.8-20.8,89.6-35.4,134.4c-15.6,50-31.2,102.1-47.9,154.2
		C729.4,1178.6,712.7,1227.5,697.1,1271.3L697.1,1271.3z M1967.9,1384.8h-330.2c4.2,32.3,14.6,64.6,32.3,92.7
		c18.8,28.1,44.8,50,76,62.5c41.7,17.7,87.5,27.1,133.3,26c36.5-1,72.9-4.2,108.3-11.5c32.3-4.2,63.5-12.5,92.7-24
		c5.2-4.2,8.3-2.1,8.3,8.3v159.4c0,4.2-1,8.3-2.1,12.5c-2.1,3.1-4.2,5.2-7.3,7.3c-33.3,14.6-67.7,25-104.2,31.2
		c-49,9.4-97.9,13.5-147.9,12.5c-79.2,0-145.8-12.5-200-36.5c-51-21.9-95.8-56.2-131.2-99c-33.3-40.6-57.3-86.5-71.9-136.5
		c-14.6-49-21.9-100-21.9-152.1c0-56.2,8.3-111.5,26-165.6c16.7-52.1,42.7-100,78.1-142.7c34.4-41.7,77.1-75,126-99
		s107.3-32.3,174-32.3c55.2-1,110.4,9.4,161.5,32.3c42.7,18.8,80.2,46.9,109.4,83.3c27.1,35.4,49,75,62.5,118.8
		c13.5,41.7,19.8,84.4,19.8,127.1c0,25-1,46.9-2.1,66.7c-2.1,19.8-3.1,34.4-4.2,43.8c-1,7.3-7.3,13.5-14.6,13.5
		c-6.2,0-17.7,1-34.4,2.1c-16.7,2.1-36.5,3.1-60.4,3.1S1995,1384.8,1967.9,1384.8L1967.9,1384.8z M1637.7,1232.8h219.8
		c27.1,0,46.9,0,59.4-1c8.3-1,16.7-3.1,24-8.3V1213c0-13.5-2.1-26-6.2-38.5c-18.8-58.3-74-97.9-135.4-95.8
		c-57.3-3.1-111.5,27.1-138.5,79.2C1648.1,1181.7,1640.8,1206.7,1637.7,1232.8L1637.7,1232.8z"/>
</g>
</svg>
