<?xml version="1.0" encoding="utf-8"?>
<!-- Generator: Adobe Illustrator 28.0.0, SVG Export Plug-In . SVG Version: 6.00 Build 0)  -->
<svg version="1.1" id="Calque_1" xmlns="http://www.w3.org/2000/svg" xmlns:xlink="http://www.w3.org/1999/xlink" x="0px" y="0px"
	 viewBox="0 0 2540 2478" style="enable-background:new 0 0 2540 2478;" xml:space="preserve">
<style type="text/css">
	.st0{fill:#090909;}
	.st1{fill:none;stroke:#090909;stroke-width:40;stroke-miterlimit:10;}
</style>
<path class="st0" d="M2393.3,1343.6c-13.3-93.3-45.6-181.8-96.1-263c-44-70.8-100.6-133.9-168-187.4l0.2-0.2L1421,348.9
	c-0.5-0.4-1-0.9-1.6-1.3c-23.6-18-55.4-28-89.8-28s-67.5,10-93.3,28c-27.7,19.3-43.5,45-44.6,72.3c-1,25.5,11.1,50,34.3,69.1
	c45.6,36,91.1,72.7,136.6,109.5c44.2,35.7,89.8,72.5,135.1,108.4L630,706.5c-99.2,0-166.8,46.6-180.7,124.6
	c-6.1,34.2,4.7,71.7,28.8,100.5c25.6,30.5,62.7,47.3,104.5,47.3h66.2c91.4,0,183.2-0.2,274.8-0.4l87.4-0.2L223.4,1561l-3.1,2.3
	c-44,33.7-72.8,81-79,129.7c-4.7,36.9,3.9,70.6,24.9,97.5c25,32.1,64.1,49.8,110.1,49.8c45.1,0,91.2-17.1,129.7-48.2l425.3-348
	c-1.8,17-4,41.9-3.8,60c0.5,28.7,9.7,86.1,24.2,132.8c30.1,95.9,80.8,183.7,150.6,260.8c72.7,80.2,161.2,143.8,263.1,188.9
	c107.7,47.6,223.5,71.8,344.2,71.8h1.1c121.1-0.3,237.2-24.9,345.3-73.1c102.1-45.7,190.6-109.5,263-189.7
	c69.8-77.5,120.4-165.4,150.4-261.2c14.9-47.4,24.4-96.4,28.4-146C2401.7,1440.6,2400.1,1391.8,2393.3,1343.6L2393.3,1343.6z
	 M1618.6,1803.3c-266,0-481.7-192.9-481.7-431c0-238,215.7-430.9,481.7-430.9s481.6,192.9,481.6,430.9S1884.6,1803.3,1618.6,1803.3z
	 M1896.3,1334.4c3.9,71-24.5,137-74.3,185.8c-50.7,49.7-123,81-203.9,81c-80.8,0-153.2-31.2-203.9-81
	c-49.8-48.8-78.1-114.8-74.2-185.8c3.8-69,37.5-129.9,88.2-173c49.9-42.4,116.8-68.3,189.9-68.3s140.1,25.9,189.9,68.3
	C1858.8,1204.7,1892.5,1265.4,1896.3,1334.4L1896.3,1334.4z"/>
<path class="st1" d="M462.7,20.2h1614.6c244.8,0,442.7,198,442.7,442.8v1552c0,244.8-197.9,442.7-442.7,442.7H462.7
	C217.9,2457.9,20,2259.9,20,2015.1v-1552C20,218.2,217.9,20.2,462.7,20.2z"/>
</svg>
