<?xml version="1.0" encoding="utf-8"?>
<!-- Generator: Adobe Illustrator 28.0.0, SVG Export Plug-In . SVG Version: 6.00 Build 0)  -->
<svg version="1.1" id="Calque_1" xmlns="http://www.w3.org/2000/svg" xmlns:xlink="http://www.w3.org/1999/xlink" x="0px" y="0px"
	 viewBox="0 0 2540 2478" style="enable-background:new 0 0 2540 2478;" xml:space="preserve">
<style type="text/css">
	.st0{fill:none;}
	.st1{fill:none;stroke:#090909;stroke-width:40;stroke-miterlimit:10;}
</style>
<path class="st0" d="M140.5,711.2h854.8v1282H140.5V711.2z"/>
<g>
	<path class="st1" d="M1269.6,1239.5c0-200.2,162.3-363.4,363.4-363.4c200.2,0,363.4,162.3,363.4,363.4
		c0,200.2-162.3,363.4-363.4,363.4C1432.7,1602.9,1269.6,1439.8,1269.6,1239.5L1269.6,1239.5z"/>
	<path class="st1" d="M543.7,1965.4c0-200.2,162.3-363.4,363.4-363.4h363.4v363.4c0,200.2-162.3,363.4-363.4,363.4
		S543.7,2166.5,543.7,1965.4L543.7,1965.4z"/>
	<path class="st1" d="M1269.6,150.3v725.9H1633c200.2,0,363.4-162.3,363.4-363.4c0-200.2-162.3-363.4-363.4-363.4h-363.4V150.3z"/>
	<path class="st1" d="M543.7,513.7c0,200.2,162.3,363.4,363.4,363.4h363.4V150.3H907.1C706,150.3,543.7,312.6,543.7,513.7z"/>
	<path class="st1" d="M543.7,1239.5c0,200.2,162.3,363.4,363.4,363.4h363.4V876.2H907.1C706,876.2,543.7,1039.3,543.7,1239.5z"/>
</g>
<path class="st1" d="M462.7,20.4h1614.6c244.8,0,442.7,197.9,442.7,442.7v1552.1c0,244.8-197.9,442.7-442.7,442.7H462.7
	C217.9,2457.9,20,2260,20,2015.2V463.1C20,218.3,217.9,20.4,462.7,20.4z"/>
</svg>
