<?xml version="1.0" encoding="utf-8"?>
<!-- Generator: Adobe Illustrator 28.0.0, SVG Export Plug-In . SVG Version: 6.00 Build 0)  -->
<svg version="1.1" id="Layer_1" xmlns="http://www.w3.org/2000/svg" xmlns:xlink="http://www.w3.org/1999/xlink" x="0px" y="0px"
	 viewBox="0 0 2540 2478" style="enable-background:new 0 0 2540 2478;" xml:space="preserve">
<style type="text/css">
	.st0{fill:#090909;}
	
		.st1{clip-path:url(#SVGID_00000074422559824361784990000002115588208925987492_);fill:#090909;stroke:#FFFFFF;stroke-width:8;stroke-miterlimit:10;}
	.st2{fill:none;stroke:#FFFFFF;stroke-width:8;stroke-miterlimit:10;}
	
		.st3{clip-path:url(#SVGID_00000090263181912873141710000017630448697618619814_);fill:#090909;stroke:#FFFFFF;stroke-width:8;stroke-miterlimit:10;}
	
		.st4{clip-path:url(#SVGID_00000008115623613851194000000016610615813256255884_);fill:#090909;stroke:#FFFFFF;stroke-width:8;stroke-miterlimit:10;}
	
		.st5{clip-path:url(#SVGID_00000137114247546653173900000007931187738100692665_);fill:#090909;stroke:#FFFFFF;stroke-width:8;stroke-miterlimit:10;}
	.st6{fill:#090909;stroke:#FFFFFF;stroke-width:8;stroke-miterlimit:10;}
	
		.st7{clip-path:url(#SVGID_00000075885145283976375510000007655533611440474530_);fill:#090909;stroke:#FFFFFF;stroke-width:8;stroke-miterlimit:10;}
	.st8{fill:none;stroke:#090909;stroke-width:40;stroke-miterlimit:10;}
</style>
<g>
	<g>
		<g>
			<g>
				<path id="SVGID_1_" class="st0" d="M632.3,368c0,217.6,12.7,1396.1,51,1806c51,38.5,523,51.2,523,51.2
					C453.7,1059.8,823.6,496.1,1014.9,239.9C884.8,274.8,757.1,317.5,632.3,368"/>
			</g>
			<g>
				<g>
					<defs>
						<path id="SVGID_00000173860402745531364700000011135675041249335216_" d="M632.3,368c0,217.6,12.7,1396.1,51,1806
							c51,38.5,523,51.2,523,51.2C453.7,1059.8,823.6,496.1,1014.9,239.9C884.8,274.8,757.1,317.5,632.3,368"/>
					</defs>
					<clipPath id="SVGID_00000049919669360344641420000002010595100599086218_">
						<use xlink:href="#SVGID_00000173860402745531364700000011135675041249335216_"  style="overflow:visible;"/>
					</clipPath>
					
						<polygon style="clip-path:url(#SVGID_00000049919669360344641420000002010595100599086218_);fill:#090909;stroke:#FFFFFF;stroke-width:8;stroke-miterlimit:10;" points="
						176,981.5 925.1,-1019.2 1483.9,1483.7 734.8,3484.4 					"/>
				</g>
			</g>
			<g>
				<path id="SVGID_00000062176653254696903380000011631323606817578380_" class="st2" d="M632.3,368c0,217.6,12.7,1396.1,51,1806
					c51,38.5,523,51.2,523,51.2C453.7,1059.8,823.6,496.1,1014.9,239.9C884.8,274.8,757.1,317.5,632.3,368"/>
			</g>
		</g>
	</g>
	<g>
		<g>
			<g>
				<path id="SVGID_00000117672380847834485620000008236824913760883130_" class="st0" d="M1206.2,2225.2L1206.2,2225.2
					c-114.7-256.1-573.9-1114.3-229.6-1472.9c293.4-307.4,931.1-102.5,931.1-102.5s-38.3-192-63.8-269c-10-22.9-28.2-41.1-51-51.2
					c-260.6-52-525.2-82-790.8-89.6C1014.9,239.9,313.4,842,1206.2,2225.2"/>
			</g>
			<g>
				<g>
					<defs>
						<path id="SVGID_00000133529608193598280010000005483561165062815411_" d="M1206.2,2225.2L1206.2,2225.2
							c-114.7-256.1-573.9-1114.3-229.6-1472.9c293.4-307.4,931.1-102.5,931.1-102.5s-38.3-192-63.8-269c-10-22.9-28.2-41.1-51-51.2
							c-260.6-52-525.2-82-790.8-89.6C1014.9,239.9,313.4,842,1206.2,2225.2"/>
					</defs>
					<clipPath id="SVGID_00000040559674903954000180000005419980289602058671_">
						<use xlink:href="#SVGID_00000133529608193598280010000005483561165062815411_"  style="overflow:visible;"/>
					</clipPath>
					
						<polygon style="clip-path:url(#SVGID_00000040559674903954000180000005419980289602058671_);fill:#090909;stroke:#FFFFFF;stroke-width:8;stroke-miterlimit:10;" points="
						584.2,-277.2 2335.5,298 2066.1,2718.6 314.8,2143.2 					"/>
				</g>
			</g>
			<g>
				<path id="SVGID_00000132767313966300737050000009559052956197583772_" class="st2" d="M1206.2,2225.2L1206.2,2225.2
					c-114.7-256.1-573.9-1114.3-229.6-1472.9c293.4-307.4,931.1-102.5,931.1-102.5s-38.3-192-63.8-269c-10-22.9-28.2-41.1-51-51.2
					c-260.6-52-525.2-82-790.8-89.6C1014.9,239.9,313.4,842,1206.2,2225.2"/>
			</g>
		</g>
	</g>
	<g>
		<g>
			<g>
				<path id="SVGID_00000172426215238026853800000000114734744750556310_" class="st0" d="M1206.2,2238.1
					C1206.2,2238.1,1206.2,2237.9,1206.2,2238.1C1206.2,2237.9,1206.2,2238.1,1206.2,2238.1 M900.1,867.5v12.8v0.1
					c-203.5,421.7,303.7,1340.5,306.1,1357.6c-12.8-149.1-12.8-299.1,0-448.2c12.7-140.9,25.5-256.2,204.1-307.4
					c151.5-31.2,304.9-52.6,459.2-63.9c-12.7-12.8-89.3-51.2-510.2-38.5c-255.1,0-242.4-256.2-51-269c148.9-5.3,298-1,446.4,12.8
					c0,0-242.3-38.5-408.2-76.8c-95.1-3.6-169.3-83.6-165.7-178.7v-0.9L900.1,867.5L900.1,867.5z"/>
			</g>
			<g>
				<g>
					<defs>
						<path id="SVGID_00000054962311278807960710000015442056916739991222_" d="M1206.2,2238.1
							C1206.2,2238.1,1206.2,2237.9,1206.2,2238.1C1206.2,2237.9,1206.2,2238.1,1206.2,2238.1 M900.1,867.5v12.8v0.1
							c-203.5,421.7,303.7,1340.5,306.1,1357.6c-12.8-149.1-12.8-299.1,0-448.2c12.7-140.9,25.5-256.2,204.1-307.4
							c151.5-31.2,304.9-52.6,459.2-63.9c-12.7-12.8-89.3-51.2-510.2-38.5c-255.1,0-242.4-256.2-51-269c148.9-5.3,298-1,446.4,12.8
							c0,0-242.3-38.5-408.2-76.8c-95.1-3.6-169.3-83.6-165.7-178.7v-0.9L900.1,867.5L900.1,867.5z"/>
					</defs>
					<clipPath id="SVGID_00000045612026290789629750000017082198325178069416_">
						<use xlink:href="#SVGID_00000054962311278807960710000015442056916739991222_"  style="overflow:visible;"/>
					</clipPath>
					
						<rect x="696.6" y="867.5" style="clip-path:url(#SVGID_00000045612026290789629750000017082198325178069416_);fill:#090909;stroke:#FFFFFF;stroke-width:8;stroke-miterlimit:10;" width="1172.8" height="1370.6"/>
				</g>
			</g>
			<g>
				<path id="SVGID_00000173867385739307908180000017001679782594277765_" class="st2" d="M1206.2,2238.1
					C1206.2,2238.1,1206.2,2237.9,1206.2,2238.1C1206.2,2237.9,1206.2,2238.1,1206.2,2238.1 M900.1,867.5v12.8v0.1
					c-203.5,421.7,303.7,1340.5,306.1,1357.6c-12.8-149.1-12.8-299.1,0-448.2c12.7-140.9,25.5-256.2,204.1-307.4
					c151.5-31.2,304.9-52.6,459.2-63.9c-12.7-12.8-89.3-51.2-510.2-38.5c-255.1,0-242.4-256.2-51-269c148.9-5.3,298-1,446.4,12.8
					c0,0-242.3-38.5-408.2-76.8c-95.1-3.6-169.3-83.6-165.7-178.7v-0.9L900.1,867.5L900.1,867.5z"/>
			</g>
		</g>
	</g>
	<g>
		<g>
			<g>
				<path id="SVGID_00000163071770092887175020000001278712252671325843_" class="st0" d="M976.6,752.2
					c-29.9,35.3-55.5,74-76.5,115.2l12.8,25.6H1168l12.9-25.6c12.8-76.8,102-204.9,408.2-192.1l-0.2,0.1
					C1895,701,1895,649.8,1895,649.8s-204.1-66.9-433.7-66.9C1289,582.8,1102.4,620.5,976.6,752.2"/>
			</g>
			<g>
				<g>
					<defs>
						<path id="SVGID_00000006673293015365195460000011270080256133184138_" d="M976.6,752.2c-29.9,35.3-55.5,74-76.5,115.2
							l12.8,25.6H1168l12.9-25.6c12.8-76.8,102-204.9,408.2-192.1l-0.2,0.1C1895,701,1895,649.8,1895,649.8s-204.1-66.9-433.7-66.9
							C1289,582.8,1102.4,620.5,976.6,752.2"/>
					</defs>
					<clipPath id="SVGID_00000090256803065524005480000001733715667416090514_">
						<use xlink:href="#SVGID_00000006673293015365195460000011270080256133184138_"  style="overflow:visible;"/>
					</clipPath>
					
						<rect x="900.1" y="582.8" style="clip-path:url(#SVGID_00000090256803065524005480000001733715667416090514_);fill:#090909;stroke:#FFFFFF;stroke-width:8;stroke-miterlimit:10;" width="994.9" height="310.2"/>
				</g>
			</g>
			<g>
				<path id="SVGID_00000090290420593428475260000004074025767880570017_" class="st2" d="M976.6,752.2
					c-29.9,35.3-55.5,74-76.5,115.2l12.8,25.6H1168l12.9-25.6c12.8-76.8,102-204.9,408.2-192.1l-0.2,0.1
					C1895,701,1895,649.8,1895,649.8s-204.1-66.9-433.7-66.9C1289,582.8,1102.4,620.5,976.6,752.2"/>
			</g>
		</g>
	</g>
	<g>
		<path class="st6" d="M1206.2,2225.2c0,0-76.5-115.3-165.8-281.8c-56.8-97.6-103.8-200.6-140.3-307.4
			c-51.6-119.3-90.1-243.8-114.8-371.4c-15.6-67.3-24.1-135.9-25.5-204.9V867.5c9-114.1,34.8-226.3,76.5-332.9
			c32-71.6,70.4-140.3,114.8-204.9c16.7-25.5,38.4-47.2,63.9-63.9c-22.9,24.2-44.2,49.9-63.9,76.8c-48.8,66.6-87.5,140-114.8,217.9
			c-41.8,106.6-67.5,218.8-76.5,333v191.8c2.2,64.7,10.8,129.1,25.5,192.1c24.7,127.6,63.2,252.2,114.8,371.5
			c36.5,106.8,83.5,209.8,140.3,307.4C1089.6,2049.6,1144.9,2139.5,1206.2,2225.2L1206.2,2225.2z"/>
	</g>
	<g>
		<g>
			<g>
				<path id="SVGID_00000141444721228993558860000013458586085002116752_" class="st0" d="M1295.5,1110.9
					c-191.3,12.8-204.1,269,51,269c420.8,0,497.4,38.5,510.2,38.5l-114.8-294.6c-108.7-9.8-217.7-14.8-326.7-14.8
					C1375.3,1108.9,1335.4,1109.6,1295.5,1110.9"/>
			</g>
			<g>
				<g>
					<defs>
						<path id="SVGID_00000026885448759643524390000008372576939433978004_" d="M1295.5,1110.9c-191.3,12.8-204.1,269,51,269
							c420.8,0,497.4,38.5,510.2,38.5l-114.8-294.6c-108.7-9.8-217.7-14.8-326.7-14.8C1375.3,1108.9,1335.4,1109.6,1295.5,1110.9"/>
					</defs>
					<clipPath id="SVGID_00000084501218864289323780000004762295088750273425_">
						<use xlink:href="#SVGID_00000026885448759643524390000008372576939433978004_"  style="overflow:visible;"/>
					</clipPath>
					
						<rect x="1091.4" y="1108.9" style="clip-path:url(#SVGID_00000084501218864289323780000004762295088750273425_);fill:#090909;stroke:#FFFFFF;stroke-width:8;stroke-miterlimit:10;" width="765.3" height="309.4"/>
				</g>
			</g>
			<g>
				<path id="SVGID_00000085242968382122889350000008141676981573442454_" class="st2" d="M1295.5,1110.9
					c-191.3,12.8-204.1,269,51,269c420.8,0,497.4,38.5,510.2,38.5l-114.8-294.6c-108.7-9.8-217.7-14.8-326.7-14.8
					C1375.3,1108.9,1335.4,1109.6,1295.5,1110.9"/>
			</g>
		</g>
	</g>
	<g>
		<path class="st6" d="M1907.7,662.7c-95.5-28.2-194-45.4-293.4-51.2c-101.6-12.9-204.5-12.9-306.1,0
			c-115.5,8.8-224.1,58.8-306,140.8c-84,81-134.2,190.9-140.3,307.4c-9.5,98.3-5.2,197.5,12.7,294.6
			c19.3,95.5,44.8,189.7,76.5,281.8c-11-24.7-19.5-50.5-25.5-76.8c-21.6-67.1-38.6-135.6-51-205c-15.9-101.7-24.4-204.4-25.5-307.4
			c6.1-116.5,56.2-226.4,140.1-307.4c93.1-72.4,202.6-120.8,318.8-140.9c101.6-12.9,204.5-12.9,306.1,0
			c99.4,13.3,197.5,34.6,293.3,63.9L1907.7,662.7z"/>
		<path class="st6" d="M1741.9,1123.8c0,0-165.8-12.8-331.6-12.8h-114.8c-37.7-1-74.4,12.7-102.1,38.3
			c-29.3,19.8-44.2,54.8-38.3,89.6c-6-34.8,9-69.9,38.3-89.6c27.7-25.7,64.3-39.4,102.1-38.4h127.6
			C1588.9,1110.8,1741.9,1123.7,1741.9,1123.8L1741.9,1123.8z"/>
	</g>
</g>
<path class="st8" d="M462.7,20.2h1614.6c244.8,0,442.7,198,442.7,442.8v1552c0,244.8-197.9,442.7-442.7,442.7H462.7
	C217.9,2457.9,20,2259.9,20,2015.1v-1552C20,218.2,217.9,20.2,462.7,20.2z"/>
</svg>
