<?xml version="1.0" encoding="utf-8"?>
<!-- Generator: Adobe Illustrator 28.0.0, SVG Export Plug-In . SVG Version: 6.00 Build 0)  -->
<svg version="1.1" id="Calque_1" xmlns="http://www.w3.org/2000/svg" xmlns:xlink="http://www.w3.org/1999/xlink" x="0px" y="0px"
	 viewBox="0 0 2540 2478" style="enable-background:new 0 0 2540 2478;" xml:space="preserve">
<style type="text/css">
	.st0{fill:#090909;}
	.st1{fill:none;stroke:#090909;stroke-width:40;stroke-miterlimit:10;}
</style>
<path class="st0" d="M1587.4,1331.8c-40.8-200.1-247-436.9-473.6-487.9c-234.8-53.1-394-55.1-577.7,69.4
	c-55.1,36.7-144.9,98-230.7,191.9v310.3c120.4-261.3,394-477.7,700.2-400.1c520.6,132.7,436.9,500.2,375.6,649.2
	C1269,1932.1,856.6,2048.4,728,1793.2c-138.8-277.6,169.4-324.6,169.4-324.6s-79.6,77.6,20.4,179.6c69.4,71.5,202.1,6.1,249.1-118.4
	c40.8-110.2-47-261.3-236.8-277.6c-159.2-14.3-398.1,106.2-422.6,351.1C485,1834,587.1,1929.9,738.2,2032
	c149,102.1,467.5,140.9,651.2-38.8C1585.4,1799.3,1642.6,1599.3,1587.4,1331.8 M305.4,245.9v608.3
	c91.9-79.6,167.4-120.4,169.4-122.5c332.8-191.9,624.7-98,796.2-42.9c271.5,85.7,485.9,300.1,577.7,520.6
	c108.2,255.2,14.3,745.1-349.1,992.1c-16.3,10.2-32.7,20.4-47,28.6h781.9V245.9H305.4z M305.4,1903.4v234.8
	c12.2,10.2,24.5,18.4,34.7,26.5c-10.2-4.1-22.5-10.2-34.7-16.3v83.7h338.9c-24.5-14.3-49-26.5-67.4-40.8
	C476.9,2119.9,368.7,2023.9,305.4,1903.4z"/>
<path class="st1" d="M462.7,20.2h1614.6c244.8,0,442.7,198,442.7,442.8v1552c0,244.8-197.9,442.7-442.7,442.7H462.7
	C217.9,2457.9,20,2259.9,20,2015.1v-1552C20,218.2,217.9,20.2,462.7,20.2z"/>
</svg>
