<?xml version="1.0" encoding="utf-8"?>
<!-- Generator: Adobe Illustrator 28.0.0, SVG Export Plug-In . SVG Version: 6.00 Build 0)  -->
<svg version="1.1" id="Calque_1" xmlns="http://www.w3.org/2000/svg" xmlns:xlink="http://www.w3.org/1999/xlink" x="0px" y="0px"
	 viewBox="0 0 2540 2478" style="enable-background:new 0 0 2540 2478;" xml:space="preserve">
<style type="text/css">
	.st0{fill:#090909;}
	.st1{fill:none;stroke:#090909;stroke-width:40;stroke-miterlimit:10;}
</style>
<path class="st0" d="M441.7,725c43.8,59.2,94.1,113.2,150.1,161.1c0.9,0.9,1.7,0.9,1.7,1.7c35.4,30.3,102.9,74.2,151.8,91.9
	c0,0,304.5,117.2,320.6,124c6,2.5,12.2,4.5,18.6,5.9c29.3,5.5,57.6-13.7,63.3-43c0.9-5.1,1.7-13.5,1.7-19.4V703
	c0.9-52.3-16.1-131.6-31.2-175.5c0-0.9-0.9-1.7-0.9-2.5c-24.2-69.6-56.5-136.2-96.3-198.3l-3.4-5.9c-17.5-23.8-50.7-29.5-75.1-12.7
	c-4.2,2.5-6.7,5.9-10.1,9.3l-6.7,9.2c-53.9,78-75.9,173.7-61.6,267.4c-20.9,11-41.2,23.1-60.7,36.3c-3.4,2.5-32.9,22.8-55.6,43.9
	c-82.5-46.7-179.5-60.5-271.7-38.8c-3.4,0.9-7.6,1.6-11,2.5c-4.2,1.7-8.4,3.4-11.8,6c-24.5,16.8-31.2,50.1-15.1,75.1L441.7,725
	L441.7,725z M974,382.5c28.7,48.1,53.1,97.9,72.5,150.2c-38.8,6.7-76.8,16.8-113.9,30.4C927.5,500,941.9,437,974,382.5z
	 M694.7,726.8c-26.5,29.3-49.9,61.2-70,95.3c-41.6-36.9-79.7-77.6-113.9-121.5C573.4,689.7,637.7,698.8,694.7,726.8z M1717.2,703
	c-59-21.9-121-34.5-183.9-37.1c-103.4-5-206.4,17.1-298.6,64.1l-16.8,8.5v307c0,4.2,0,20.2-2.5,33.8c-6,31.3-24.2,58.9-50.6,76.8
	c-26.4,18.1-58.8,25.1-90.3,19.4c-10.9-2.2-21.6-5.3-32.1-9.2c-88.9-34.1-177.8-68.4-266.6-102.9c-8.4-3.5-16.8-6.9-25.3-10.1
	C642,1144.5,541.8,1244.9,451,1353.7l-5.9,6.7c-17.3,24.7-11.4,58.8,13.4,76.2c8.5,5.9,18.5,9.4,28.8,9.9
	c11.7,0.6,23.3-2.6,32.9-9.2c0.9-0.9,1.7-1.7,3.4-2.5c102.9-74.2,216-134.2,335.7-182.2c21.3-11,47.3-6.8,64.1,10.2
	c18.9,19.6,20.7,50,4.2,71.7l-18.6,30.4c-64.5,106.1-116.3,219.3-154.4,337.4l-2.5,10.1c-3.6,14.6-0.5,30.1,8.5,42.2
	c9.9,14.1,25.8,22.8,43,23.6c11.7,0.8,23.3-2.5,32.9-9.2c4.2-3.4,8.5-6.7,11.8-11l3.4-5.1c41.9-59.6,88.1-115.9,138.3-168.7
	c225.7-241.9,521.6-406.9,846.1-471.6c2.5-0.9,5.1-0.9,7.6-0.9c18.6,0.9,32.9,16.8,32.1,35.4c-0.7,15.4-11.8,28.3-27,31.2
	c-306.2,65-857.9,428.6-664.8,956.7c3.4,8.5,5.9,13.5,10.1,21.1c9.7,13.9,25.2,22.6,42.2,23.6c21.6,0,41.5-12,51.5-31.2
	c31.2-59.1,90.3-124.8,260.6-195.7c475-196.5,553.4-477.5,561.9-655.4v-10.1C2117.7,1028.2,1959.7,793.5,1717.2,703L1717.2,703z
	 M1240.5,2094.9c-43.9-130.8-39.7-257.3,11.8-377.9c98.7,159.5,270.8,172.9,270.8,172.9C1346.8,1963.3,1277.6,2035.9,1240.5,2094.9z
	"/>
<path class="st1" d="M458.7,20.2h1614.6c244.8,0,442.7,198,442.7,442.8v1552c0,244.8-197.9,442.7-442.7,442.7H458.7
	C213.9,2457.9,16,2259.9,16,2015.1v-1552C16,218.2,213.9,20.2,458.7,20.2z"/>
</svg>
