<?xml version="1.0" encoding="utf-8"?>
<!-- Generator: Adobe Illustrator 28.0.0, SVG Export Plug-In . SVG Version: 6.00 Build 0)  -->
<svg version="1.1" id="Calque_1" xmlns="http://www.w3.org/2000/svg" xmlns:xlink="http://www.w3.org/1999/xlink" x="0px" y="0px"
	 viewBox="0 0 2540 2478" style="enable-background:new 0 0 2540 2478;" xml:space="preserve">
<style type="text/css">
	.st0{fill:#090909;}
	.st1{fill:none;stroke:#090909;stroke-width:40;stroke-miterlimit:10;}
</style>
<g>
	<path class="st0" d="M1858.2,1212.2l-563.9,330.2c-15,8.8-33.6,8.8-48.6,0l-563.9-330.2c-17.4-10.2-28.1-28.8-28.1-48.9V914.5
		c0-12.2,13.2-19.7,23.7-13.5c-17.9-10.4-66.2-43.4-124.5-43.4c-84.1,0-152.3,68-152.3,151.9v595.1c0,82.7,44.3,159.1,116.4,200.4
		l636.7,365.6c36,20.7,76.2,31,116.4,31s80.4-10.3,116.4-31l636.7-365.6c72-41.4,116.4-117.8,116.4-200.4V873.3
		c0,211.2-158.1,264.9-281.1,338.8L1858.2,1212.2L1858.2,1212.2z M984,1722.8c0,12.2-13.2,19.7-23.7,13.5l-278.6-163.2
		c-17.4-10.2-28.1-28.8-28.1-48.9v-193.5c0-12.2,13.2-19.6,23.7-13.5L956,1480.3c17.4,10.2,28.1,28.8,28.1,48.9L984,1722.8
		L984,1722.8z M1886.2,1524.2c0,20.1-10.7,38.7-28.1,48.9l-278.6,163.1c-10.5,6.1-23.7-1.4-23.7-13.5v-193.5
		c0-20.1,10.7-38.7,28.1-48.9l278.6-163.2c10.5-6.1,23.7,1.4,23.7,13.5V1524.2z"/>
	<path class="st0" d="M677.3,901l567.7,332.4c15.4,9,34.5,9,49.9,0L1862.6,901c10.5-6.1,23.7,1.4,23.7,13.5v248.7
		c0,20.1-10.7,38.7-28.1,48.9c123-73.9,281.1-127.6,281.1-338.8c0-82.7-44.3-159.1-116.4-200.4l-636.6-365.7
		c-36-20.6-76.2-31-116.4-31c-40.2,0-80.4,10.3-116.4,31L516.9,673c-72,41.4-116.4,117.8-116.4,200.4v136.1
		c0-83.9,68.2-151.8,152.3-151.8C611.1,857.7,659.4,890.7,677.3,901l567.6,332.4"/>
	<path class="st0" d="M677.3,901l567.7,332.4c15.4,9,34.5,9,49.9,0L1862.6,901c10.5-6.1,23.7,1.4,23.7,13.5v248.7
		c0,20.1-10.7,38.7-28.1,48.9c123-73.9,281.1-127.6,281.1-338.8c0-82.7-44.3-159.1-116.4-200.4l-636.6-365.7
		c-36-20.6-76.2-31-116.4-31c-40.2,0-80.4,10.3-116.4,31L516.9,673c-72,41.4-116.4,117.8-116.4,200.4v136.1
		c0-83.9,68.2-151.8,152.3-151.8C611.1,857.7,659.4,890.7,677.3,901l567.6,332.4"/>
	<path class="st0" d="M677.3,901l567.7,332.4c15.4,9,34.5,9,49.9,0L1862.6,901c10.5-6.1,23.7,1.4,23.7,13.5v248.7
		c0,20.1-10.7,38.7-28.1,48.9c123-73.9,281.1-127.6,281.1-338.8c0-82.7-44.3-159.1-116.4-200.4l-636.6-365.7
		c-36-20.6-76.2-31-116.4-31c-40.2,0-80.4,10.3-116.4,31L516.9,673c-72,41.4-116.4,117.8-116.4,200.4v136.1
		c0-83.9,68.2-151.8,152.3-151.8C611.1,857.7,659.4,890.7,677.3,901l567.6,332.4"/>
</g>
<path class="st1" d="M462.7,20.2h1614.6c244.8,0,442.7,198,442.7,442.8v1552c0,244.8-197.9,442.7-442.7,442.7H462.7
	C217.9,2457.9,20,2259.9,20,2015.1v-1552C20,218.2,217.9,20.2,462.7,20.2z"/>
</svg>
