<?xml version="1.0" encoding="utf-8"?>
<!-- Generator: Adobe Illustrator 28.0.0, SVG Export Plug-In . SVG Version: 6.00 Build 0)  -->
<svg version="1.1" id="Calque_1" xmlns="http://www.w3.org/2000/svg" xmlns:xlink="http://www.w3.org/1999/xlink" x="0px" y="0px"
	 viewBox="0 0 2540 2478" style="enable-background:new 0 0 2540 2478;" xml:space="preserve">
<style type="text/css">
	.st0{fill:#090909;}
	.st1{fill:none;stroke:#090909;stroke-width:40;stroke-miterlimit:10;}
</style>
<path class="st0" d="M1244.2,170.9C935.3,518,817.9,705,792.9,984.5c-0.9-0.9-2.7-0.9-3.6-1.8c-113.9-65-204.7-197.6-259-332
	l-198.5,77.4c146,440.6,250.1,634.6,479.7,795.7c-1.8,0.9-2.7,1.8-4.5,2.7c-113,65.9-273.2,79.2-416.5,58.7l-32,210.9
	c454.8,94.3,675.6,102.4,931-16.9v5.3c0,130.8-68.5,275-158.4,389.8l165.6,132.6c308-346.2,425.4-533.1,450.4-812.6
	c1.8,0.9,2.7,0.9,4.5,1.8c113,65,203.8,196.7,258.1,332l198.5-77.4c-146-440.6-249.2-635.5-479.7-796.6c1.8-0.9,2.7-1.8,4.5-2.7
	c113-65.9,273.2-78.3,416.5-57.9l32-211.8c-453.9-94.3-674.7-101.5-929.2,16.9v-5.3c0-130.8,68.5-275,158.4-389.8L1244.2,170.9z
	 M1261.1,956c156-4.9,286.6,117.3,291.9,273.2c4.9,156-117.3,286.6-273.2,291.9c-156,4.9-286.6-117.3-291.9-273.2
	C982.9,1091.9,1105.1,961.3,1261.1,956z"/>
<path class="st1" d="M462.7,20.2h1614.6c244.8,0,442.7,198,442.7,442.8v1552c0,244.8-197.9,442.7-442.7,442.7H462.7
	C217.9,2457.9,20,2259.9,20,2015.1v-1552C20,218.2,217.9,20.2,462.7,20.2z"/>
</svg>
