<?xml version="1.0" encoding="utf-8"?>
<!-- Generator: Adobe Illustrator 28.0.0, SVG Export Plug-In . SVG Version: 6.00 Build 0)  -->
<svg version="1.1" id="Calque_1" xmlns="http://www.w3.org/2000/svg" xmlns:xlink="http://www.w3.org/1999/xlink" x="0px" y="0px"
	 viewBox="0 0 2540 2478" style="enable-background:new 0 0 2540 2478;" xml:space="preserve">
<style type="text/css">
	.st0{fill:none;stroke:#090909;stroke-width:40;stroke-miterlimit:10;}
	.st1{fill:#090909;}
</style>
<path class="st0" d="M462.7,20.2h1614.6c244.8,0,442.7,198,442.7,442.8v1552c0,244.8-197.9,442.7-442.7,442.7H462.7
	C217.9,2457.8,20,2259.8,20,2015V463C20,218.2,217.9,20.2,462.7,20.2z"/>
<g>
	<path class="st1" d="M613.8,1728.6V655.7c0-7.3,3.1-11.5,10.4-11.5c17.7,0,34.4,0,58.3-1c25-1,51-1,79.2-2.1
		c28.1-1,58.3-1,90.6-2.1s63.5-1,94.8-1c85.4,0,156.2,10.4,214.6,32.3c52.1,17.7,100,46.9,139.6,85.4c33.3,33.3,59.4,74,76,118.8
		c15.6,43.8,24,88.5,24,135.4c0,89.6-20.8,163.5-62.5,221.9c-41.7,58.3-100,102.1-167.7,127.1c-70.8,26-149,35.4-234.4,35.4
		c-25,0-41.7,0-52.1-1c-10.4-1-25-1-44.8-1v334.4c1,7.3-4.2,13.5-11.5,14.6H626.2c-8.3,0-12.5-4.2-12.5-13.5L613.8,1728.6
		L613.8,1728.6z M840.8,846.3v350c14.6,1,28.1,2.1,40.6,2.1h55.2c40.6,0,81.3-6.2,119.8-18.8c33.3-9.4,62.5-29.2,85.4-55.2
		c21.9-26,32.3-61.5,32.3-107.3c1-32.3-7.3-64.6-24-92.7c-17.7-27.1-42.7-47.9-72.9-59.4c-38.5-15.6-80.2-21.9-122.9-20.8
		c-27.1,0-51,0-70.8,1C862.7,844.2,848.1,845.2,840.8,846.3L840.8,846.3z M1551.2,907.8h182.3c10.4,0,18.8,7.3,21.9,16.7
		c3.1,8.3,5.2,16.7,6.3,26c2.1,10.4,4.2,21.9,5.2,32.3c1,11.5,2.1,24,2.1,37.5c31.2-36.5,68.8-66.7,111.5-89.6
		c47.9-27.1,103.1-40.6,158.3-40.6c7.3-1,13.5,4.2,14.6,11.5v207.3c0,8.3-5.2,11.5-16.7,11.5c-37.5-1-76,2.1-112.5,10.4
		c-30.2,6.2-59.4,15.6-87.5,28.1c-19.8,9.4-38.5,21.9-53.1,38.5v531.2c0,10.4-4.2,14.6-13.5,14.6h-205.2c-8.3,1-15.6-4.2-16.7-12.5
		v-581.2c0-25,0-51-1-78.1s-1-54.2-2.1-81.3c0-24-2.1-46.9-4.2-70.8c-1-5.2,2.1-10.4,7.3-11.5
		C1548.1,906.7,1550.2,906.7,1551.2,907.8L1551.2,907.8z"/>
</g>
</svg>
