<?xml version="1.0" encoding="utf-8"?>
<!-- Generator: Adobe Illustrator 28.0.0, SVG Export Plug-In . SVG Version: 6.00 Build 0)  -->
<svg version="1.1"
	 id="Calque_1" xmlns:cc="http://creativecommons.org/ns#" xmlns:dc="http://purl.org/dc/elements/1.1/" xmlns:rdf="http://www.w3.org/1999/02/22-rdf-syntax-ns#"
	 xmlns="http://www.w3.org/2000/svg" xmlns:xlink="http://www.w3.org/1999/xlink" x="0px" y="0px" viewBox="0 0 2540 2478"
	 style="enable-background:new 0 0 2540 2478;" xml:space="preserve">
<style type="text/css">
	.st0{clip-path:url(#SVGID_00000148660665721964702560000010497212916185252535_);}
	.st1{fill:#090909;}
	.st2{fill:none;stroke:#090909;stroke-width:40;stroke-miterlimit:10;}
</style>
<g transform="matrix(8.6617457,0,0,-8.6617457,-2006.4669,1189.6394)">
	<g>
		<g>
			<g>
				<g>
					<defs>
						<rect id="SVGID_1_" x="-588746.9" y="-713156.2" width="1178250.4" height="1426301.1"/>
					</defs>
					<clipPath id="SVGID_00000026862857354005311640000015885804437354784701_">
						<use xlink:href="#SVGID_1_"  style="overflow:visible;"/>
					</clipPath>
					<g style="clip-path:url(#SVGID_00000026862857354005311640000015885804437354784701_);">
						<g transform="translate(314.0887,70.3635)">
							<path class="st1" d="M87.4-91.8c1.4,2.7,1.1,2.3,2.4,4c1.3,1.8,2.1,1.6-0.3,2.1c-2.4,0.4-2.7,2-3.8,0.2
								c-1.1-1.8-1.4-2.4-0.1-3.7c1.3-1.3,0-2,0.8-2.5C87-92.5,87.4-91.8,87.4-91.8 M112.2-96.6c-1,1-2.5,1.3-3.1-0.7
								c-0.5-2-2.4-2.4-2.5-5.1s-0.4-3.5-1.3-5.1c-0.8-1.6-0.1-3.7-0.1-3.7l1.6-0.1c2,1,2.4,2.1,4.2,3.5s2.5,1.8,1.8,4.5
								C111.9-100.7,113.2-97.6,112.2-96.6 M151.9,38.4H74.7c1.4-2.1,5.6-6.2,5.3-8.1c-0.3-2,3.5-4.5,4.5-6.5s5.8-0.3,6.5-2.5
								s4.8-1.6,5.1-2.8c0.3-1.3,0.3-4.2,2-3.8c1.6,0.3,2.8,3.8,5.1,3.2c2.3-0.7,5.1,1,6.1-1s1-2.8,0-3.8s-1-2.8,1.6-2.5
								c2.5,0.3,3.2,2,6.1,1c2.8-1,2.8,1.3,5.1,1.3c2.2,0,4.8-2.3,5.1-3.5c0.3-1.3,3.2-3.2,4.5-3.2s4.8,0.7,6.1-1s3.8-3.2,2.5-5.5
								c-1.2-2.2-1.5-6.2-1.5-6.2l3.5-2c0.3-1.9,2.5-2.5,0.7-7c-2-4.5-1-3.8,0.7-5.1c1.6-1.3,2.8-2.5,3.2-6.5
								c0.3-3.8-0.7-4.5,2.8-5.8s5.5-2.2,8.6-4.8c3.2-2.5,4.8-3.5,8.3-4.2s6.5,0,7-3.2c0.7-3.2,2.5-2.5,2.8-6.5
								c0.2-2.4,1.5-2.5,2.2-3.3v66.3C178.7,26.3,166.7,38.4,151.9,38.4 M175.4-98.7c-0.2-0.5-0.3-1.1-0.5-1.5c-0.7-1.8-1.2-2.5-3-4
								c-2.5-2.2-3.2-0.3-6.1-1c-2.8-0.7-3.5-2-6.5-4.5c-2.8-2.5-5.5-3.5-6.5-2c-1,1.6-2.8,0.3-2.8,0.3s0-1-3.2-1.3s0,1.3-3.5,1.3
								s-3.2-1-3.2-1l-1.3-1.3c-2.2,0-2.2,3.2-4.2,3.2s-1.3,1-3.5-1.6c-2.3-2.5-5.5-1-6.8-3.5s0.3-1.6-2.3-3.8
								c-2.5-2.3-5.8-3.1-6.8-6.1c-1.3-4.5-1-2.8-4.8-2.8s-3.8,0.7-6.8-1.3c-2.8-2-3.8-2.8-6.5-3.8c-2.5-1-4.2-2-6.5-2.5
								c-2.3-0.7-0.3-4.8-2-8c-1.6-3.2-2.8-6.5-2.8-11.8s0-6.8,0.7-11.8c0.7-5.1,0.7-14.1,1.6-17.9c0.7-2.7,3-3.5,4-4.8h59.1
								c14.8,0,26.8,12,26.8,26.8v67.9C177.8-96.7,176.7-97.7,175.4-98.7 M-47.5-20c0.3,0.3,0.8,0.5,1.1,0.8
								c3.5,2.1,7.9,2.6,12.1,2.8c0.5,0.1,1,0.3,1.4,0.4c1.3,0.5,2.5,1.2,3.4,1.6c2,1,2.8,0.7,5.8-1c2.8-1.6,5.5,0,6.1,1
								c0.7,1-1,1.3-0.7,5.1s2.5,5.5,4.5,7.3c2,2,5.8,3.8,6.8,6.1s1.9,2.5,4.2,1.6c2.2-1,4.5,0,4.5,0l0.3,1c0,0-1,0.7,0.3,2.5
								c1.3,2,3.8,5.1,4.8,4.5c1-0.7,0.7,0.7,2.3,3.2s1.3,4.2,5.1,4.5s5.1,1,7.3,2c2.3,1,4.2,2.8,4.2,4.8s-0.9,3.9,2.6,4.5
								c3.5,0.7,4.5,0.7,8.6,3.2c1.3,0.8,2.4,1.6,3.4,2.3h-64.2c-14.8,0-26.8-12-26.8-26.8v-34.2c0.2,0.3,0.4,0.7,0.7,1
								C-48.8-20.8-47.9-20.4-47.5-20 M48.1-97.7c0.7-0.7,2.2-1.4,2.2-1.4c1.4-0.4,2.8-0.3,2.4,1c-0.4,1.3-1.4,0.1-1.6,1.4
								c-0.1,1.3,0.7,1.1-1.6,1.4c-2.2,0.3-3.1,1-2.8-0.4C46.9-97.3,47.4-97.1,48.1-97.7 M-23.4-190.6h76.7c0.7,0.5,1.4,1.2,2.2,2
								c2.3,2.3,5.1,9.3,5.1,13.1s2.2,11.5,0.3,17.3s-2.5,10.6-4.2,14.4c-1.6,3.8-2.5,8-1.6,12.5c1,4.5,0,10.6-2,10
								c-2-0.7-3.2-0.3-5.8,0.7c-2.5,1-6.5,4.8-8.6,6.1c-2.2,1.3-3.5,3.2-5.1,4.8c-1.6,1.6,0.3,3.8-1.6,5.1
								c-1.9,1.3-4.5,3.5-5.5,4.5s-2.5,1.3-3.8,0s-2.5-2.8-4.8-2.5c-2.2,0.3-4.2,2.5-5.8,1c-1.6-1.6-2.2-2.8-3.5-2.8
								s-3.3,0.9-3.3,2.1c0,1.3,1,2.8-2.2,2c-3.2-1-6.1-1.6-7,0.7c-1,2.3-2.3,2.5-2.5,3.8c-0.3,1.3-0.7,3.8,0,4.8s-0.7,2.3-2,2.5
								c-1.3,0.3-0.3,1.3-0.3,3.2c0,2-2.5-0.3-2.8,2c-0.3,2.2,2.8,5.5,1.6,7c-1.3,1.6-1.6,0-1.6,0s-2.8-0.7-4.8-0.7
								c-1.9,0-5.5,2.5-6.8,1.6c-1.3-1-1.3,0.3-3.2,0.7c-2,0.3-3.5-1-5.5,0.3s-5.1,2.8-5.1,4.2c0,1.3-2.2,3.5-2.2,4.8
								s-1.3,3.2-2.2,3.5c-1,0.3,0.3,4.2,0.3,4.2h-1.4c0,0,0-0.3-2-0.7c-0.4-0.1-1-0.1-1.3-0.1c-1.6,0.9-3,2.1-4.4,3.3
								c-0.1,0.1-0.1,0.1-0.2,0.2v-108.6C-50.2-178.5-38.2-190.6-23.4-190.6 M59.5-76.9c0.7-1.3,1.6-2.2,1.6-2.2
								c1,1.1,0.3,1.3,1.4,2.4c1.1,1.1,2,0.7,1.1,2.2c-0.8,1.6-0.8,2.4-2.1,1.3S59-74,58.4-75C58-75.9,58.8-75.6,59.5-76.9"/>
						</g>
					</g>
				</g>
			</g>
		</g>
	</g>
</g>
<path class="st2" d="M462.7,21.2h1614.6c244.8,0,442.7,198,442.7,442.8v1552c0,244.8-197.9,442.7-442.7,442.7H462.7
	C217.9,2458.9,20,2260.9,20,2016.1v-1552C20,219.2,217.9,21.2,462.7,21.2z"/>
</svg>
