<?xml version="1.0" encoding="utf-8"?>
<!-- Generator: Adobe Illustrator 28.0.0, SVG Export Plug-In . SVG Version: 6.00 Build 0)  -->
<svg version="1.1" id="Calque_1" xmlns="http://www.w3.org/2000/svg" xmlns:xlink="http://www.w3.org/1999/xlink" x="0px" y="0px"
	 viewBox="0 0 2540 2478" style="enable-background:new 0 0 2540 2478;" xml:space="preserve">
<style type="text/css">
	.st0{fill:#090909;}
	.st1{fill:none;stroke:#090909;stroke-width:40;stroke-miterlimit:10;}
</style>
<path class="st0" d="M1596.1,1239.1l384.8-664.5l186,664.5l-186,664.3L1596.1,1239.1L1596.1,1239.1z M1408.5,1346.9l384.9,664.4
	l-670.3-171.7l-484.2-492.7L1408.5,1346.9L1408.5,1346.9z M1793.3,466.5L1408.5,1131H638.9l484.2-492.7L1793.3,466.5z M2342.7,1013
	l-234.8-873.4l-876.3,234.1l-129.7,228.1l-263.2-1.9l-641.4,639.4l641.4,639.2l0,0l263.1-1.9l129.9,228.1l876.2,234l234.8-873.2
	l-133.3-226.2L2342.7,1013L2342.7,1013z"/>
<path class="st1" d="M462.7,20.2h1614.6c244.8,0,442.7,198,442.7,442.8v1552c0,244.8-197.9,442.7-442.7,442.7H462.7
	C217.9,2457.9,20,2259.9,20,2015.1v-1552C20,218.2,217.9,20.2,462.7,20.2z"/>
</svg>
