<?xml version="1.0" encoding="utf-8"?>
<!-- Generator: Adobe Illustrator 28.0.0, SVG Export Plug-In . SVG Version: 6.00 Build 0)  -->
<svg version="1.1" id="Calque_1" xmlns="http://www.w3.org/2000/svg" xmlns:xlink="http://www.w3.org/1999/xlink" x="0px" y="0px"
	 viewBox="0 0 2540 2478" style="enable-background:new 0 0 2540 2478;" xml:space="preserve">
<style type="text/css">
	.st0{fill:#090909;}
	.st1{fill:none;stroke:#090909;stroke-width:40;stroke-miterlimit:10;}
</style>
<g>
	<path class="st0" d="M463.6,993c0,0-40-28.9,8-67.4l111.9-100.1c0,0,32-33.7,65.9-4.3l1033.1,782.1v375.1c0,0-0.5,58.9-76.1,52.4
		L463.6,993z"/>
	<path class="st0" d="M729.9,1234.7l-266.3,242.1c0,0-27.4,20.4,0,56.7L587.2,1646c0,0,29.4,31.5,72.7-4.3l282.3-214.1L729.9,1234.7
		z"/>
	<path class="st0" d="M1197.4,1236.8l488.3-372.9l-3.2-373.1c0,0-20.9-81.4-90.4-39l-649.8,591.4L1197.4,1236.8z"/>
	<path class="st0" d="M1606.5,2031.2c28.4,29,62.7,19.5,62.7,19.5l380.6-187.5c48.7-33.2,41.9-74.4,41.9-74.4V669
		c0-49.2-50.4-66.2-50.4-66.2l-329.8-159c-72.1-44.5-119.3,8-119.3,8s60.7-43.7,90.4,39v1480.7c0,10.2-2.2,20.2-6.5,29.2
		c-8.7,17.5-27.5,33.9-72.7,27L1606.5,2031.2z"/>
</g>
<path class="st1" d="M462.7,20.2h1614.6c244.8,0,442.7,197.9,442.7,442.7V2015c0,244.8-197.9,442.7-442.7,442.7H462.7
	C217.9,2457.7,20,2259.8,20,2015V463C20,218.1,217.9,20.2,462.7,20.2z"/>
</svg>
