<?xml version="1.0" encoding="utf-8"?>
<!-- Generator: Adobe Illustrator 28.0.0, SVG Export Plug-In . SVG Version: 6.00 Build 0)  -->
<svg version="1.1" id="Calque_1" xmlns="http://www.w3.org/2000/svg" xmlns:xlink="http://www.w3.org/1999/xlink" x="0px" y="0px"
	 viewBox="0 0 2540 2478" style="enable-background:new 0 0 2540 2478;" xml:space="preserve">
<style type="text/css">
	.st0{fill:#090909;}
</style>
<path class="st0" d="M1270,0C585.7,0,31,554.7,31,1239s554.7,1239,1239,1239s1239-554.7,1239-1239S1954.3,0,1270,0z M1652.7,1228.9
	h-235.6v868.9h-356.9v-863.2H865.9V934.6h188.4c0-88.7,0.8-167.4,0-249.7c0-236.1,181.2-304.6,344.1-304.6h274.4l0,0v296.2
	c-23,0.1-112.9,0-159,0c-5.8,0-102.9-5.3-102.9,88c0.5,38.2,0,169.4,0,169.4h263.1L1652.7,1228.9z"/>
</svg>
