<?xml version="1.0" encoding="utf-8"?>
<!-- Generator: Adobe Illustrator 28.0.0, SVG Export Plug-In . SVG Version: 6.00 Build 0)  -->
<svg version="1.1" id="Calque_1" xmlns="http://www.w3.org/2000/svg" xmlns:xlink="http://www.w3.org/1999/xlink" x="0px" y="0px"
	 viewBox="0 0 2540 2478" style="enable-background:new 0 0 2540 2478;" xml:space="preserve">
<style type="text/css">
	.st0{fill:#090909;}
</style>
<g>
	<path class="st0" d="M1270,0.5C568.8,0.5,0.2,569,0.2,1270.3c0,561.1,363.8,1037,868.3,1204.9c63.4,11.8,86.7-27.5,86.7-61.1
		c0-30.3-1.1-130.3-1.7-236.4c-353.2,76.8-427.8-149.8-427.8-149.8c-57.7-146.7-141-185.8-141-185.8c-115.2-78.8,8.7-77.2,8.7-77.2
		c127.5,8.9,194.6,130.8,194.6,130.8c113.2,194.1,297,138,369.6,105.6c11.4-82,44.3-138,80.6-169.8
		c-281.9-31.9-578.3-140.8-578.3-627.4c0-138.6,49.6-251.9,130.8-340.9C577.5,831.2,534,702,603,527.1c0,0,106.6-34.2,349.3,130.2
		c101.2-28.1,209.9-42.3,317.8-42.7c107.9,0.5,216.7,14.6,318.1,42.7c242.4-164.3,348.9-130.2,348.9-130.2
		c69.1,174.9,25.6,304.1,12.5,336.1c81.4,88.9,130.7,202.1,130.7,340.9c0,487.7-297,595.1-579.8,626.6
		c45.6,39.4,86.2,116.7,86.2,235.2c0,169.9-1.5,306.6-1.5,348.4c0,33.8,22.9,73.4,87.2,60.9C2176.6,2307,2540,1831.2,2540,1270.3
		C2539.8,569,1971.3,0.5,1270,0.5"/>
	<path class="st0" d="M475.8,1809.4c-2.7,6.3-12.7,8.2-21.7,3.9c-9.3-4.1-14.4-12.8-11.4-19.1c2.7-6.5,12.7-8.3,21.8-4
		C473.7,1794.4,479,1803,475.8,1809.4 M538.2,1865.1c-6.1,5.6-17.9,3-25.9-5.8c-8.3-8.8-9.8-20.7-3.8-26.4c6.3-5.6,17.7-3,26.1,5.8
		C543,1847.7,544.6,1859.5,538.2,1865.1 M581,1936.4c-7.8,5.4-20.6,0.3-28.3-11c-7.8-11.3-7.8-24.8,0.1-30.3
		c7.9-5.4,20.5-0.6,28.3,10.6C589,1917.3,589,1930.9,581,1936.4 M653.6,2019c-7,7.7-21.8,5.6-32.7-4.9
		c-11.1-10.3-14.2-24.8-7.2-32.5c7.1-7.7,21.9-5.5,32.9,4.9C657.6,1996.9,661,2011.5,653.6,2019 M747.2,2046.9
		c-3.1,9.9-17.4,14.5-31.8,10.3c-14.4-4.3-23.8-16-20.9-26.1c3-10.1,17.4-14.7,31.8-10.2C740.8,2025.2,750.2,2036.8,747.2,2046.9
		 M853.8,2058.8c0.3,10.5-11.9,19.2-27,19.3c-15.2,0.3-27.4-8.1-27.7-18.4c0-10.6,11.9-19.2,27.1-19.4
		C841.5,2039.9,853.8,2048.3,853.8,2058.8 M958.5,2054.7c1.8,10.2-8.7,20.7-23.7,23.5c-14.7,2.7-28.3-3.7-30.3-13.7
		c-1.8-10.5,8.9-20.9,23.5-23.7C943.2,2038.2,956.7,2044.4,958.5,2054.7"/>
</g>
</svg>
