<?xml version="1.0" encoding="utf-8"?>
<!-- Generator: Adobe Illustrator 28.0.0, SVG Export Plug-In . SVG Version: 6.00 Build 0)  -->
<svg version="1.1" id="Calque_1" xmlns="http://www.w3.org/2000/svg" xmlns:xlink="http://www.w3.org/1999/xlink" x="0px" y="0px"
	 viewBox="0 0 2540 2478" style="enable-background:new 0 0 2540 2478;" xml:space="preserve">
<style type="text/css">
	.st0{fill:#090909;}
</style>
<path class="st0" d="M857.1,1239c0-228.1,184.9-413,412.9-413s413,185,413,413s-185,413-413,413S857.1,1467,857.1,1239 M633.8,1239
	c0,351.4,284.8,636.2,636.2,636.2s636.2-284.8,636.2-636.2S1621.4,602.8,1270,602.8S633.8,887.6,633.8,1239 M1782.8,577.6
	c0,82.1,66.6,148.7,148.6,148.7s148.7-66.6,148.7-148.6S2013.5,429,1931.5,429h-0.1C1849.3,429,1782.9,495.4,1782.8,577.6
	 M769.5,2247.5c-120.8-5.5-186.5-25.6-230.1-42.6c-57.9-22.6-99.2-49.3-142.5-92.7c-43.4-43.3-70.2-84.6-92.7-142.5
	c-17-43.7-37.2-109.3-42.6-230.1c-6-130.6-7.2-169.8-7.2-500.7s1.3-370,7.2-500.7c5.5-120.8,25.8-186.3,42.6-230.1
	c22.6-57.9,49.3-99.2,92.7-142.5s84.6-70.2,142.5-92.7c43.7-17,109.3-37.2,230.1-42.6c130.6-6,169.8-7.2,500.6-7.2
	s370,1.3,500.7,7.2c120.8,5.5,186.3,25.8,230.1,42.6c57.9,22.5,99.2,49.3,142.5,92.7c43.4,43.3,70.2,84.7,92.7,142.5
	c17,43.7,37.2,109.3,42.6,230.1c6,130.7,7.2,169.8,7.2,500.7s-1.3,370-7.2,500.7c-5.5,120.8-25.8,186.5-42.6,230.1
	c-22.6,57.9-49.3,99.2-92.7,142.5c-43.3,43.3-84.7,70.2-142.5,92.7c-43.7,17-109.3,37.2-230.1,42.6c-130.6,6-169.8,7.2-500.7,7.2
	S900,2253.4,769.5,2247.5 M759.3,7.5c-132,6-222,26.9-300.8,57.6C377,96.8,308,139.2,239,208S127.8,345.9,96.1,427.5
	c-30.7,78.8-51.5,168.8-57.6,300.8C32.4,860.4,31,902.7,31,1239.1s1.4,378.7,7.5,510.8c6,131.9,26.9,222,57.6,300.8
	c31.7,81.5,74,150.7,142.9,219.5c69,68.8,137.9,111.2,219.5,142.9c78.9,30.7,168.8,51.5,300.8,57.6c132.2,6,174.4,7.5,510.8,7.5
	s378.7-1.4,510.8-7.5c131.9-6,222-26.9,300.8-57.6c81.5-31.7,150.6-74.1,219.5-142.9c69-68.8,111.2-138,142.9-219.5
	c30.7-78.8,51.6-168.8,57.6-300.8c6-132.2,7.4-174.4,7.4-510.8s-1.4-378.7-7.4-510.8c-6-131.9-26.9-222-57.6-300.8
	C2412.4,346,2370,277,2301.2,208c-68.8-69-138-111.2-219.4-142.9c-78.9-30.7-168.9-51.6-300.8-57.6c-132.1-6-174.4-7.5-510.8-7.5
	S891.4,1.4,759.3,7.5"/>
</svg>
