<?xml version="1.0" encoding="utf-8"?>
<!-- Generator: Adobe Illustrator 28.0.0, SVG Export Plug-In . SVG Version: 6.00 Build 0)  -->
<svg version="1.1" id="Calque_1" xmlns="http://www.w3.org/2000/svg" xmlns:xlink="http://www.w3.org/1999/xlink" x="0px" y="0px"
	 viewBox="0 0 2540 2478" style="enable-background:new 0 0 2540 2478;" xml:space="preserve">
<style type="text/css">
	.st0{fill:#090909;}
</style>
<path class="st0" d="M2325.8,0H214.2C113,0,31,79.5,31,177.4v2123c0,97.9,82,177.4,183.2,177.4h2111.7
	c101.2,0,183.2-79.5,183.2-177.4V177.6C2509,79.5,2427,0,2325.8,0z M413.3,2073.7V958.2h370.8v1115.6H413.3z M598.7,805.8
	L598.7,805.8h-2.5c-124.4,0-204.9-85.6-204.9-192.8c0-109.5,82.9-192.8,209.8-192.8c126.8,0,204.9,83.2,207.3,192.8
	C808.5,720.2,728,805.8,598.7,805.8z M2121.1,2073.7h-370.8v-596.8c0-149.9-53.6-252.2-187.8-252.2c-102.4,0-163.5,68.9-190.3,135.6
	c-9.8,23.8-12.2,57.1-12.2,90.5v622.9H989.3l0,0c0,0,4.9-1010.9,0-1115.6h370.8v157.9c49.3-76,137.5-184,334.2-184
	c243.9,0,426.8,159.4,426.8,502.1L2121.1,2073.7L2121.1,2073.7z"/>
</svg>
