<?xml version="1.0" encoding="utf-8"?>
<!-- Generator: Adobe Illustrator 28.0.0, SVG Export Plug-In . SVG Version: 6.00 Build 0)  -->
<svg version="1.1" id="Calque_1" xmlns="http://www.w3.org/2000/svg" xmlns:xlink="http://www.w3.org/1999/xlink" x="0px" y="0px"
	 viewBox="0 0 2540 2478" style="enable-background:new 0 0 2540 2478;" xml:space="preserve">
<style type="text/css">
	.st0{fill:#090909;}
</style>
<path class="st0" d="M1326.3,2115.2l-521.1-9.5c-168.7-3.3-337.8,3.3-503.2-31.1c-251.6-51.4-269.5-303.5-288.1-514.8
	c-25.7-297.3-15.7-599.8,32.8-894.6c27.4-165.4,135.2-264,301.8-274.8c562.5-39,1128.8-34.4,1690.1-16.2
	c59.2,1.7,119,10.7,177.5,21.1c288.6,50.5,295.6,336.1,314.2,576.7c18.6,242.9,10.7,487-24.9,728.3
	c-28.6,199.7-83.3,367.2-314.2,383.4c-289.3,21.1-572,38.2-862.3,32.8C1328.8,2115.2,1327.1,2115.2,1326.3,2115.2z M1020,1609.4
	c218-125.2,432-248.3,648.8-372.6c-218.5-125.2-432-248.3-648.8-372.6V1609.4z"/>
</svg>
