<?xml version="1.0" encoding="utf-8"?>
<!-- Generator: Adobe Illustrator 27.8.1, SVG Export Plug-In . SVG Version: 6.00 Build 0)  -->
<svg version="1.1" id="Calque_1" xmlns="http://www.w3.org/2000/svg" xmlns:xlink="http://www.w3.org/1999/xlink" x="0px" y="0px"
	 viewBox="0 0 2540 2478" style="enable-background:new 0 0 2540 2478;" xml:space="preserve">
<style type="text/css">
	.st0{fill:none;stroke:#000000;stroke-width:40;stroke-miterlimit:10;}
</style>
<path class="st0" d="M462.7,20.2h1614.6c244.8,0,442.7,198,442.7,442.8v1552c0,244.8-197.9,442.7-442.7,442.7H462.7
	C217.9,2457.8,20,2259.8,20,2015V463C20,218.2,217.9,20.2,462.7,20.2z"/>
<g>
	<path d="M1228.3,1478.6H840.8l-79.2,244.8c-2.1,9.4-10.4,15.6-19.8,14.6H546c-11.5,0-14.6-6.3-11.5-18.8L870,753.6
		c3.1-10.4,6.2-21.9,10.4-34.4c4.2-21.9,6.2-44.8,6.2-67.7c-1-5.2,3.1-10.4,8.3-11.5h269.8c8.3,0,12.5,3.1,13.5,8.3l380.2,1072.9
		c3.1,11.5,0,16.7-10.4,16.7h-217.7c-7.3,1-14.6-4.2-16.7-11.5L1228.3,1478.6z M901.2,1267.1h264.6c-6.2-21.9-14.6-47.9-24-75
		c-9.4-28.1-18.8-58.3-28.1-89.6c-10.4-32.3-19.8-63.5-30.2-95.8c-10.4-32.3-19.8-62.5-28.1-92.7c-8.3-29.2-15.6-56.2-22.9-81.3
		h-2.1c-9.4,44.8-20.8,89.6-35.4,134.4c-15.6,50-31.2,102.1-47.9,154.2C932.5,1174.4,916.9,1223.4,901.2,1267.1L901.2,1267.1z
		 M1790.8,822.3c-34.4,1-67.7-12.5-92.7-36.5c-24-26-36.5-60.4-35.4-95.8c-1-35.4,12.5-68.8,37.5-92.7c25-24,58.3-36.5,92.7-36.5
		c40.6,0,71.9,12.5,94.8,36.5c22.9,25,35.4,58.3,34.4,92.7c1,35.4-11.5,69.8-36.5,95.8C1861.7,810.9,1826.3,824.4,1790.8,822.3
		L1790.8,822.3z M1674.2,1726.5V924.4c0-10.4,4.2-14.6,13.5-14.6H1894c9.4,0,13.5,5.2,13.5,14.6v802.1c0,11.5-4.2,16.7-13.5,16.7
		h-204.2C1679.4,1743.2,1674.2,1736.9,1674.2,1726.5z"/>
</g>
</svg>
