<?xml version="1.0" encoding="utf-8"?>
<!-- Generator: Adobe Illustrator 27.8.1, SVG Export Plug-In . SVG Version: 6.00 Build 0)  -->
<svg version="1.1" id="Calque_1" xmlns="http://www.w3.org/2000/svg" xmlns:xlink="http://www.w3.org/1999/xlink" x="0px" y="0px"
	 viewBox="0 0 2540 2478" style="enable-background:new 0 0 2540 2478;" xml:space="preserve">
<style type="text/css">
	.st0{fill:none;stroke:#000000;stroke-width:40;stroke-miterlimit:10;}
</style>
<path class="st0" d="M462.7,20.2h1614.6c244.8,0,442.7,198,442.7,442.8v1552c0,244.8-197.9,442.7-442.7,442.7H462.7
	C217.9,2457.8,20,2259.8,20,2015V463C20,218.2,217.9,20.2,462.7,20.2z"/>
<g>
	<path d="M928.3,657.8v1072.9c0,11.5-5.2,16.7-14.6,16.7H709.6c-9.4,0-13.5-5.2-13.5-16.7V657.8c0-9.4,5.2-13.5,14.6-13.5h203.1
		c6.2-1,12.5,3.1,13.5,10.4C928.3,655.7,928.3,656.7,928.3,657.8L928.3,657.8z M1530.4,1759.8c-77.1,1-154.2-14.6-224-46.9
		c-65.6-30.2-119.8-80.2-157.3-141.7c-38.5-63.5-57.3-142.7-57.3-237.5c-1-77.1,18.8-153.1,57.3-219.8
		c39.6-67.7,96.9-124,165.6-161.5c72.9-40.6,160.4-60.4,263.5-60.4c5.2,0,12.5,0,21.9,1s19.8,1,32.3,2.1v-329
		c0-7.3,3.1-11.5,10.4-11.5h211.5c5.2-1,9.4,3.1,10.4,7.3v993.8c0,18.8,1,39.6,2.1,62.5c2.1,21.9,3.1,42.7,4.2,60.4
		c0,7.3-3.1,13.5-10.4,16.7c-54.2,22.9-111.5,39.6-169.8,50C1638.8,1754.6,1584.6,1759.8,1530.4,1759.8L1530.4,1759.8z
		 M1632.5,1551.5v-458.3c-9.4-2.1-18.8-4.2-28.1-5.2c-11.5-1-22.9-2.1-34.4-2.1c-40.6,0-81.3,8.3-117.7,27.1
		c-35.4,17.7-65.6,43.8-88.5,77.1s-34.4,78.1-34.4,132.3c-1,36.5,5.2,72.9,17.7,107.3c10.4,28.1,26,53.1,46.9,74
		c19.8,18.8,43.8,33.3,70.8,41.7c28.1,9.4,57.3,13.5,86.5,13.5c15.6,0,30.2-1,43.8-2.1C1608.5,1557.8,1621,1555.7,1632.5,1551.5
		L1632.5,1551.5z"/>
</g>
</svg>
