<?xml version="1.0" encoding="utf-8"?>
<!-- Generator: Adobe Illustrator 27.8.1, SVG Export Plug-In . SVG Version: 6.00 Build 0)  -->
<svg version="1.1" id="Layer_1" xmlns="http://www.w3.org/2000/svg" xmlns:xlink="http://www.w3.org/1999/xlink" x="0px" y="0px"
	 viewBox="0 0 2540 2478" style="enable-background:new 0 0 2540 2478;" xml:space="preserve">
<style type="text/css">
	.st0{stroke:#000000;stroke-width:40;stroke-miterlimit:10;}
	.st1{fill:none;stroke:#000000;stroke-width:40;stroke-miterlimit:10;}
</style>
<path class="st0" d="M1302.8,2308.9h-63.4c-3-1.1-5.9-1.3-8.9-1.3c-33.9-1.6-67.5-4.3-100.8-8.9c-62.3-8.1-123.6-21.8-183.3-40.8
	c-102.4-32.8-197.8-79.8-286.2-141.1c-82-57-154.5-124.2-217.7-201.5c-74.4-90.8-132.5-191.1-173.6-301.2
	c-36.8-97.8-58.9-199.1-65.6-303.6c-0.3-5.6-1.1-11.3-3-16.9v-110.4c1.9-4.8,2.7-9.9,3-15c1.3-25,4-50,7.3-74.7
	c16.1-119.3,51.6-232.5,106.1-339.7c37.6-73.9,83.3-142.7,137-206.1c53.2-62.9,112.9-119.1,179-168.2
	c107.9-80.4,226.4-138.1,355.9-173.6c62.9-17.2,127.1-28.5,192.1-33.9c11.5-1.1,23.7-0.3,35.2-3h108.6c8.3,2.4,16.9,1.1,25.2,1.9
	c43,3.8,85.7,9.2,128.2,17.5c133.6,26.3,257.4,76.3,371.9,150.2c89,57.2,167.4,126.3,235.9,206.6c55.1,64.5,101.8,134.6,140,210.4
	c45.1,89.5,77.4,183.3,95.7,281.9c9.7,52.1,16.9,104.8,17.2,158c0,3.5,0.8,7.3,1.1,10.7v63.4c-1.1,4-1.1,8.3-1.3,12.6
	c0,10.2,0,20.4-0.8,30.6c-4.8,65-15,129.3-31.2,192.7c-30.9,119.1-80.6,229.5-149.7,331.3c-51.3,75.8-111.2,144-180,204.5
	c-68.5,60.2-143.5,111-224.9,152.1c-93.8,47.3-192.4,80.1-295.9,98.1c-39.8,7-79.8,11.5-120.1,14
	C1325.1,2306.8,1313.8,2306.5,1302.8,2308.9L1302.8,2308.9z M870.4,1798.3c17.7,0.5,37.6-1.6,57.5-5.9
	c58.9-12.9,108.9-39.8,147.3-87.3c23.4-29,43-60.4,59.9-93.5c19.9-39,36.5-79.5,51-120.6c17.7-49.7,32.8-100.5,44.4-151.8
	c6.4-28.8-0.8-46.8-32.5-56.7c-40.3-12.6-80.9-23.9-122.3-33.1c-68.5-15-137.6-24.7-208-22.3c-19.9,0.8-39.8,3-59.4,6.4
	c-57,9.9-105.3,36.3-144.8,77.9c-67.5,70.9-94.3,155.6-77.7,252.1C609.7,1701.3,731.7,1799.4,870.4,1798.3L870.4,1798.3z M984.1,810
	c-0.8,20.1,3,42.2,9.2,64.2c11.8,41.9,31.4,80.3,54.6,116.6c52.7,82.5,119.1,153.2,191.1,218.7c5.9,5.4,12.9,9.9,20.4,13.4
	c7.5,3.8,15,3.8,22.8,0.5c7.5-3.2,14.3-7.8,19.9-13.7c25-24.7,49.7-49.5,73.4-75c33.3-36.3,65-73.6,93.8-113.7
	c26.1-36.3,49.5-74.4,66.6-115.8c17.2-41.1,25.5-83.6,19.9-128.2c-9.4-73.6-40.8-136-97-184.9c-66.4-57.7-143.8-80.8-230.9-68
	C1086.2,545.3,983.5,670,984.1,810L984.1,810z M1682.2,1796.7c7-0.3,19.6,0,32.2-1.9c84.9-12.6,152.1-53.8,199.4-125.7
	c37.1-56.7,52.1-119.6,45.1-187c-6.4-63.2-32-118.5-75.2-165c-37.6-40.3-82.5-68.3-136.8-80.1c-29.8-6.4-60.2-9.2-90.5-9.7
	c-36-0.5-71.7,2.7-107.2,7.5c-70.9,9.9-140.3,26.9-208.5,48.4c-7,2.1-13.4,5.4-19.1,9.9c-7.3,5.9-11.3,13.2-11.3,22.6
	c0,8.1,0.8,16.1,2.7,24.2c4.3,16.1,8.1,32.2,12.4,48.1c19.9,72.6,44.1,143.5,77.1,211.2c19.1,39,41.1,75.8,69.3,108.9
	c21.5,25,46.5,45.4,76.3,59.7C1589,1787.3,1631.4,1797.8,1682.2,1796.7L1682.2,1796.7z"/>
<path class="st1" d="M462.7,23.8h1614.6c244.8,0,442.7,198,442.7,442.8v1552c0,244.8-197.9,442.7-442.7,442.7H462.7
	C217.9,2461.4,20,2263.4,20,2018.6v-1552C20,221.8,217.9,23.8,462.7,23.8z"/>
</svg>
