<?xml version="1.0" encoding="utf-8"?>
<!-- Generator: Adobe Illustrator 27.8.1, SVG Export Plug-In . SVG Version: 6.00 Build 0)  -->
<svg version="1.1" id="Ebene_1" xmlns="http://www.w3.org/2000/svg" xmlns:xlink="http://www.w3.org/1999/xlink" x="0px" y="0px"
	 viewBox="0 0 2540.7 2478.4" style="enable-background:new 0 0 2540.7 2478.4;" xml:space="preserve">
<style type="text/css">
	.st0{fill:none;stroke:#000000;stroke-width:40;stroke-miterlimit:10;}
</style>
<g>
	<path d="M1591.6,521.9h480.8l-642.5,1186.9c0,0-108.3-314.4-154.8-426.6"/>
	<g>
		<path d="M1710.1,1989.4h362.2V521.9C2072,1288.8,1749.7,1989.4,1710.1,1989.4z"/>
	</g>
	<path d="M1429.8,1708.7h-298.9L470.7,521.9c117.1-14.9,350.9-35,466.8-44.4L1429.8,1708.7z"/>
	<path d="M853.5,1240.1c-99.1,391.7-383.2,760.8-382.8,760.5c329,0,399.9-47.7,399.9-73c0-14,0-451,0-657.7
		C864.8,1260.2,859.3,1250.1,853.5,1240.1z"/>
	<path d="M470.7,521.9v1478.8c180-297.4,284.9-492,377.7-769.3C619.7,826.9,470.7,521.9,470.7,521.9z"/>
	<polyline points="1685.2,1931.3 1710.1,1989.4 1710.1,1218.8 1685.2,1260.5 	"/>
	<path d="M1708.9,1220.3v766.6l0.9,2.4c25.8,0,362.2-829.6,362.2-1467.5C2072,521.9,1866.8,950,1708.9,1220.3z"/>
</g>
<path class="st0" d="M464.2,20.3h1614.6c244.8,0,442.7,197.9,442.7,442.7v1552.1c0,244.8-197.9,442.7-442.7,442.7H464.2
	c-244.8,0-442.7-197.9-442.7-442.7V463C21.5,218.2,219.4,20.3,464.2,20.3z"/>
</svg>
