<?xml version="1.0" encoding="utf-8"?>
<!-- Generator: Adobe Illustrator 27.8.1, SVG Export Plug-In . SVG Version: 6.00 Build 0)  -->
<svg version="1.1" id="Calque_1" xmlns="http://www.w3.org/2000/svg" xmlns:xlink="http://www.w3.org/1999/xlink" x="0px" y="0px"
	 viewBox="0 0 2540 2478" style="enable-background:new 0 0 2540 2478;" xml:space="preserve">
<style type="text/css">
	.st0{fill:none;stroke:#000000;stroke-width:40;stroke-miterlimit:10;}
</style>
<g>
	<ellipse cx="1159.3" cy="448.8" rx="118.4" ry="118.4"/>
	<ellipse transform="matrix(0.7071 -0.7071 0.7071 0.7071 -792.8893 2007.8959)" cx="2027.3" cy="1961.1" rx="186.6" ry="186.6"/>
	<ellipse cx="408.4" cy="1961.1" rx="82.4" ry="82.4"/>
	<path d="M1158.7,692.2c-398.9,0-721.9,323-721.9,721.9s323,721.9,721.9,721.9s721.9-323,721.9-721.9S1557.6,692.2,1158.7,692.2
		L1158.7,692.2z M669.7,1133.7l487.7-281.8l486.4,281.8v254.8l-223.9-72.1v-52.8l-262.5-151.8l-193,112l679.4,217.5v254.8
		l-487.7,281.8l-487.7-280.6v-256.1l225.2,70.8v52.8l262.5,151.8l195.6-113.2l-682-216.2L669.7,1133.7z"/>
</g>
<path class="st0" d="M462.7,20.2h1614.6c244.8,0,442.7,197.9,442.7,442.7v1552.1c0,244.8-197.9,442.7-442.7,442.7H462.7
	c-244.8,0-442.7-197.9-442.7-442.7V463C20,218.1,217.9,20.2,462.7,20.2z"/>
</svg>
