<?xml version="1.0" encoding="utf-8"?>
<!-- Generator: Adobe Illustrator 27.8.1, SVG Export Plug-In . SVG Version: 6.00 Build 0)  -->
<svg version="1.1" id="Layer_1" xmlns="http://www.w3.org/2000/svg" xmlns:xlink="http://www.w3.org/1999/xlink" x="0px" y="0px"
	 viewBox="0 0 2540 2478" style="enable-background:new 0 0 2540 2478;" xml:space="preserve">
<style type="text/css">
	.st0{fill-rule:evenodd;clip-rule:evenodd;}
	.st1{fill:none;stroke:#000000;stroke-width:40;stroke-miterlimit:10;}
</style>
<path class="st0" d="M1889.1,1385.9L1889.1,1385.9c-17.8,86-97.2,306.6-350,426.1l-101.5-114.2l-171.2,172.3
	c-197.6-2.7-382.7-97.6-500.2-256.5c18.2,5.7,37,9.2,56.1,10.5c28,0.5,58.4-9.8,58.4-57.1v-464.6c1.5-42.2-31.5-77.6-73.8-79.1
	c-7.6-0.3-15.2,0.6-22.5,2.6c-79.3,18.1-142.7,216.1-142.7,216.1c-1.8-185,77.9-361.4,217.9-482.4
	c118.1-100.1,233.5-134.7,321.1-148.3c-86.6,49.3-135.3,129.9-135.3,197.5c0,108.4,65.5,95.6,84.9,79.6v627.4
	c3.3,7.9,7.5,15.3,12.7,22.1c17.6,24.3,45.9,38.6,75.9,38.3c65.6,0,150.6-74.8,150.6-74.8v-508c0-51.7-38.9-114.2-77.9-135.5
	c0,0,72.2-12.7,128,29.9l0,0c10.5-12.8,21.6-25.1,33.4-36.7c129.8-127.5,252.2-163.6,354.2-181.8l0,0c0,0-185.6,145.9-185.6,341.2
	c0,145.4,3.7,500,3.7,500C1694.3,1576.8,1796.6,1481.2,1889.1,1385.9z"/>
<path class="st0" d="M1265.3,206.6c-571.2,0-1034.2,463.1-1034.2,1034.3s463.1,1034.2,1034.3,1034.2S2299.6,1812,2299.6,1240.8l0,0
	c0-571.2-463-1034.2-1034.2-1034.2C1265.4,206.6,1265.4,206.6,1265.3,206.6z M1265.3,2233.6c-548.4,0-992.9-444.5-993-992.8
	c0-548.4,444.5-992.9,992.8-993s992.9,444.5,993,992.8c0,0,0,0,0,0.1C2258.2,1789.1,1813.7,2233.6,1265.3,2233.6z"/>
<path class="st1" d="M462.7,20.2h1614.6c244.8,0,442.7,198,442.7,442.8v1552c0,244.8-197.9,442.7-442.7,442.7H462.7
	C217.9,2457.9,20,2259.9,20,2015.1v-1552C20,218.2,217.9,20.2,462.7,20.2z"/>
</svg>
