<?xml version="1.0" encoding="utf-8"?>
<!-- Generator: Adobe Illustrator 27.8.1, SVG Export Plug-In . SVG Version: 6.00 Build 0)  -->
<svg version="1.1" id="katman_1" xmlns="http://www.w3.org/2000/svg" xmlns:xlink="http://www.w3.org/1999/xlink" x="0px" y="0px"
	 viewBox="0 0 2540 2478" style="enable-background:new 0 0 2540 2478;" xml:space="preserve">
<style type="text/css">
	.st0{fill:none;stroke:#000000;stroke-width:40;stroke-miterlimit:10;}
</style>
<path d="M279.8,248.8v1980.5h1980.5V248.8H279.8z M907.7,814c2.5-89.1,59.4-168.3,143.6-198c68.5-23.9,141.9-37.1,218.7-37.1
	c156,0,298.7,54.5,412.6,145.2c5.8,5,4.1,14-3.3,15.7c-47,11.5-174.9,52.8-255.8,158.4c-76.7,101.5-114.7,208.8-151.8,312.7
	c-26.4,73.4-53.6,150.2-95.7,228.6c-13.2,23.9-30.5,39.6-46.2,40.4c-13.2,0.8-28.9-9.9-42.1-28.9
	C932.5,1234.1,905.3,987.3,907.7,814L907.7,814z M1119.8,1881.1c-229.4-51.2-429.1-236.8-491-483.6c-48.7-193.1-5-384.5,89.1-521.5
	c9.9-14,32.2-8.2,32.2,9.1c5,189,49.5,433.2,208.8,656.9c42.9,61.1,104.8,125.4,169.2,125.4h11.6c71-4.9,134.5-80.1,174.1-153.5
	c47.9-89.1,76.7-171.6,105.6-250.9c36.3-101.5,67.7-188.2,129.6-270.7c30.5-40.4,82.5-90.8,152.7-99.8c20.6-2.5,42.1-1.7,61.9,1.7
	c56.1,12.4,101.5,53.6,122.1,107.3c28.1,73.4,43.7,152.7,43.7,236C1929.3,1650.8,1548.9,1977.6,1119.8,1881.1L1119.8,1881.1z"/>
<path class="st0" d="M462.7,20.2h1614.6c244.8,0,442.7,198,442.7,442.8v1552c0,244.8-197.9,442.7-442.7,442.7H462.7
	C217.9,2457.9,20,2259.9,20,2015.1v-1552C20,218.2,217.9,20.2,462.7,20.2z"/>
</svg>
