<?xml version="1.0" encoding="utf-8"?>
<!-- Generator: Adobe Illustrator 27.8.1, SVG Export Plug-In . SVG Version: 6.00 Build 0)  -->
<svg version="1.1" id="Calque_1" xmlns="http://www.w3.org/2000/svg" xmlns:xlink="http://www.w3.org/1999/xlink" x="0px" y="0px"
	 viewBox="0 0 2540 2478" style="enable-background:new 0 0 2540 2478;" xml:space="preserve">
<style type="text/css">
	.st0{fill-rule:evenodd;clip-rule:evenodd;}
	.st1{fill:none;stroke:#000000;stroke-width:40;stroke-miterlimit:10;}
</style>
<path class="st0" d="M2235.4,831.1c-53.1-125.3-127.9-236.3-224.6-333c-96.6-96.6-207.7-171.5-333-224.4
	c-129.8-55-265.8-82.4-407.8-82.4s-278,27.5-407.8,82.3C736.7,326.6,625.6,401.4,529,498S357.5,705.7,304.6,831
	c-54.9,129.8-82.3,265.7-82.3,407.8s27.5,278,82.3,407.8c53,125.4,127.8,236.6,224.4,333.2c96.6,96.6,207.8,171.5,333.2,224.4
	c129.6,54.9,265.6,82.3,407.8,82.3c142.1,0,278-27.5,407.8-82.3c125.3-53,236.3-127.8,333-224.4c96.6-96.6,171.6-207.8,224.6-333.2
	c54.9-129.8,82.3-265.7,82.3-407.8C2317.8,1096.8,2290.3,960.9,2235.4,831.1z M1416.9,1662c-3.9,13.9-11.9,26.1-24.1,36.7
	c-11.7,10-26,15.1-42.7,15.1h-172.4c-17.3,0-31.8-5-43.6-15.1c-11.7-10-19.2-22.3-22.6-36.7L877.1,862.6H1072l175,696
	c0,1.1,0.6,2.1,1.7,2.9l3.3,1h24.3c2.4,0,4.1-1.3,5-4l174.1-696h194.2L1416.9,1662z"/>
<path class="st1" d="M462.7,22.9h1614.6c244.8,0,442.7,198,442.7,442.8v1552c0,244.8-197.9,442.7-442.7,442.7H462.7
	C217.9,2460.6,20,2262.6,20,2017.8v-1552C20,220.9,217.9,22.9,462.7,22.9z"/>
</svg>
