<?xml version="1.0" encoding="utf-8"?>
<!-- Generator: Adobe Illustrator 27.8.1, SVG Export Plug-In . SVG Version: 6.00 Build 0)  -->
<svg version="1.1" id="Layer_1" xmlns="http://www.w3.org/2000/svg" xmlns:xlink="http://www.w3.org/1999/xlink" x="0px" y="0px"
	 viewBox="0 0 2540 2478" style="enable-background:new 0 0 2540 2478;" xml:space="preserve">
<style type="text/css">
	.st0{fill-rule:evenodd;clip-rule:evenodd;fill:#FFFFFF;}
	.st1{fill-rule:evenodd;clip-rule:evenodd;fill:#111111;}
	.st2{fill-rule:evenodd;clip-rule:evenodd;fill:#A1A1A1;}
	.st3{fill-rule:evenodd;clip-rule:evenodd;fill:#8A8A8A;}
	.st4{fill-rule:evenodd;clip-rule:evenodd;fill:#878787;}
	.st5{fill-rule:evenodd;clip-rule:evenodd;fill:#848484;}
	.st6{fill-rule:evenodd;clip-rule:evenodd;fill:#828282;}
	.st7{fill-rule:evenodd;clip-rule:evenodd;fill:#808080;}
	.st8{fill-rule:evenodd;clip-rule:evenodd;fill:#7D7D7D;}
	.st9{fill-rule:evenodd;clip-rule:evenodd;fill:#7A7A7A;}
	.st10{fill-rule:evenodd;clip-rule:evenodd;fill:#787878;}
	.st11{fill-rule:evenodd;clip-rule:evenodd;fill:#757575;}
	.st12{fill-rule:evenodd;clip-rule:evenodd;fill:#737373;}
	.st13{fill-rule:evenodd;clip-rule:evenodd;fill:#707070;}
	.st14{fill-rule:evenodd;clip-rule:evenodd;fill:#6D6D6D;}
	.st15{fill-rule:evenodd;clip-rule:evenodd;fill:#6B6B6B;}
	.st16{fill-rule:evenodd;clip-rule:evenodd;fill:#686868;}
	.st17{fill-rule:evenodd;clip-rule:evenodd;fill:#666666;}
	.st18{fill-rule:evenodd;clip-rule:evenodd;fill:#636363;}
	.st19{fill-rule:evenodd;clip-rule:evenodd;fill:#616161;}
	.st20{fill-rule:evenodd;clip-rule:evenodd;fill:#5E5E5E;}
	.st21{fill-rule:evenodd;clip-rule:evenodd;fill:#5B5B5B;}
	.st22{fill-rule:evenodd;clip-rule:evenodd;fill:#595959;}
	.st23{fill-rule:evenodd;clip-rule:evenodd;fill:#565656;}
	.st24{fill-rule:evenodd;clip-rule:evenodd;fill:#545454;}
	.st25{fill-rule:evenodd;clip-rule:evenodd;fill:#515151;}
	.st26{fill-rule:evenodd;clip-rule:evenodd;fill:#4F4F4F;}
	.st27{fill-rule:evenodd;clip-rule:evenodd;fill:#4D4D4D;}
	.st28{fill-rule:evenodd;clip-rule:evenodd;fill:#4A4A4A;}
	.st29{fill-rule:evenodd;clip-rule:evenodd;fill:#474747;}
	.st30{fill-rule:evenodd;clip-rule:evenodd;fill:#444444;}
	.st31{fill-rule:evenodd;clip-rule:evenodd;fill:#424242;}
	.st32{fill-rule:evenodd;clip-rule:evenodd;fill:#3F3F3F;}
	.st33{fill-rule:evenodd;clip-rule:evenodd;fill:#3D3D3D;}
	.st34{fill-rule:evenodd;clip-rule:evenodd;fill:#3A3A3A;}
	.st35{fill-rule:evenodd;clip-rule:evenodd;fill:#383838;}
	.st36{fill-rule:evenodd;clip-rule:evenodd;fill:#353535;}
	.st37{fill-rule:evenodd;clip-rule:evenodd;fill:#333333;}
	.st38{fill-rule:evenodd;clip-rule:evenodd;fill:#303030;}
	.st39{fill-rule:evenodd;clip-rule:evenodd;fill:#2D2D2D;}
	.st40{fill-rule:evenodd;clip-rule:evenodd;fill:#2B2B2B;}
	.st41{fill-rule:evenodd;clip-rule:evenodd;fill:#282828;}
	.st42{fill-rule:evenodd;clip-rule:evenodd;fill:#252525;}
	.st43{fill-rule:evenodd;clip-rule:evenodd;fill:#232323;}
	.st44{fill-rule:evenodd;clip-rule:evenodd;fill:#202020;}
	.st45{fill-rule:evenodd;clip-rule:evenodd;}
	.st46{fill-rule:evenodd;clip-rule:evenodd;fill:#8F8F8F;}
	.st47{fill-rule:evenodd;clip-rule:evenodd;fill:#1E1E1E;}
	.st48{fill-rule:evenodd;clip-rule:evenodd;fill:#1C1C1C;}
	.st49{fill-rule:evenodd;clip-rule:evenodd;fill:#1A1A1A;}
	.st50{fill-rule:evenodd;clip-rule:evenodd;fill:#181818;}
	.st51{fill-rule:evenodd;clip-rule:evenodd;fill:#161616;}
	.st52{fill-rule:evenodd;clip-rule:evenodd;fill:#141414;}
	.st53{fill-rule:evenodd;clip-rule:evenodd;fill:#121212;}
	.st54{fill-rule:evenodd;clip-rule:evenodd;fill:#0F0F0F;}
	.st55{fill-rule:evenodd;clip-rule:evenodd;fill:#0C0C0C;}
	.st56{fill-rule:evenodd;clip-rule:evenodd;fill:#0A0A0A;}
	.st57{fill-rule:evenodd;clip-rule:evenodd;fill:#070707;}
	.st58{fill-rule:evenodd;clip-rule:evenodd;fill:#CCCCCC;}
	.st59{fill-rule:evenodd;clip-rule:evenodd;fill:#F2F5F6;}
	.st60{fill-rule:evenodd;clip-rule:evenodd;fill:#8C8C8C;}
	.st61{fill:none;stroke:#000000;stroke-width:40;stroke-miterlimit:10;}
</style>
<g>
	<polygon class="st0" points="360.3,325.8 2188.7,325.8 2188.7,2154.3 360.3,2154.3 	"/>
	<path class="st1" d="M630.8,1199.8l2.3,1.2c7,3.5,20.9,2.9,41.2-1.2H630.8L630.8,1199.8z"/>
	<path class="st1" d="M2072.7,1840.3c-21.4-42.3-46.9-84.6-77.1-126.3c-34.2-46.9-70.7-89.8-108.4-128.1
		c-36.5-36.5-75.4-69-115.3-97.4c-84-58.5-188.3-107.8-313-147.8c-45.8-14.5-90.4-22-134.5-23.2l-61.4,2.3l1.2-7.5l89.3-106.6
		c1.7-1.7,3.5-4.1,5.2-5.8c37.7-43.5,72.5-77.7,103.2-101.4c69,37.7,133.9,48.1,193.6,30.1c47.5-13.9,98-48.1,151.3-102.6
		c51.6-51.6,72.4-91.6,63.2-120c-15.7-46.9-53.3-69.6-113-69c-27.2,0.6-63.2,13.9-106.6,38.8c-34.2,19.7-59.1,37.1-73.6,51.6
		c-131.6-59.1-225.5-93.9-282.3-103.8c-214.4-38.3-399.9,30.2-555.8,204.6c-84,95.6-122.3,151.3-114.2,167.5l6.4,4.1h43.5
		c11.6-2.9,25.5-7.5,42.3-12.8c91.6-32.5,136.2-55.7,133.3-69.6l2.9-49.8c2.9-40.6,30.1-77.7,80.6-111.3
		c84-56.8,165.8-67.2,245.7-31.3c25.5,11.6,60.9,33,106.1,63.8c52.7,36.5,91.6,61.4,115.3,74.8c2.3,2.9,1.7,5.2-2.3,7
		c-47,38.8-91.6,82.3-135,129.3c-20.3,21.4-40.6,44.1-59.7,67.8l-48.1,66.6c-51,11-116.5,33.6-195.9,67.8
		c-121.1,57.4-217.3,113-288.6,165.8c-7.5,5.8-15.6,11.6-23.2,18c-89.8,71.9-155.3,151.3-195.3,238.2l-10.4,32.5
		c-2.3,12.2,0,20.9,7.5,26.1c58.5,24.9,144.9,8.7,260.2-47.5c84.6-41.7,171-102,259.7-181.4c22-20.9,44.6-43.5,67.8-67.8
		c27.2-29.6,55.6-61.4,85.2-95.6l111.9-5.8c92.2,2.3,188.9,13.3,290.4,32.5c97.9,18.5,172.1,41.7,223.7,69
		c22,12.2,40,24.9,53.3,38.3c27.3,27.2,37.1,54.5,29.6,81.7l-11,29.6c-3.5,10.4-4.1,18.5-2.3,24.9c9.3,26.7,43.5,63.2,102,109.5
		c52.7,41.7,99.7,72.5,142,92.7c24.9,11,39.4,12.2,43.5,3.5C2113.9,1941.1,2102.9,1899.4,2072.7,1840.3L2072.7,1840.3z
		 M707.3,1180.7l-9.9,5.2l-41.7,9.3c-12.2,1.7-16.2,0-11-4.1l32.5-16.8c18-8.1,27.8-11.6,29-10.4c1.7,1.2,1.7,5.2,1.2,12.8
		C709,1177.2,709,1178.4,707.3,1180.7L707.3,1180.7z M749.6,1120.4c5.2-8.7,16.8-33.6,34.2-74.8c18-38.3,33.6-59.7,47.5-64.9
		c9.9-2.9,9.9,3.5,0.6,19.1c-14.5,23.8-23.8,47.5-27.8,71.3c-4.1,19.1-9.3,32.5-16.2,40c-14.5,15.1-26.1,21.4-34.8,19.1
		C747.2,1129.7,746.1,1126.2,749.6,1120.4L749.6,1120.4z M721.2,1169.1c-2.3-4.1-0.6-7.5,5.8-9.9l31.3-12.8c8.7-6.4,13.9-7,15.1-2.9
		c1.7,4.1-2.3,8.1-11.6,11.6C736.8,1168,722.9,1172.6,721.2,1169.1L721.2,1169.1z M824.3,1129.1L824.3,1129.1l-30.1,18.5
		c-9.9,7.5-24.9,15.1-46.4,22.6l-11,1.2l20.3-9.3c15.7-7.5,25.5-15.1,29-21.4c2.9-4.6,11.6-12.2,26.7-22
		c15.1-9.9,23.2-14.5,24.3-13.3C843.5,1110.6,839.4,1118.7,824.3,1129.1L824.3,1129.1z M1042.8,895c-41.2,15.6-77.1,32.5-106.6,51.6
		c-22.6,14.5-35.9,21.4-39.4,21.4c-6.4,0,4.6-10.4,33.6-30.7c15.7-11,36.5-21.4,61.4-31.3l42.3-15.1
		C1041.1,889.2,1044,890.9,1042.8,895L1042.8,895z M1963.2,1821.7c5.8,7.5,6.4,11.6,2.3,11c-12.2-0.6-25.5-8.7-40.6-23.2
		c-11.6-11.6-19.1-20.9-22-27.2c-6.4-16.8-5.8-27.8,1.2-33c5.2-3.5,11,0,18,11L1963.2,1821.7L1963.2,1821.7z M1820.6,1562.7
		c9.3,6.4,19.1,13.9,29,23.2c10.4,9.9,21.4,22,32.5,36.5c31.9,39.4,41.7,72.4,30.7,99.7l-6.4,5.8c-5.2-0.6-11-10.4-16.8-30.1
		c-5.2-31.9-12.2-56.2-21.4-73c-6.4-11-15.7-24.3-29-38.8c-2.9-2.9-5.8-6.4-8.7-9.9C1819.5,1563.8,1816.6,1559.8,1820.6,1562.7
		L1820.6,1562.7z M1719.8,1490.2c6.4,0.6,21.4,9.3,46.4,26.1c24.3,16.8,40,29,46.9,37.7c7.5,8.7-9.3-1.7-49.8-31.3
		C1729.1,1500.6,1714.6,1489.6,1719.8,1490.2L1719.8,1490.2z M1354.6,1352.3c42.9,2.9,97.9,16.2,165.7,40
		c67.2,23.8,125.8,50.4,175.6,80c19.1,12.2,24.9,18,17.4,16.8c-7-1.2-27.2-9.9-60.3-26.7c-78.2-38.8-166.9-65.5-266-81.1
		c-114.2-7-171.6-13.3-173.3-18.6c-1.2-4.6,6.4-8.7,23.2-11.6C1263.6,1347.6,1303,1348.2,1354.6,1352.3L1354.6,1352.3z
		 M1698.3,1084.5c-29,17.4-59.1,24.3-91,20.3c-4.1-0.6-4.6-2.9-0.6-7c3.5-4.1,7.5-6.4,12.8-7l56.8-12.8l19.1-6.4l15.1-0.6
		C1712.2,1074.1,1708.2,1078.1,1698.3,1084.5L1698.3,1084.5z M1671.1,995.3l44,0.6c7,0.6,9.9,2.3,9.3,4.6l-47.5,2.3
		C1667.6,1000.5,1665.9,998.2,1671.1,995.3L1671.1,995.3z M1780.6,1029.4c-3.5,7-21.4,20.9-53.3,41.7c2.9-5.2,0.6-9.3-7-12.8
		C1764.4,1032.3,1784.7,1022.5,1780.6,1029.4L1780.6,1029.4z M1769,991.8c-17.4,6.4-29.6,8.1-37.1,6.4l-8.1-4.6
		c-1.7-2.3-1.2-3.5,2.3-4.1c16.8,0,41.2-9.3,74.2-28.4l12.8-3.5l2.9,2.9C1806.1,973.8,1790.5,984.2,1769,991.8L1769,991.8z
		 M1824.7,932.1c-18,18-49.8,27.2-96.8,29c-42.3,1.7-68.4-1.7-79.4-10.4c-5.8-4.1,5.8-12.8,34.2-26.1c29-13.3,55.6-22,80.6-26.1
		c29-4.1,49.3-1.7,60.3,8.1C1833.4,914.7,1833.4,923.4,1824.7,932.1L1824.7,932.1z M1732,850.4l54.5-2.3c28.4,2.9,47,12.2,55.7,26.7
		c2.9,6.4,1.2,8.1-5.8,5.8c-7.5-1.7-14.5-6.4-21.4-13.3c-4.1-4.1-15.6-7-35.9-8.7l-35.9-1.2l-11.6-1.7
		C1728.5,853.8,1728.5,852.1,1732,850.4L1732,850.4z M1640.9,936.7c19.7-18.5,45.8-31.9,78.3-39.4c18.5-4.6,23.8-2.9,15.6,5.8
		c-37.7,12.8-64.3,23.8-78.8,33.6c-11,7.5-17.4,10.4-19.7,9.3C1634,944.8,1635.7,941.9,1640.9,936.7L1640.9,936.7z M1169.8,836.5
		c56.2-1.2,120,12.2,191.8,40c40,15.6,92.7,38.8,158.8,70.7c67.2,29.6,115.3,45.8,144.9,48.7c6.4,5.2,3.5,7.5-8.7,7.5
		c-54.5-2.9-106.6-14.5-157.1-34.8L1356.4,902c-64.9-28.4-128.1-48.1-189.5-59.7C1162.2,839.9,1163.4,838.2,1169.8,836.5
		L1169.8,836.5z M1219.6,928c-34.2-24.9-49.3-38.3-44.6-40l22-2.9c18,0,33.6,4.1,48.1,12.2c80,45.8,132.1,73,156.5,82.3
		c45.8,18,95.6,40,149.5,67.2c12.2,5.8,18,20.3,18.5,44l11,24.9c1.7,7.5-2.9,11.6-13.3,11c-11.6-0.6-37.1-8.7-77.1-24.3
		c-38.8-15.6-66.1-29-81.1-38.8L1219.6,928L1219.6,928z M1373.8,1163.9l49.3-61.4c1.7-10.4-3.5-22-16.2-34.8
		c16.8,12.2,32.5,19.7,46.4,23.8c7,2.3,3.5,8.1-10.4,17.4l-53.3,48.7c-18.5,18-32.5,31.9-41.2,42.3c-5.2,5.2-8.7,9.9-10.4,12.8
		c-13.9,21.4-19.7,27.8-16.8,19.7c1.7-4.1,9.3-14.5,23.8-32.5C1352.3,1190,1362.2,1177.8,1373.8,1163.9L1373.8,1163.9z
		 M1239.9,1311.7c9.9-1.7,23.8-9.3,41.7-23.8l-33,33l-81.1,11L1239.9,1311.7L1239.9,1311.7z M693.3,1600.9
		c9.3-5.2,18.5-9.9,27.2-15.1c84.6-45.8,165.2-75.9,242.3-90.4c9.9,0.6,3.5,4.6-18.5,12.2l-99.7,33c-38.3,14.5-73,29.6-104.9,45.2
		c-65.5,33-117.1,69.6-153.6,109.5C586.7,1673.9,622.1,1642.1,693.3,1600.9L693.3,1600.9z M552.5,1875.6l-44,6.4l-44.6-5.8
		c-7.5-4.6-8.7-13.9-4.6-28.4c7-23.2,16.2-43.5,27.8-61.4c11-16.2,16.2-21.4,16.2-15.6c0,6.4-3.5,20.9-10.4,43.5
		c-5.8,18.5-7,30.1-3.5,34.8c11,13.3,30.7,19.7,59.7,19.7C560,1868.7,561.2,1871,552.5,1875.6L552.5,1875.6z M554.8,1840.9
		c-14.5-3.5-20.3-9.9-16.8-19.1c0.6-1.7,4.1-1.2,9.9,2.9c8.1,5.8,16.2,8.7,24.9,8.1c6.4-0.6,5.8,2.3-1.2,8.1H554.8L554.8,1840.9z
		 M779.7,1786.4c-80.6,48.1-149.5,77.7-206.9,87.5c70.7-21.4,139.1-53.3,205.2-96.8c63.2-41.2,131.6-91,204-148.4
		C919.4,1690.2,852.1,1742.9,779.7,1786.4L779.7,1786.4z M943.7,1585.8c-74.8,75.4-159.4,140.3-253.9,195.3
		c-69.5,40-116.5,52.2-140.3,36.5l-8.7-9.9c-7.5-55.1,34.2-111.9,124.6-170.4c28.4-18.5,59.1-35.9,92.1-51.6
		c41.2-20.3,85.8-38.3,133.9-53.9c34.2-10.4,71.3-19.7,111.3-27.8l13.3,1.7C993,1533.7,968.6,1560.3,943.7,1585.8L943.7,1585.8z
		 M1945.2,1865.8c-58.6-35.4-96.8-69.6-113.6-101.4c-2.9-5.8-1.7-17.4,4.1-35.3c7-20.3,8.7-39.4,5.2-56.2
		c-5.2-26.1-24.3-51.6-56.8-75.3c-5.2-4.1-11-7.5-16.2-11.6c-50.4-32.5-118.2-58-203.4-76.5c-94.5-20.3-182-32.5-263.7-35.4
		l-222,9.9l-64.3,9.9c-14.5,1.7-20.3-1.2-17.4-7.5c1.7-4.6,19.7-13.3,53.3-25.5c35.4-13.3,65.5-22,89.8-25.5
		c77.1-11,157.1-11,238.8,1.2c44,6.4,96.2,18,157,34.8c65.5,17.4,114.8,34.2,147.8,49.8c48.1,22.6,84,44,109,64.9
		c8.7,7.5,15.7,14.5,21.4,21.4c29.6,35.4,42.3,71.3,38.3,107.8c-2.9,27.2,0,46.4,8.7,57.4c15.1,19.1,45.8,47.5,92.7,84
		c43.5,30.7,66.1,48.1,68.4,51.6C2026.4,1914.5,2000.9,1900,1945.2,1865.8L1945.2,1865.8z M2063.5,1937.1
		c-7.5-0.6-15.7-5.8-24.3-14.5c-8.7-8.7-10.4-13.9-6.4-16.2l16.2,6.4C2071.6,1930.7,2076.8,1938.8,2063.5,1937.1L2063.5,1937.1z"/>
	<path class="st2" d="M896.8,968c3.5,0,16.8-7,39.4-21.4c29.6-19.1,65.5-35.9,106.6-51.6c1.2-4.1-1.7-5.8-8.7-4.1L991.8,906
		c-24.9,9.9-45.8,20.3-61.4,31.3C901.4,957.6,890.4,968,896.8,968L896.8,968z"/>
	<path class="st0" d="M831.9,999.9c9.3-15.6,9.3-22-0.6-19.1c-13.9,5.2-29.6,26.7-47.5,64.9c-17.4,41.2-29,66.1-34.2,74.8
		c-3.5,5.8-2.3,9.3,3.5,9.9c8.7,2.3,20.3-4.1,34.8-19.1c7-7.5,12.2-20.9,16.2-40C808.1,1047.4,817.4,1023.7,831.9,999.9L831.9,999.9
		z"/>
	<path class="st3" d="M1419.8,1070.1l31.6,15.8C1438.7,1080.1,1428.2,1074.8,1419.8,1070.1L1419.8,1070.1z"/>
	<path class="st4" d="M1410.8,1064.7l55.8,27.9c-5.4-2.3-10.5-4.6-15.3-6.8l-31.6-15.8C1416.5,1068.2,1413.5,1066.4,1410.8,1064.7
		L1410.8,1064.7z"/>
	<path class="st4" d="M1406.3,1061.7l71.5,35.8c-3.9-1.6-7.6-3.2-11.2-4.8l-55.8-27.9l-1.7-1.1L1406.3,1061.7L1406.3,1061.7z"/>
	<path class="st4" d="M1402.4,1058.8l85,42.5c-3.3-1.3-6.5-2.6-9.6-3.9l-71.5-35.8L1402.4,1058.8L1402.4,1058.8z"/>
	<polygon class="st5" points="1398.5,1056 1495.5,1104.5 1490.3,1102.5 1487.4,1101.3 1402.4,1058.8 	"/>
	<polygon class="st5" points="1394.5,1053.2 1502.9,1107.4 1495.5,1104.5 1398.5,1056 	"/>
	<path class="st6" d="M1390.6,1050.4l119.2,59.6c-2.2-0.8-4.5-1.7-6.9-2.6l-108.3-54.2L1390.6,1050.4L1390.6,1050.4z"/>
	<polygon class="st6" points="1386.6,1047.6 1516.2,1112.3 1509.8,1110 1390.6,1050.4 	"/>
	<polygon class="st6" points="1382.7,1044.7 1522.2,1114.5 1516.2,1112.3 1386.6,1047.6 	"/>
	<path class="st7" d="M1378.8,1041.9l149.2,74.6c-1.8-0.6-3.7-1.3-5.7-2l-139.5-69.8L1378.8,1041.9L1378.8,1041.9z"/>
	<path class="st7" d="M1374.8,1039.1l158.4,79.2c-1.7-0.6-3.5-1.2-5.3-1.8l-149.2-74.6L1374.8,1039.1L1374.8,1039.1z"/>
	<path class="st8" d="M1370.9,1036.3l167.2,83.6c-1.6-0.5-3.2-1-4.9-1.6l-158.4-79.2L1370.9,1036.3L1370.9,1036.3z"/>
	<path class="st8" d="M1366.9,1033.5l175.7,87.9c-1.5-0.5-3-0.9-4.6-1.4l-167.2-83.6L1366.9,1033.5L1366.9,1033.5z"/>
	<path class="st8" d="M1363,1030.6l183.9,91.9c-1.3-0.4-2.7-0.8-4.2-1.2l-175.7-87.9L1363,1030.6L1363,1030.6z"/>
	<path class="st9" d="M1359.1,1027.8l191.6,95.8c-1.2-0.3-2.5-0.7-3.8-1.1l-183.9-91.9L1359.1,1027.8L1359.1,1027.8z"/>
	<path class="st9" d="M1355.1,1025l199.1,99.5c-1.1-0.3-2.3-0.6-3.5-0.9l-191.6-95.8L1355.1,1025L1355.1,1025z"/>
	<path class="st10" d="M1351.2,1022.2l206.2,103.1c-1-0.2-2.1-0.5-3.2-0.7l-199.1-99.5L1351.2,1022.2L1351.2,1022.2z"/>
	<path class="st10" d="M1347.3,1019.4l213.1,106.5c-0.9-0.2-1.9-0.4-2.9-0.6l-206.2-103.1L1347.3,1019.4L1347.3,1019.4z"/>
	<path class="st10" d="M1343.3,1016.6l219.6,109.8c-0.8-0.1-1.7-0.3-2.6-0.5l-213.1-106.5L1343.3,1016.6L1343.3,1016.6z"/>
	<path class="st11" d="M1339.4,1013.7l225.9,112.9c-0.7-0.1-1.5-0.2-2.3-0.3l-219.6-109.8L1339.4,1013.7L1339.4,1013.7z"/>
	<path class="st11" d="M1335.4,1010.9l231.8,115.9c-0.6,0-1.3-0.1-2-0.2l-225.9-112.9L1335.4,1010.9L1335.4,1010.9z"/>
	<path class="st12" d="M1331.5,1008.1l237.6,118.8c-0.6,0-1.1,0-1.7-0.1h-0.1l-231.8-115.9L1331.5,1008.1L1331.5,1008.1z"/>
	<path class="st12" d="M1327.6,1005.3l243.1,121.6c-0.5,0-1.1,0-1.6,0l-237.6-118.8L1327.6,1005.3L1327.6,1005.3z"/>
	<path class="st12" d="M1323.6,1002.5l248.6,124.3c-0.5,0.1-1,0.1-1.5,0.1l-243.1-121.6L1323.6,1002.5L1323.6,1002.5z"/>
	<path class="st13" d="M1319.7,999.6l253.8,126.9c-0.4,0.1-0.9,0.1-1.3,0.2l-248.6-124.3L1319.7,999.6L1319.7,999.6z"/>
	<path class="st13" d="M1315.7,996.8l258.9,129.4c-0.4,0.1-0.8,0.2-1.2,0.3l-253.8-126.9L1315.7,996.8L1315.7,996.8z"/>
	<path class="st13" d="M1311.8,994l263.9,131.9c-0.3,0.1-0.7,0.2-1.1,0.3l-258.9-129.4L1311.8,994L1311.8,994z"/>
	<path class="st14" d="M1307.9,991.2l268.8,134.4c-0.3,0.1-0.6,0.3-0.9,0.4l-264-132L1307.9,991.2L1307.9,991.2z"/>
	<path class="st14" d="M1303.9,988.4l273.5,136.8c-0.3,0.2-0.5,0.3-0.8,0.4l-268.8-134.4L1303.9,988.4L1303.9,988.4z"/>
	<path class="st15" d="M1300,985.5l278.2,139.1c-0.2,0.2-0.5,0.3-0.7,0.5L1304,988.3L1300,985.5L1300,985.5z"/>
	<path class="st15" d="M1296,982.7l282.8,141.4c-0.2,0.2-0.4,0.4-0.6,0.5L1300,985.5L1296,982.7L1296,982.7z"/>
	<path class="st15" d="M1292.1,979.9l287.3,143.6c-0.2,0.2-0.4,0.4-0.6,0.6L1296,982.7L1292.1,979.9L1292.1,979.9z"/>
	<path class="st16" d="M1288.2,977.1l291.7,145.8c-0.1,0.2-0.3,0.4-0.5,0.6l-287.3-143.6L1288.2,977.1L1288.2,977.1z"/>
	<path class="st16" d="M1284.2,974.3l296,148c-0.1,0.2-0.2,0.5-0.4,0.7l-291.7-145.8L1284.2,974.3L1284.2,974.3z"/>
	<path class="st17" d="M1280.3,971.5l300.3,150.1c-0.1,0.2-0.2,0.5-0.3,0.7l-296-148L1280.3,971.5L1280.3,971.5z"/>
	<path class="st17" d="M1276.4,968.6l304.4,152.2c-0.1,0.2-0.1,0.5-0.2,0.7l-300.3-150.1L1276.4,968.6L1276.4,968.6z"/>
	<path class="st17" d="M1272.4,965.8l308.5,154.2c0,0.3-0.1,0.5-0.2,0.8l-304.4-152.2L1272.4,965.8L1272.4,965.8z"/>
	<path class="st18" d="M1268.5,963l312.5,156.3c0,0.3,0,0.5-0.1,0.8l-308.5-154.2L1268.5,963L1268.5,963z"/>
	<path class="st18" d="M1264.5,960.2l316.5,158.2c0,0.3,0,0.6,0,0.8l-312.5-156.3L1264.5,960.2L1264.5,960.2z"/>
	<path class="st19" d="M1260.6,957.4l320.4,160.2c0,0.3,0.1,0.6,0.1,0.9l-316.5-158.2L1260.6,957.4L1260.6,957.4z"/>
	<path class="st19" d="M1256.7,954.5l324.2,162.1c0.1,0.3,0.1,0.6,0.1,0.9l-320.4-160.2L1256.7,954.5L1256.7,954.5z"/>
	<polygon class="st19" points="1252.7,951.7 1580.6,1115.7 1580.7,1115.8 1580.8,1116.6 1256.7,954.5 	"/>
	<polygon class="st20" points="1248.8,948.9 1580.1,1114.6 1580.6,1115.7 1252.7,951.7 	"/>
	<polygon class="st20" points="1244.8,946.1 1579.7,1113.5 1580.1,1114.6 1248.8,948.9 	"/>
	<polygon class="st21" points="1240.9,943.3 1579.2,1112.4 1579.7,1113.5 1244.8,946.1 	"/>
	<polygon class="st21" points="1237,940.5 1578.7,1111.3 1579.2,1112.4 1240.9,943.3 	"/>
	<polygon class="st21" points="1233,937.6 1578.2,1110.2 1578.7,1111.3 1237,940.5 	"/>
	<polygon class="st22" points="1229.1,934.8 1577.7,1109.1 1578.2,1110.2 1233,937.6 	"/>
	<polygon class="st22" points="1225.1,932 1577.2,1108 1577.7,1109.1 1229.1,934.8 	"/>
	<polygon class="st22" points="1221.2,929.1 1576.8,1106.9 1577.2,1108 1225.1,932 	"/>
	<polygon class="st23" points="1217.3,926.4 1576.3,1105.8 1576.8,1106.9 1221.2,929.1 1219.6,928 	"/>
	<polygon class="st23" points="1213.7,923.7 1575.8,1104.7 1576.3,1105.8 1217.3,926.4 	"/>
	<polygon class="st24" points="1210.2,921.1 1575.3,1103.7 1575.8,1104.7 1213.7,923.7 	"/>
	<polygon class="st24" points="1206.7,918.5 1574.8,1102.6 1575.3,1103.7 1210.2,921.1 	"/>
	<polygon class="st24" points="1203.4,916 1574.3,1101.5 1574.8,1102.6 1206.7,918.5 	"/>
	<polygon class="st25" points="1200.2,913.5 1573.9,1100.4 1574.3,1101.5 1203.4,916 	"/>
	<polygon class="st25" points="1197.1,911.2 1573.4,1099.3 1573.9,1100.4 1200.2,913.5 	"/>
	<polygon class="st26" points="1194.1,908.8 1572.9,1098.2 1573.4,1099.3 1197.1,911.2 	"/>
	<polygon class="st26" points="1191.2,906.5 1572.4,1097.1 1572.9,1098.2 1194.1,908.8 	"/>
	<polygon class="st26" points="1188.6,904.4 1571.9,1096 1572.4,1097.1 1191.2,906.5 	"/>
	<polygon class="st27" points="1186.1,902.2 1571.5,1094.9 1571.9,1096 1188.6,904.4 	"/>
	<path class="st27" d="M1183.7,900.2l387.3,193.6l0.5,1.1l-385.4-192.7C1185.2,901.5,1184.4,900.9,1183.7,900.2L1183.7,900.2z"/>
	<path class="st28" d="M1181.6,898.3l388.9,194.4l0.5,1.1l-387.3-193.6C1182.9,899.6,1182.2,898.9,1181.6,898.3L1181.6,898.3z"/>
	<path class="st28" d="M1179.6,896.5l390.4,195.2l0.5,1.1l-388.9-194.5C1180.9,897.7,1180.2,897.1,1179.6,896.5L1179.6,896.5z"/>
	<path class="st28" d="M1177.9,894.8l391.7,195.8v0.3l0.3,0.8l-390.4-195.2C1179,895.9,1178.5,895.3,1177.9,894.8L1177.9,894.8z"/>
	<path class="st29" d="M1176.5,893.2l393.1,196.5v0.9l-391.7-195.8C1177.4,894.2,1176.9,893.7,1176.5,893.2L1176.5,893.2z"/>
	<path class="st29" d="M1175.4,891.8l394.2,197.1v0.9l-393.1-196.5C1176.1,892.7,1175.7,892.2,1175.4,891.8L1175.4,891.8z"/>
	<path class="st30" d="M1174.6,890.6l395,197.5v0.9l-394.2-197.1C1175,891.4,1174.8,890.9,1174.6,890.6L1174.6,890.6z"/>
	<path class="st30" d="M1174.2,889.5l395.3,197.6v0.9l-395-197.5C1174.4,890.2,1174.2,889.8,1174.2,889.5L1174.2,889.5z"/>
	<path class="st30" d="M1174.2,888.7l395.2,197.6v0.9l-395.3-197.6C1174.1,889.2,1174.1,888.9,1174.2,888.7L1174.2,888.7z"/>
	<path class="st31" d="M1174.8,888.1l394.6,197.3l0.1,0.9l-395.2-197.6C1174.3,888.4,1174.5,888.3,1174.8,888.1L1174.8,888.1z"/>
	<polygon class="st31" points="1176,887.9 1569.4,1084.5 1569.4,1085.4 1174.8,888.1 1175,888 	"/>
	<polygon class="st32" points="1177.4,887.7 1569.3,1083.7 1569.4,1084.5 1176,887.9 	"/>
	<polygon class="st32" points="1178.7,887.5 1569.2,1082.8 1569.3,1083.7 1177.4,887.7 	"/>
	<polygon class="st32" points="1180.1,887.4 1569.1,1081.9 1569.2,1082.8 1178.7,887.5 	"/>
	<polygon class="st33" points="1181.4,887.2 1569.1,1081 1569.1,1081.9 1180.1,887.4 	"/>
	<polygon class="st33" points="1182.8,887 1569,1080.1 1569.1,1081 1181.4,887.2 	"/>
	<polygon class="st33" points="1184.1,886.8 1568.9,1079.2 1569,1080.1 1182.8,887 	"/>
	<polygon class="st34" points="1185.4,886.7 1568.7,1078.3 1568.9,1079.2 1184.1,886.8 	"/>
	<polygon class="st34" points="1186.8,886.5 1568.6,1077.4 1568.7,1078.3 1185.4,886.7 	"/>
	<polygon class="st35" points="1188.1,886.3 1568.5,1076.5 1568.6,1077.4 1186.8,886.5 	"/>
	<polygon class="st35" points="1189.5,886.1 1568.3,1075.5 1568.5,1076.5 1188.1,886.3 	"/>
	<polygon class="st35" points="1190.8,885.9 1568.2,1074.6 1568.3,1075.5 1189.5,886.1 	"/>
	<polygon class="st36" points="1192.2,885.8 1568,1073.7 1568.2,1074.6 1190.8,885.9 	"/>
	<polygon class="st36" points="1193.5,885.6 1567.8,1072.7 1568,1073.7 1192.2,885.8 	"/>
	<polygon class="st37" points="1194.9,885.4 1567.7,1071.8 1567.8,1072.7 1193.5,885.6 	"/>
	<polygon class="st37" points="1196.2,885.2 1567.4,1070.8 1567.7,1071.8 1194.9,885.4 	"/>
	<polygon class="st37" points="1197.7,885.1 1567.2,1069.9 1567.4,1070.8 1196.2,885.2 1197,885.1 	"/>
	<polygon class="st38" points="1199.5,885.2 1567,1068.9 1567.2,1069.9 1197.7,885.1 	"/>
	<polygon class="st38" points="1201.3,885.2 1566.7,1067.9 1567,1068.9 1199.5,885.2 	"/>
	<polygon class="st39" points="1203.1,885.3 1566.4,1066.9 1566.7,1067.9 1201.3,885.2 	"/>
	<polygon class="st39" points="1205.1,885.4 1566.1,1065.9 1566.4,1066.9 1203.1,885.3 	"/>
	<polygon class="st39" points="1207.1,885.6 1565.8,1064.9 1566.1,1065.9 1205.1,885.4 	"/>
	<polygon class="st40" points="1209.2,885.8 1565.4,1063.9 1565.8,1064.9 1207.1,885.6 	"/>
	<path class="st40" d="M1211.5,886.1l149.6,74.8c3.4,1.7,6.6,3.3,9.7,4.9l194.3,97.1l0.4,1.1l-356.2-178.1L1211.5,886.1
		L1211.5,886.1z"/>
	<path class="st41" d="M1213.9,886.4l112.5,56.2c12.9,7,24.5,13,34.6,18.2L1211.4,886C1212.3,886.2,1213.1,886.3,1213.9,886.4
		L1213.9,886.4z M1394.7,976.8l169.9,84.9l0.4,1.1l-194.2-97.1C1380.2,970.3,1388.1,974,1394.7,976.8L1394.7,976.8z"/>
	<path class="st41" d="M1216.5,886.9l90.8,45.4c6.7,3.7,13,7.1,19.1,10.4l-112.5-56.2C1214.8,886.6,1215.7,886.7,1216.5,886.9
		L1216.5,886.9z M1403.4,980.3l160.7,80.3l0.5,1.1l-169.9-84.9c2.5,1.1,4.8,2,6.9,2.8L1403.4,980.3L1403.4,980.3z"/>
	<path class="st41" d="M1219.4,887.5l72,36c5.5,3.1,10.8,6,16,8.8l-90.8-45.4C1217.5,887.1,1218.4,887.3,1219.4,887.5L1219.4,887.5z
		 M1411.7,983.6l151.8,75.9l0.5,1.1l-160.6-80.3C1406.1,981.4,1408.9,982.5,1411.7,983.6L1411.7,983.6z"/>
	<path class="st42" d="M1222.6,888.3l54.5,27.3c4.9,2.7,9.6,5.4,14.2,8l-72-36C1220.5,887.7,1221.6,888,1222.6,888.3L1222.6,888.3z
		 M1420.5,987.2l142.5,71.2l0.6,1.2l-151.8-75.9L1420.5,987.2L1420.5,987.2z"/>
	<path class="st42" d="M1226.6,889.4l37.5,18.7c4.5,2.5,8.8,5,13.1,7.4l-54.5-27.3C1224,888.6,1225.3,889,1226.6,889.4L1226.6,889.4
		z M1430.1,991.1l132.2,66.1l0.7,1.2l-142.5-71.2L1430.1,991.1L1430.1,991.1z"/>
	<path class="st42" d="M1231.9,891.2l19.9,9.9l12.3,7l-37.5-18.7C1228.3,889.9,1230.1,890.5,1231.9,891.2L1231.9,891.2z
		 M1440.5,995.5l121,60.5c0.3,0.4,0.5,0.8,0.8,1.3l-132.2-66.1C1433.5,992.5,1437,994,1440.5,995.5L1440.5,995.5z"/>
	<path class="st43" d="M1452.1,1000.5l108.4,54.2c0.3,0.4,0.6,0.9,0.9,1.3l-121-60.5C1444.3,997.1,1448.2,998.8,1452.1,1000.5
		L1452.1,1000.5z M1251.7,901.1l-19.9-9.9c4.5,1.7,8.9,3.7,13.2,6.1L1251.7,901.1L1251.7,901.1z"/>
	<path class="st43" d="M1465.5,1006.3l93.9,46.9c0.4,0.5,0.8,0.9,1.1,1.4l-108.4-54.2C1456.6,1002.4,1461,1004.3,1465.5,1006.3
		L1465.5,1006.3z"/>
	<path class="st44" d="M1481.9,1013.6l76.1,38c0.5,0.5,1,1,1.5,1.6l-93.9-46.9C1470.9,1008.7,1476.4,1011.1,1481.9,1013.6
		L1481.9,1013.6z"/>
	<path class="st44" d="M1504.6,1024.1l51.1,25.6c0.8,0.6,1.5,1.3,2.2,2l-76.1-38C1489.3,1017,1496.9,1020.5,1504.6,1024.1
		L1504.6,1024.1z"/>
	<path class="st44" d="M1555.7,1049.7l-51.1-25.6c15.2,7.1,30.7,14.7,46.5,22.7C1552.8,1047.6,1554.3,1048.6,1555.7,1049.7
		L1555.7,1049.7z"/>
	<path class="st0" d="M1169.8,836.5c-6.4,1.7-7.5,3.5-2.9,5.8c61.4,11.6,124.6,31.3,189.5,59.7l143.1,66.6
		c50.4,20.3,102.6,31.9,157.1,34.8c12.2,0,15.1-2.3,8.7-7.5c-29.6-2.9-77.7-19.1-144.9-48.7c-66.1-31.9-118.8-55.1-158.8-70.7
		C1289.7,848.6,1226,835.3,1169.8,836.5L1169.8,836.5z"/>
	<path class="st14" d="M727,1159.3c-6.4,2.3-8.1,5.8-5.8,9.9c1.7,3.5,15.6-1.2,40.6-13.9c9.3-3.5,13.3-7.5,11.6-11.6
		c-1.2-4.1-6.4-3.5-15.1,2.9L727,1159.3L727,1159.3z"/>
	<path class="st45" d="M736.8,1171.4l11-1.2c21.4-7.5,36.5-15.1,46.4-22.6l30.1-18.5c15.1-10.4,19.1-18.6,12.8-23.8
		c-1.2-1.2-9.3,3.5-24.3,13.3c-15.1,9.9-23.8,17.4-26.7,22c-3.5,6.4-13.3,13.9-29,21.4L736.8,1171.4L736.8,1171.4L736.8,1171.4z"/>
	<path class="st45" d="M707.3,1176.7c0.6-7.5,0.6-11.6-1.2-12.8c-1.2-1.2-11,2.3-29,10.4l-32.5,16.8c-5.2,4.1-1.2,5.8,11,4.1
		l41.7-9.3l9.9-5.2C709,1178.4,709,1177.2,707.3,1176.7L707.3,1176.7z"/>
	<path class="st46" d="M944.3,1507.6c22-7.5,28.4-11.6,18.5-12.2c-85.2,16.2-175,51.6-269.5,105.5c-71.3,41.2-106.6,73-107.2,94.5
		c54.5-59.7,140.8-111.3,258.5-154.7L944.3,1507.6L944.3,1507.6z"/>
	<path class="st13" d="M2010.4,1904.5l12.3,4.7C2022.6,1910.4,2018.5,1908.8,2010.4,1904.5L2010.4,1904.5z"/>
	<path class="st13" d="M1998.8,1898l21.9,8.3c0.8,0.8,1.3,1.3,1.6,1.7c0.3,0.5,0.4,0.8,0.4,1.1l-12.3-4.7
		C2007.2,1902.8,2003.3,1900.6,1998.8,1898L1998.8,1898z"/>
	<path class="st14" d="M1988.7,1892.1l27.9,10.6c1.8,1.5,3.2,2.7,4.2,3.6l-21.9-8.3C1995.7,1896.2,1992.4,1894.3,1988.7,1892.1
		L1988.7,1892.1z"/>
	<path class="st14" d="M1979.1,1886.4l32.6,12.4c1.8,1.5,3.4,2.7,4.8,3.9l-27.9-10.6C1985.7,1890.3,1982.5,1888.5,1979.1,1886.4
		L1979.1,1886.4z"/>
	<path class="st15" d="M1970,1880.9l36.6,14c1.9,1.4,3.6,2.8,5.1,4l-32.6-12.4L1970,1880.9L1970,1880.9z"/>
	<path class="st15" d="M1961,1875.4l40.2,15.3c1.9,1.5,3.7,2.8,5.4,4.1l-36.6-14L1961,1875.4L1961,1875.4z"/>
	<path class="st15" d="M1952.1,1870l43.5,16.6c2,1.5,3.8,2.9,5.6,4.2l-40.2-15.3L1952.1,1870L1952.1,1870z"/>
	<polygon class="st16" points="1943.3,1864.6 1989.9,1882.4 1995.6,1886.6 1952.1,1870 1945.2,1865.8 	"/>
	<path class="st16" d="M1934.6,1859.3l49.4,18.8l5.8,4.3l-46.6-17.8C1940.3,1862.8,1937.5,1861,1934.6,1859.3L1934.6,1859.3z"/>
	<path class="st17" d="M1926.7,1854.2l51.4,19.6l5.9,4.3l-49.4-18.8C1932,1857.6,1929.3,1855.9,1926.7,1854.2L1926.7,1854.2z"/>
	<path class="st17" d="M1919.3,1849.3l52.7,20.1l6.1,4.4l-51.4-19.6C1924.2,1852.6,1921.7,1851,1919.3,1849.3L1919.3,1849.3z"/>
	<path class="st17" d="M1912.6,1844.7l53.5,20.4l6,4.3l-52.7-20.1C1917,1847.8,1914.8,1846.3,1912.6,1844.7L1912.6,1844.7z"/>
	<path class="st18" d="M1906.2,1840.3l53.6,20.4l6.2,4.4l-53.5-20.4C1910.4,1843.2,1908.3,1841.7,1906.2,1840.3L1906.2,1840.3z"/>
	<path class="st18" d="M997.9,1492.2l4.3,1.6C1000.3,1493.5,998.9,1492.9,997.9,1492.2L997.9,1492.2z M1900.3,1836l53.4,20.3
		l0.2,0.2l5.9,4.2l-53.6-20.4C1904.2,1838.8,1902.2,1837.4,1900.3,1836L1900.3,1836z"/>
	<path class="st19" d="M996.3,1489.6l12.1,4.6c-2.5,0.1-4.6,0-6.3-0.3l-4.3-1.6C997,1491.5,996.5,1490.6,996.3,1489.6L996.3,1489.6z
		 M1894.7,1831.8l53.8,20.5l5.1,4l-53.4-20.3C1898.4,1834.6,1896.5,1833.2,1894.7,1831.8L1894.7,1831.8z"/>
	<path class="st19" d="M996.5,1487.6l16.4,6.3c-1.6,0.2-3.1,0.3-4.5,0.3l-12.1-4.6C996.3,1489,996.3,1488.3,996.5,1487.6
		L996.5,1487.6z M1889.5,1827.8l54,20.6l5,4l-53.8-20.5C1892.9,1830.4,1891.2,1829.1,1889.5,1827.8L1889.5,1827.8z"/>
	<path class="st19" d="M997.2,1485.8l19.7,7.5l-2.5,0.4l-1.5,0.2l-16.4-6.3c0.1-0.5,0.3-0.9,0.5-1.4L997.2,1485.8L997.2,1485.8z
		 M1884.6,1823.9l54,20.6l4.9,3.9l-54-20.6C1887.9,1826.5,1886.2,1825.2,1884.6,1823.9L1884.6,1823.9z"/>
	<path class="st20" d="M998.4,1484.2l22.3,8.5l-3.8,0.6l-19.7-7.5C997.4,1485.3,997.9,1484.8,998.4,1484.2L998.4,1484.2z
		 M1880.1,1820.1l53.7,20.5l4.8,3.9l-54-20.6C1883.1,1822.6,1881.6,1821.3,1880.1,1820.1L1880.1,1820.1z"/>
	<path class="st20" d="M1000.1,1482.8l24.4,9.3l-3.8,0.6l-22.3-8.5C998.9,1483.8,999.4,1483.3,1000.1,1482.8L1000.1,1482.8z
		 M1875.8,1816.4l53.3,20.3l4.7,3.8l-53.7-20.5C1878.6,1818.9,1877.2,1817.6,1875.8,1816.4L1875.8,1816.4z"/>
	<path class="st21" d="M1002,1481.5l26.4,10l-3.8,0.6l-24.4-9.3C1000.7,1482.4,1001.3,1482,1002,1481.5L1002,1481.5z M1871.7,1812.8
		l52.7,20.1l4.6,3.8l-53.3-20.3C1874.4,1815.2,1873.1,1814,1871.7,1812.8L1871.7,1812.8z"/>
	<path class="st21" d="M1004.1,1480.2l28.1,10.7l-3.8,0.6l-26.4-10C1002.6,1481.1,1003.3,1480.7,1004.1,1480.2L1004.1,1480.2z
		 M1867.9,1809.3l52,19.8l4.5,3.8l-52.7-20.1C1870.4,1811.7,1869.2,1810.5,1867.9,1809.3L1867.9,1809.3z"/>
	<path class="st21" d="M1006.2,1479l29.8,11.4l-3.8,0.6l-28.1-10.7C1004.7,1479.9,1005.5,1479.4,1006.2,1479L1006.2,1479z
		 M1864.3,1805.9l51.2,19.5c1.5,1.2,2.9,2.5,4.4,3.7l-52-19.8C1866.7,1808.2,1865.5,1807,1864.3,1805.9L1864.3,1805.9z"/>
	<path class="st22" d="M1008.5,1477.8l31.4,12l-3.8,0.6l-29.8-11.4C1007,1478.6,1007.7,1478.2,1008.5,1477.8L1008.5,1477.8z
		 M1860.9,1802.6l50.2,19.1l4.3,3.7l-51.2-19.5C1863.2,1804.8,1862,1803.7,1860.9,1802.6L1860.9,1802.6z"/>
	<path class="st22" d="M1010.8,1476.7l32.9,12.5l-3.8,0.6l-31.4-12L1010.8,1476.7L1010.8,1476.7z M1857.8,1799.3l49.2,18.7l4.2,3.7
		l-50.2-19.1C1859.9,1801.5,1858.8,1800.4,1857.8,1799.3L1857.8,1799.3z"/>
	<path class="st22" d="M1013.2,1475.6l34.3,13.1l-3.8,0.6l-32.9-12.5L1013.2,1475.6L1013.2,1475.6z M1854.8,1796.2l48,18.3l4.1,3.6
		l-49.1-18.8C1856.7,1798.3,1855.8,1797.2,1854.8,1796.2L1854.8,1796.2z"/>
	<path class="st23" d="M1015.6,1474.4l35.7,13.6l-3.8,0.6l-34.3-13.1L1015.6,1474.4L1015.6,1474.4z M1852,1793l46.8,17.8l4,3.6
		l-48-18.3C1853.8,1795.1,1852.9,1794.1,1852,1793L1852,1793z"/>
	<path class="st23" d="M1018.1,1473.3l37.1,14.1l-3.8,0.6l-35.7-13.6L1018.1,1473.3L1018.1,1473.3z M1849.3,1790l45.6,17.4
		c1.3,1.2,2.5,2.3,3.9,3.5l-46.8-17.8C1851.1,1792,1850.2,1791,1849.3,1790L1849.3,1790z"/>
	<path class="st24" d="M1020.6,1472.2l38.4,14.6l-3.8,0.6l-37.1-14.1L1020.6,1472.2L1020.6,1472.2z M1846.8,1787l44.3,16.9
		c1.2,1.1,2.5,2.3,3.8,3.5l-45.6-17.4C1848.5,1789,1847.7,1788,1846.8,1787L1846.8,1787z"/>
	<path class="st24" d="M1023.1,1471.2l39.7,15.1l-3.8,0.6l-38.4-14.6L1023.1,1471.2L1023.1,1471.2z M1844.5,1784.1l43,16.4l3.7,3.5
		l-44.3-16.9C1846,1786,1845.3,1785,1844.5,1784.1L1844.5,1784.1z"/>
	<path class="st24" d="M1025.7,1470.1l40.9,15.6l-3.8,0.6l-39.7-15.1L1025.7,1470.1L1025.7,1470.1z M1842.3,1781.2l41.6,15.9
		l3.5,3.4l-43-16.4C1843.8,1783.1,1843,1782.2,1842.3,1781.2L1842.3,1781.2z"/>
	<path class="st25" d="M1028.3,1469l42.2,16.1l-3.8,0.6l-40.9-15.6L1028.3,1469L1028.3,1469z M1840.3,1778.4l40.3,15.3
		c1.1,1.1,2.3,2.2,3.4,3.3l-41.6-15.9C1841.6,1780.2,1840.9,1779.3,1840.3,1778.4L1840.3,1778.4z"/>
	<path class="st25" d="M1030.9,1468l43.4,16.5l-3.8,0.6l-42.2-16.1L1030.9,1468L1030.9,1468z M1838.4,1775.6l38.9,14.8
		c1.1,1.1,2.1,2.2,3.3,3.3l-40.3-15.3C1839.6,1777.4,1839,1776.5,1838.4,1775.6L1838.4,1775.6z"/>
	<path class="st26" d="M1033.5,1467l44.6,17l-3.8,0.6l-43.4-16.5L1033.5,1467L1033.5,1467z M1836.6,1772.9l37.5,14.3
		c1,1.1,2.1,2.1,3.1,3.2l-38.9-14.8C1837.8,1774.7,1837.2,1773.8,1836.6,1772.9L1836.6,1772.9z"/>
	<path class="st26" d="M1036.2,1465.9l46.5,17.7l-4,0.2l-0.7,0.1l-44.6-17L1036.2,1465.9L1036.2,1465.9z M1834.9,1770.2l36.2,13.8
		c1,1,2,2.1,3,3.2l-37.5-14.3C1836,1772,1835.5,1771.1,1834.9,1770.2L1834.9,1770.2z"/>
	<path class="st26" d="M1038.9,1464.9l48.7,18.5l-4.8,0.2l-46.5-17.7L1038.9,1464.9L1038.9,1464.9z M1833.4,1767.6l34.9,13.3
		c0.9,1,1.9,2.1,2.9,3.1l-36.2-13.8C1834.4,1769.3,1833.9,1768.4,1833.4,1767.6L1833.4,1767.6z"/>
	<path class="st27" d="M1041.6,1463.9l50.8,19.3l-4.8,0.2l-48.7-18.5L1041.6,1463.9L1041.6,1463.9z M1832,1765l33.6,12.8
		c0.9,1,1.8,2,2.7,3.1l-34.9-13.3C1832.9,1766.7,1832.4,1765.9,1832,1765L1832,1765z"/>
	<path class="st27" d="M1044.3,1462.9l52.9,20.1l-4.8,0.2l-50.8-19.3L1044.3,1462.9L1044.3,1462.9z M1830.9,1762.5l32.1,12.2
		c0.8,1,1.7,2,2.5,3l-33.6-12.8l-0.3-0.6C1831.4,1763.8,1831.1,1763.2,1830.9,1762.5L1830.9,1762.5z"/>
	<path class="st28" d="M1047,1461.9l54.9,20.9l-4.8,0.2l-52.9-20.1L1047,1461.9L1047,1461.9z M1830.4,1760.3l30.3,11.6l0.5,0.6
		c0.6,0.8,1.2,1.5,1.9,2.3l-32.1-12.2C1830.7,1761.9,1830.5,1761.1,1830.4,1760.3L1830.4,1760.3z"/>
	<path class="st28" d="M1049.7,1460.9l57,21.7l-4.8,0.2l-54.9-20.9L1049.7,1460.9L1049.7,1460.9z M1830.2,1758.2l28.7,10.9
		c0.6,1,1.2,1.9,1.9,2.8l-30.3-11.6C1830.3,1759.6,1830.2,1758.9,1830.2,1758.2L1830.2,1758.2z"/>
	<path class="st28" d="M1052.4,1459.9l59.1,22.5l-4.8,0.2l-57-21.7l0.6-0.2L1052.4,1459.9L1052.4,1459.9z M1830.1,1756.1l27.3,10.4
		c0.5,0.9,0.9,1.8,1.4,2.6l-28.7-10.9C1830.1,1757.5,1830.1,1756.8,1830.1,1756.1L1830.1,1756.1z"/>
	<path class="st29" d="M1055.2,1458.9l61.2,23.3l-4.8,0.2l-59.1-22.5L1055.2,1458.9L1055.2,1458.9z M1830.1,1754.1l26.1,10
		c0.4,0.9,0.7,1.7,1.1,2.5l-27.3-10.4C1830.1,1755.5,1830.1,1754.8,1830.1,1754.1L1830.1,1754.1z"/>
	<path class="st29" d="M1057.9,1457.9l63.3,24.1l-4.8,0.2l-61.2-23.3L1057.9,1457.9L1057.9,1457.9z M1830.3,1752.1l25.1,9.5
		c0.3,0.8,0.6,1.6,0.9,2.4l-26.1-10C1830.2,1753.4,1830.2,1752.8,1830.3,1752.1L1830.3,1752.1z"/>
	<path class="st30" d="M1060.6,1456.9l65.3,24.9l-4.8,0.2l-63.3-24.1L1060.6,1456.9L1060.6,1456.9z M1830.5,1750.1l24.1,9.2
		c0.2,0.8,0.5,1.6,0.8,2.3l-25.1-9.5C1830.4,1751.5,1830.4,1750.8,1830.5,1750.1L1830.5,1750.1z"/>
	<path class="st30" d="M1063.4,1455.9l67.4,25.7l-4.8,0.2l-65.3-24.9L1063.4,1455.9L1063.4,1455.9z M1830.8,1748.2l23.1,8.8
		c0.2,0.8,0.4,1.5,0.6,2.3l-24.1-9.2L1830.8,1748.2L1830.8,1748.2z"/>
	<path class="st30" d="M1066.2,1454.9l69.4,26.4l-4.8,0.2l-67.4-25.7L1066.2,1454.9L1066.2,1454.9z M1831.1,1746.3l22.3,8.5
		c0.2,0.8,0.4,1.5,0.5,2.2l-23.1-8.8L1831.1,1746.3L1831.1,1746.3z"/>
	<path class="st31" d="M1069,1453.9l71.4,27.2l-4.8,0.2l-69.4-26.4L1069,1453.9L1069,1453.9z M1831.5,1744.4l21.4,8.2
		c0.1,0.8,0.3,1.5,0.5,2.2l-22.3-8.5L1831.5,1744.4L1831.5,1744.4z"/>
	<path class="st31" d="M1071.8,1452.9l73.4,28l-4.8,0.2l-71.4-27.2L1071.8,1452.9L1071.8,1452.9z M1831.9,1742.5l20.6,7.9
		c0.1,0.7,0.2,1.5,0.4,2.2l-21.4-8.2L1831.9,1742.5L1831.9,1742.5z"/>
	<path class="st32" d="M1074.6,1452l75.4,28.7l-4.8,0.2l-73.4-28L1074.6,1452L1074.6,1452z M1832.4,1740.6l19.9,7.6
		c0.1,0.7,0.2,1.5,0.3,2.2l-20.6-7.9L1832.4,1740.6L1832.4,1740.6z"/>
	<path class="st32" d="M1077.5,1451l77.3,29.5l-4.8,0.2l-75.4-28.7L1077.5,1451L1077.5,1451z M1832.8,1738.8l19.2,7.3
		c0.1,0.7,0.2,1.4,0.3,2.1l-19.9-7.6L1832.8,1738.8L1832.8,1738.8z"/>
	<path class="st32" d="M1080.3,1450.1l79.3,30.2l-4.8,0.2l-77.3-29.5L1080.3,1450.1L1080.3,1450.1z M1833.3,1736.9l18.5,7l0.2,2.1
		l-19.2-7.3L1833.3,1736.9L1833.3,1736.9z"/>
	<path class="st33" d="M1083.2,1449.1l81.1,30.9l-4.8,0.2l-79.3-30.2L1083.2,1449.1L1083.2,1449.1z M1833.8,1735.1l17.8,6.8l0.2,2.1
		l-18.5-7L1833.8,1735.1L1833.8,1735.1z"/>
	<path class="st33" d="M1086.2,1448.2l83,31.6l-4.8,0.2l-81.1-30.9L1086.2,1448.2L1086.2,1448.2z M1834.4,1733.2l17.2,6.5l0.1,2.1
		l-17.8-6.8L1834.4,1733.2L1834.4,1733.2z"/>
	<path class="st33" d="M1089.1,1447.3l84.9,32.3l-4.8,0.2l-83-31.6L1089.1,1447.3L1089.1,1447.3z M1834.9,1731.4l16.5,6.3l0.1,2.1
		l-17.2-6.5L1834.9,1731.4L1834.9,1731.4z"/>
	<path class="st34" d="M1092.1,1446.4l86.7,33l-4.8,0.2l-84.9-32.3L1092.1,1446.4L1092.1,1446.4z M1835.5,1729.6l15.9,6.1v2.1
		l-16.5-6.3L1835.5,1729.6L1835.5,1729.6z"/>
	<path class="st34" d="M1095.1,1445.5l88.5,33.7l-4.8,0.2l-86.7-33L1095.1,1445.5L1095.1,1445.5z M1836.1,1727.7l15.3,5.8v2
		l-15.9-6.1l0.2-0.6L1836.1,1727.7L1836.1,1727.7z"/>
	<path class="st35" d="M1098.1,1444.6l90.3,34.4l-4.8,0.2l-88.5-33.7L1098.1,1444.6L1098.1,1444.6z M1836.7,1725.9l14.7,5.6v2
		l-15.3-5.8L1836.7,1725.9L1836.7,1725.9z"/>
	<path class="st35" d="M1101.2,1443.7l92,35l-4.8,0.2l-90.3-34.4L1101.2,1443.7L1101.2,1443.7z M1837.3,1724.1l14.2,5.4v2l-14.7-5.6
		L1837.3,1724.1L1837.3,1724.1z"/>
	<path class="st35" d="M1104.3,1442.8l93.7,35.7l-4.8,0.2l-92-35L1104.3,1442.8L1104.3,1442.8z M1837.8,1722.3l13.7,5.2l-0.1,2
		l-14.2-5.4L1837.8,1722.3L1837.8,1722.3z"/>
	<path class="st36" d="M1107.5,1442l95.4,36.3l-4.8,0.2l-93.7-35.7L1107.5,1442L1107.5,1442z M1838.3,1720.4l13.3,5.1l-0.1,2
		l-13.7-5.2L1838.3,1720.4L1838.3,1720.4z"/>
	<path class="st36" d="M1110.6,1441.2l97,36.9l-4.8,0.2l-95.4-36.3L1110.6,1441.2L1110.6,1441.2z M1838.8,1718.6l12.9,4.9l-0.1,2
		l-13.3-5.1L1838.8,1718.6L1838.8,1718.6z"/>
	<path class="st37" d="M1113.9,1440.4l98.5,37.5l-4.8,0.2l-97-36.9L1113.9,1440.4L1113.9,1440.4z M1839.3,1716.7l12.6,4.8l-0.1,2
		l-12.9-4.9L1839.3,1716.7L1839.3,1716.7z"/>
	<path class="st37" d="M1117.2,1439.6l100.1,38.1l-4.8,0.2l-98.5-37.5L1117.2,1439.6L1117.2,1439.6z M1839.7,1714.8l12.3,4.7l-0.2,2
		l-12.6-4.8L1839.7,1714.8L1839.7,1714.8z"/>
	<path class="st37" d="M1120.5,1438.8l101.5,38.7l-4.8,0.2l-100.1-38.1L1120.5,1438.8L1120.5,1438.8z M1840.1,1712.9l12.1,4.6
		l-0.2,2l-12.3-4.7L1840.1,1712.9L1840.1,1712.9z"/>
	<path class="st38" d="M1123.9,1438.1l102.9,39.2l-4.8,0.2l-101.5-38.7L1123.9,1438.1L1123.9,1438.1z M1840.5,1711.1l11.9,4.5
		l-0.2,2l-12.1-4.6L1840.5,1711.1L1840.5,1711.1z"/>
	<path class="st38" d="M1127.4,1437.4l104.2,39.7l-4.8,0.2l-102.9-39.2L1127.4,1437.4L1127.4,1437.4z M1840.9,1709.1l11.7,4.5
		l-0.1,1.5l-0.1,0.5l-11.9-4.5L1840.9,1709.1L1840.9,1709.1z"/>
	<path class="st39" d="M1131,1436.7l105.5,40.2l-4.8,0.2l-104.2-39.7L1131,1436.7L1131,1436.7z M1841.2,1707.2l11.6,4.4l-0.2,2
		l-11.7-4.5L1841.2,1707.2L1841.2,1707.2z"/>
	<path class="st39" d="M1134.7,1436l106.6,40.6l-4.8,0.2l-105.5-40.2C1132.2,1436.4,1133.5,1436.2,1134.7,1436L1134.7,1436z
		 M1841.5,1705.3l11.4,4.4l-0.1,2l-11.6-4.4L1841.5,1705.3L1841.5,1705.3z"/>
	<path class="st39" d="M1138.4,1435.4l107.6,41l-4.8,0.2l-106.6-40.6C1135.9,1435.8,1137.2,1435.6,1138.4,1435.4L1138.4,1435.4z
		 M1841.8,1703.3l11.3,4.3l-0.1,2l-11.4-4.4L1841.8,1703.3L1841.8,1703.3z"/>
	<path class="st40" d="M1142.3,1434.9l108.5,41.3l-4.8,0.2l-107.6-41l1.8-0.3L1142.3,1434.9L1142.3,1434.9z M1842,1701.4l11.1,4.2
		l-0.1,2l-11.3-4.3L1842,1701.4L1842,1701.4z"/>
	<path class="st40" d="M1146.3,1434.3l109.4,41.7l-4.8,0.2l-108.5-41.3L1146.3,1434.3L1146.3,1434.3z M1842.2,1699.4l11,4.2v2
		l-11.1-4.2L1842.2,1699.4L1842.2,1699.4z"/>
	<path class="st41" d="M1150.2,1433.8l110.2,42l-4.8,0.2l-109.4-41.7L1150.2,1433.8L1150.2,1433.8z M1842.4,1697.5l10.8,4.1v2
		l-11-4.2L1842.4,1697.5L1842.4,1697.5z"/>
	<path class="st41" d="M1154.2,1433.3l111,42.3l-4.8,0.2l-110.2-42L1154.2,1433.3L1154.2,1433.3z M1842.5,1695.5l10.7,4.1
		c0,0.7,0,1.4,0,2.1l-10.8-4.1L1842.5,1695.5L1842.5,1695.5z"/>
	<path class="st41" d="M1158.3,1432.8l111.7,42.6l-4.8,0.2l-111-42.3L1158.3,1432.8L1158.3,1432.8z M1842.6,1693.4l10.5,4l0.1,2.1
		l-10.7-4.1L1842.6,1693.4L1842.6,1693.4z"/>
	<path class="st42" d="M1162.4,1432.3l112.4,42.8l-4.8,0.2l-111.7-42.6L1162.4,1432.3L1162.4,1432.3z M1842.6,1691.4l10.4,4l0.1,2.1
		l-10.5-4V1691.4L1842.6,1691.4z"/>
	<path class="st42" d="M1166.6,1431.8l113.1,43.1l-4.8,0.2l-112.4-42.8L1166.6,1431.8L1166.6,1431.8z M1842.6,1689.4l10.3,3.9
		l0.1,2.1l-10.4-4V1689.4L1842.6,1689.4z"/>
	<path class="st42" d="M1170.8,1431.4l113.7,43.3l-4.8,0.2l-113.1-43.1L1170.8,1431.4L1170.8,1431.4z M1842.6,1687.3l10.1,3.9
		c0.1,0.7,0.1,1.4,0.2,2.1l-10.3-3.9L1842.6,1687.3L1842.6,1687.3z"/>
	<path class="st43" d="M1175,1431l114.3,43.5l-4.8,0.2l-113.7-43.3L1175,1431L1175,1431z M1842.5,1685.3l10,3.8l0.2,2.1l-10.1-3.9
		L1842.5,1685.3L1842.5,1685.3z"/>
	<path class="st43" d="M1179.3,1430.5l114.8,43.7l-4.8,0.2l-114.3-43.5L1179.3,1430.5L1179.3,1430.5z M1842.4,1683.2l9.9,3.8
		l0.3,2.1l-10-3.8C1842.5,1684.5,1842.4,1683.9,1842.4,1683.2L1842.4,1683.2z"/>
	<path class="st44" d="M1183.6,1430.2l115.3,43.9l-4.8,0.2l-114.8-43.7L1183.6,1430.2L1183.6,1430.2z M1842.2,1681l9.8,3.7l0.3,2.1
		l-9.9-3.8C1842.3,1682.4,1842.2,1681.7,1842.2,1681L1842.2,1681z"/>
	<path class="st44" d="M1188,1429.8l116.4,44.3l-3.7-0.1l-1.9,0.1l-115.3-43.9L1188,1429.8L1188,1429.8z M1841.9,1678.9l9.7,3.7
		l0.3,2.2l-9.8-3.7C1842.1,1680.3,1842,1679.6,1841.9,1678.9L1841.9,1678.9z"/>
	<path class="st44" d="M1192.4,1429.4l118,45l-6-0.3l-116.4-44.3L1192.4,1429.4L1192.4,1429.4z M1841.6,1676.7l9.6,3.7
		c0.1,0.7,0.3,1.5,0.4,2.2l-9.7-3.7C1841.8,1678.2,1841.7,1677.5,1841.6,1676.7L1841.6,1676.7z"/>
	<path class="st47" d="M1196.9,1429.1l119.6,45.6l-6.1-0.3l-118-45L1196.9,1429.1L1196.9,1429.1z M1841.2,1674.6l9.6,3.6l0.4,2.2
		l-9.6-3.7C1841.5,1676,1841.4,1675.3,1841.2,1674.6L1841.2,1674.6z"/>
	<path class="st47" d="M1201.5,1428.8l121.3,46.2l-6.2-0.3l-119.6-45.6L1201.5,1428.8L1201.5,1428.8z M1840.8,1672.3l9.5,3.6
		l0.5,2.2l-9.6-3.6c-0.1-0.6-0.2-1.2-0.3-1.8L1840.8,1672.3L1840.8,1672.3z"/>
	<path class="st48" d="M1206.1,1428.5l123,46.9l-6.3-0.4l-121.3-46.2L1206.1,1428.5L1206.1,1428.5z M1840.3,1670.1l9.5,3.6l0.5,2.2
		l-9.5-3.6C1840.7,1671.6,1840.5,1670.9,1840.3,1670.1L1840.3,1670.1z"/>
	<path class="st48" d="M1210.7,1428.2l124.8,47.5l-6.4-0.4l-123-46.9L1210.7,1428.2L1210.7,1428.2z M1839.8,1667.9l9.5,3.6l0.6,2.3
		l-9.5-3.6C1840.1,1669.4,1840,1668.6,1839.8,1667.9L1839.8,1667.9z"/>
	<path class="st48" d="M1215.5,1428l126.6,48.2l-6.5-0.5l-124.8-47.5L1215.5,1428L1215.5,1428z M1839.1,1665.6l9.5,3.6l0.6,2.3
		l-9.5-3.6C1839.6,1667.1,1839.3,1666.3,1839.1,1665.6L1839.1,1665.6z"/>
	<path class="st49" d="M1220.3,1427.8l128.4,48.9l-6.7-0.5l-126.6-48.2L1220.3,1427.8L1220.3,1427.8z M1838.4,1663.2l9.6,3.7
		l0.7,2.3l-9.5-3.6C1838.9,1664.8,1838.6,1664,1838.4,1663.2L1838.4,1663.2z"/>
	<path class="st50" d="M1225.1,1427.6l130.4,49.7l-6.8-0.5l-128.4-48.9L1225.1,1427.6L1225.1,1427.6z M1837.5,1660.9l9.7,3.7
		l0.7,2.3l-9.6-3.7C1838.1,1662.5,1837.8,1661.7,1837.5,1660.9L1837.5,1660.9z"/>
	<path class="st50" d="M1230,1427.4l132.3,50.4l-6.9-0.6l-130.4-49.7L1230,1427.4L1230,1427.4z M1836.6,1658.5l9.8,3.8l0.8,2.3
		l-9.7-3.7C1837.2,1660.1,1836.9,1659.3,1836.6,1658.5L1836.6,1658.5z"/>
	<path class="st50" d="M1235,1427.3l134.4,51.2l-7-0.6l-132.3-50.4L1235,1427.3L1235,1427.3z M1835.6,1656.1l10,3.8l0.8,2.4
		l-9.8-3.8C1836.3,1657.7,1836,1656.9,1835.6,1656.1L1835.6,1656.1z"/>
	<path class="st50" d="M1240.1,1427.2l136.4,52l-7.2-0.7l-134.4-51.2L1240.1,1427.2L1240.1,1427.2z M1834.5,1653.6l10.2,3.9
		c0.3,0.8,0.6,1.6,0.9,2.4l-10-3.8C1835.3,1655.3,1834.9,1654.4,1834.5,1653.6L1834.5,1653.6z"/>
	<path class="st51" d="M1245.3,1427.1l138.6,52.8l-7.3-0.7l-136.4-52L1245.3,1427.1L1245.3,1427.1z M1833.3,1651.1l10.5,4l0.9,2.4
		l-10.2-3.9C1834.1,1652.8,1833.7,1651.9,1833.3,1651.1L1833.3,1651.1z"/>
	<path class="st52" d="M1250.5,1427l140.8,53.6l-7.5-0.8l-138.6-52.8L1250.5,1427L1250.5,1427z M1832,1648.5l10.8,4.1l1,2.4l-10.5-4
		C1832.9,1650.2,1832.4,1649.4,1832,1648.5L1832,1648.5z"/>
	<path class="st52" d="M1255.9,1427l143.1,54.5l-7.6-0.9l-140.8-53.6H1255.9L1255.9,1427z M1830.5,1645.9l11.2,4.3
		c0.4,0.8,0.7,1.6,1.1,2.5l-10.8-4.1C1831.5,1647.7,1831,1646.8,1830.5,1645.9L1830.5,1645.9z"/>
	<path class="st52" d="M1261.3,1427.1l145.4,55.4l-7.8-0.9l-143.1-54.5H1261.3L1261.3,1427.1z M1828.9,1643.3l11.7,4.4l1.1,2.5
		l-11.2-4.3C1830,1645.1,1829.5,1644.2,1828.9,1643.3L1828.9,1643.3z"/>
	<path class="st52" d="M1266.8,1427.1l147.8,56.3l-7.9-1l-145.4-55.4L1266.8,1427.1L1266.8,1427.1z M1827.2,1640.6l12.2,4.6
		c0.4,0.8,0.8,1.7,1.2,2.5l-11.7-4.4C1828.4,1642.4,1827.8,1641.5,1827.2,1640.6L1827.2,1640.6z"/>
	<path class="st53" d="M1272.4,1427.2l150.3,57.3c-2.7-0.4-5.4-0.7-8.1-1l-147.8-56.3H1272.4L1272.4,1427.2z M1825.3,1637.8
		l12.8,4.9l1.3,2.5l-12.2-4.6C1826.6,1639.7,1826,1638.8,1825.3,1637.8L1825.3,1637.8z"/>
	<path class="st1" d="M1278.2,1427.4l152.8,58.2l-8.3-1.1l-150.3-57.3L1278.2,1427.4L1278.2,1427.4z M1823.3,1635l13.5,5.1l1.3,2.6
		l-12.8-4.9C1824.7,1636.9,1824,1636,1823.3,1635L1823.3,1635z"/>
	<path class="st1" d="M1284,1427.6l155.5,59.2l-8.5-1.2l-152.8-58.2L1284,1427.6L1284,1427.6z M1821.1,1632.1l14.3,5.4l1.4,2.6
		l-13.5-5.1C1822.6,1634.1,1821.8,1633.1,1821.1,1632.1L1821.1,1632.1z"/>
	<path class="st1" d="M1290,1427.8l158.2,60.3l-8.7-1.3l-155.5-59.2L1290,1427.8L1290,1427.8z M1818.7,1629.2l15.1,5.8
		c0.5,0.9,1,1.8,1.5,2.6l-14.3-5.4C1820.3,1631.2,1819.5,1630.2,1818.7,1629.2L1818.7,1629.2z"/>
	<path class="st54" d="M1296.1,1428.1l161,61.3l-8.9-1.4l-158.2-60.3L1296.1,1428.1L1296.1,1428.1z M1816.1,1626.2l16.1,6.2
		c0.5,0.9,1.1,1.8,1.6,2.6l-15.1-5.8C1817.9,1628.2,1817,1627.2,1816.1,1626.2L1816.1,1626.2z"/>
	<path class="st54" d="M1302.4,1428.4l163.9,62.4l-9.2-1.4l-161-61.3L1302.4,1428.4L1302.4,1428.4z M1813.3,1623.1l17.3,6.6
		c0.6,0.9,1.1,1.8,1.7,2.7l-16.1-6.2C1815.2,1625.1,1814.3,1624.1,1813.3,1623.1L1813.3,1623.1z"/>
	<path class="st54" d="M1308.7,1428.8l166.9,63.6c-3.1-0.5-6.2-1-9.4-1.5l-163.9-62.4L1308.7,1428.8L1308.7,1428.8z M1810.3,1619.8
		l18.6,7.1c0.6,0.9,1.2,1.8,1.7,2.7l-17.3-6.6C1812.3,1622,1811.3,1620.9,1810.3,1619.8L1810.3,1619.8z"/>
	<path class="st54" d="M1315.3,1429.3l170,64.8c-3.2-0.6-6.4-1.1-9.7-1.6l-166.9-63.6L1315.3,1429.3L1315.3,1429.3z M1806.9,1616.5
		l20.1,7.7l1.8,2.7l-18.6-7.1C1809.2,1618.7,1808.1,1617.6,1806.9,1616.5L1806.9,1616.5z"/>
	<path class="st55" d="M1322,1429.8l173.1,66c-3.3-0.6-6.6-1.2-9.9-1.7l-170-64.8L1322,1429.8L1322,1429.8z M1803.3,1613.1l21.8,8.3
		c0.6,0.9,1.3,1.8,1.9,2.8l-20.1-7.7C1805.8,1615.4,1804.5,1614.3,1803.3,1613.1L1803.3,1613.1z"/>
	<path class="st56" d="M1328.9,1430.4l176.4,67.2c-3.4-0.6-6.8-1.2-10.2-1.9l-173.1-66C1324.3,1430,1326.6,1430.2,1328.9,1430.4
		L1328.9,1430.4z M1799.3,1609.5l23.8,9.1c0.7,0.9,1.4,1.9,2,2.8l-21.8-8.3C1802,1611.9,1800.7,1610.7,1799.3,1609.5L1799.3,1609.5z
		"/>
	<path class="st56" d="M1336,1431l179.8,68.5c-3.5-0.7-7-1.3-10.5-1.9l-176.4-67.2C1331.3,1430.6,1333.7,1430.8,1336,1431L1336,1431
		z M1794.9,1605.8l26,9.9l2.1,2.8l-23.8-9.1C1797.9,1608.3,1796.4,1607.1,1794.9,1605.8L1794.9,1605.8z"/>
	<path class="st56" d="M1343.4,1431.8l183.3,69.8c-3.6-0.7-7.2-1.4-10.8-2.1l-179.8-68.5L1343.4,1431.8L1343.4,1431.8z M1790.1,1602
		l28.7,10.9c0.8,1,1.5,1.9,2.2,2.9l-26-9.9C1793.3,1604.5,1791.7,1603.2,1790.1,1602L1790.1,1602z"/>
	<path class="st56" d="M1350.9,1432.6l186.9,71.2c-3.7-0.8-7.5-1.5-11.2-2.2l-183.3-69.8C1345.9,1432,1348.4,1432.3,1350.9,1432.6
		L1350.9,1432.6z M1784.6,1597.8l31.8,12.1c0.8,1,1.6,2,2.3,2.9l-28.7-10.9C1788.3,1600.6,1786.5,1599.2,1784.6,1597.8
		L1784.6,1597.8z"/>
	<path class="st57" d="M1358.8,1433.5l190.7,72.6c-3.9-0.8-7.7-1.6-11.5-2.4l-186.9-71.2C1353.5,1432.9,1356.1,1433.2,1358.8,1433.5
		L1358.8,1433.5z M1778.8,1593.6l35.1,13.4l0.3,0.3c0.7,0.9,1.4,1.8,2.2,2.6l-31.8-12.1l-0.5-0.4
		C1782.4,1596.1,1780.6,1594.9,1778.8,1593.6L1778.8,1593.6z"/>
	<path class="st45" d="M1366.9,1434.6l194.5,74.1c-4-0.9-8-1.7-12-2.5l-190.7-72.6C1361.5,1433.9,1364.2,1434.2,1366.9,1434.6
		L1366.9,1434.6z M1772.4,1589.1l38.9,14.8c0.9,1,1.8,2,2.6,3.1l-35.1-13.4C1776.7,1592.1,1774.5,1590.6,1772.4,1589.1
		L1772.4,1589.1z"/>
	<path class="st45" d="M1375.3,1435.8l198.4,75.6c-3.1-0.7-6.2-1.4-9.3-2l-3.1-0.6l-194.5-74.1
		C1369.7,1435,1372.5,1435.4,1375.3,1435.8L1375.3,1435.8z M1765.1,1584.3l43.3,16.5c1,1.1,1.9,2.1,2.9,3.1l-38.9-14.8
		C1770,1587.5,1767.6,1585.9,1765.1,1584.3L1765.1,1584.3z"/>
	<path class="st45" d="M1808.4,1600.8l-43.3-16.5c-47.7-30.7-111.4-55.2-191.4-72.9l-198.4-75.6l3.6,0.5c44,6.4,96.2,18,157,34.8
		c65.5,17.4,114.8,34.2,147.8,49.8C1743,1549.2,1784.6,1575.5,1808.4,1600.8L1808.4,1600.8z"/>
	<path class="st58" d="M1786.4,848l-54.5,2.3c-3.5,1.7-3.5,3.5-0.6,5.2l11.6,1.7l35.9,1.2c20.3,1.7,31.9,4.6,35.9,8.7
		c7,7,13.9,11.6,21.4,13.3c7,2.3,8.7,0.6,5.8-5.8C1833.4,860.2,1814.8,850.9,1786.4,848L1786.4,848z"/>
	<path class="st0" d="M1800.3,961.1c-33,19.1-57.4,28.4-74.2,28.4c-3.5,0.6-4.1,1.7-2.3,4.1l8.1,4.6c7.5,1.7,19.7,0,37.1-6.4
		c21.4-7.5,37.1-18,46.9-31.3l-2.9-2.9L1800.3,961.1L1800.3,961.1z"/>
	<path class="st12" d="M1724.4,1000.5c0.6-2.3-2.3-4.1-9.3-4.6l-44-0.6c-5.2,2.9-3.5,5.2,5.8,7.5L1724.4,1000.5L1724.4,1000.5z"/>
	<path class="st12" d="M1734.8,903.1c8.1-8.7,2.9-10.4-15.6-5.8c-32.5,7.5-58.6,20.9-78.3,39.4c-5.2,5.2-7,8.1-4.6,9.3
		c2.3,1.2,8.7-1.7,19.7-9.3C1670.5,926.9,1697.2,915.9,1734.8,903.1L1734.8,903.1z"/>
	<path class="st0" d="M1695.4,1071.8l-19.1,6.4l-56.8,12.8c-5.2,0.6-9.3,2.9-12.8,7c-4.1,4.1-3.5,6.4,0.6,7c31.9,4.1,62-2.9,91-20.3
		c9.9-6.4,13.9-10.4,12.2-13.3L1695.4,1071.8L1695.4,1071.8z"/>
	<path class="st45" d="M1442.7,1108.8c13.9-9.3,17.4-15.1,10.4-17.4c-13.9-4.1-29.6-11.6-46.4-23.8c12.8,12.8,18,24.3,16.2,34.8
		l-49.3,61.4c-33,39.4-50.4,62-52.7,68.4c-2.9,8.1,2.9,1.7,16.8-19.7c5.8-8.7,23.2-27.2,51.6-55.1L1442.7,1108.8L1442.7,1108.8z"/>
	<path class="st0" d="M1354.6,1352.3c-51.6-4.1-91-4.6-117.7-1.2c-16.8,2.9-24.3,7-23.2,11.6c1.7,5.2,59.1,11.6,173.3,18.6
		c99.1,15.6,187.8,42.3,266,81.1c33,16.8,53.3,25.5,60.3,26.7c7.5,1.2,1.7-4.6-17.4-16.8c-49.8-29.6-108.4-56.2-175.6-80
		C1452.6,1368.5,1397.5,1355.2,1354.6,1352.3L1354.6,1352.3z"/>
	<path class="st45" d="M1248.6,1321l33-33c-18,14.5-31.9,22-41.7,23.8l-72.4,20.3L1248.6,1321L1248.6,1321z"/>
	<path class="st45" d="M1727.3,1071.2c31.9-20.9,49.8-34.8,53.3-41.7c4.1-7-16.2,2.9-60.3,29
		C1727.9,1061.9,1730.2,1066,1727.3,1071.2L1727.3,1071.2z"/>
	<path class="st31" d="M1719.8,1490.2c-5.2-0.6,9.3,10.4,43.5,32.5c40.6,29.6,57.4,40,49.8,31.3c-7-8.7-22.6-20.9-46.9-37.7
		C1741.2,1499.5,1726.1,1490.8,1719.8,1490.2L1719.8,1490.2z"/>
	<path class="st0" d="M1820.6,1562.7c-4.1-2.9-1.2,1.2,9.9,13.3c17.4,19.1,30.1,35.4,37.7,48.7c9.3,16.8,16.2,41.2,21.4,73
		c5.8,19.7,11.6,29.6,16.8,30.1l6.4-5.8c11-27.2,1.2-60.3-30.7-99.7C1860.6,1595.1,1840.3,1575.4,1820.6,1562.7L1820.6,1562.7z"/>
	<path class="st0" d="M1965.5,1832.7c4.1,0.6,3.5-3.5-2.3-11l-41.2-61.4c-7-11-12.8-14.5-18-11c-7,5.2-7.5,16.2-1.2,33
		c2.9,6.4,10.4,15.6,22,27.2C1940,1824,1953.3,1832.2,1965.5,1832.7L1965.5,1832.7z"/>
	<path class="st8" d="M2049,1912.7l-16.2-6.4c-4.1,2.3-2.3,7.5,6.4,16.2c8.7,8.7,16.8,13.9,24.3,14.5
		C2076.8,1938.8,2071.6,1930.7,2049,1912.7L2049,1912.7z"/>
	<path class="st5" d="M982,1628.7c-72.4,57.4-140.8,107.2-204,148.4c-66.1,43.5-134.5,75.3-205.2,96.8
		c57.4-9.9,126.3-39.4,206.9-87.5C852.1,1742.9,919.4,1690.2,982,1628.7L982,1628.7z"/>
	<path class="st0" d="M571.6,1840.9c7-5.8,7.5-8.7,1.2-8.1c-8.7,0.6-16.8-2.3-24.9-8.1c-5.8-4.1-9.3-4.6-9.9-2.9
		c-3.5,9.3,2.3,15.6,16.8,19.1H571.6L571.6,1840.9z"/>
	<path class="st45" d="M487,1786.4c-11.6,18-20.9,38.3-27.8,61.4c-4.1,14.5-2.9,23.8,4.6,28.4l44.6,5.8l44-6.4c8.7-4.6,7.5-7-3.5-7
		c-29,0-48.7-6.4-59.7-19.7c-3.5-4.6-2.3-16.2,3.5-34.8c7-22.6,10.4-37.1,10.4-43.5C503.2,1764.9,498,1770.1,487,1786.4L487,1786.4z
		"/>
	<path class="st1" d="M1321,577.4c-22,34.2-30.1,67.2-23.8,99.1c5.8,30.1,22.6,53.9,51,70.7c27.2,16.8,69.6,22.6,128.1,18
		c74.8-5.2,112.4-20.9,113-46.4c4.1-42.3-12.2-88.7-48.7-137.9c-39.4-52.7-81.7-77.1-127.5-71.9
		C1377.8,513.6,1347.1,536.2,1321,577.4L1321,577.4z M1467.7,583.8c1.7,6.4,1.2,11.6-1.2,15.1c-2.3,3.5-8.1,5.2-16.8,5.2
		c-12.2,0.6-22.6-2.9-32.5-9.3c-5.2-3.5-7.5-9.3-7-17.4c0-7,4.1-13.3,12.8-19.1l24.3,1.7C1457.2,566.4,1464.2,573.9,1467.7,583.8
		L1467.7,583.8z M1505.9,714.2l21.4,2.3c6.4,1.7,8.7,4.6,8.1,7.5c-1.2,5.2-12.2,8.7-32.5,10.4l-28.4-1.7c-6.4-1.7-7.5-4.1-4.6-8.1
		C1477.5,717.6,1489.7,714.2,1505.9,714.2L1505.9,714.2z M1384.8,540.9c9.9-6.4,12.2-5.8,7,0.6c-9.9,16.2-18.5,34.2-26.1,53.3
		c-15.6,38.8-19.1,66.7-10.4,83.5c9.3,18.6,22,31.3,37.7,38.3c35.4,15.7,63.8,23.8,85.8,24.3c20.9,0.6,42.9-2.9,65.5-10.4l17.4-0.6
		c-6.4,12.2-31.3,20.9-74.2,24.9c-43.5,4.1-78.3,1.2-104.3-8.7c-24.9-9.9-44-23.8-58-42.3c-12.2-16.2-18-32.5-17.4-48.1
		c0.6-30.1,14.5-59.1,42.9-86.4L1384.8,540.9L1384.8,540.9z"/>
	<path class="st0" d="M1466.5,598.8c2.3-3.5,2.9-8.7,1.2-15.1c-3.5-9.9-10.4-17.4-20.3-23.8l-24.3-1.7c-8.7,5.8-12.8,12.2-12.8,19.1
		c-0.6,8.1,1.7,13.9,7,17.4c9.9,6.4,20.3,9.9,32.5,9.3C1458.4,604,1464.2,602.3,1466.5,598.8L1466.5,598.8z"/>
	<path class="st59" d="M1527.3,716.5l-21.4-2.3c-16.2,0-28.4,3.5-35.9,10.4c-2.9,4.1-1.7,6.4,4.6,8.1l28.4,1.7
		c20.3-1.7,31.3-5.2,32.5-10.4C1536,721.1,1533.7,718.2,1527.3,716.5L1527.3,716.5z"/>
	<path class="st60" d="M1391.7,541.4c5.2-6.4,2.9-7-7-0.6l-34.2,28.4c-28.4,27.2-42.3,56.2-42.9,86.4c-0.6,15.6,5.2,31.9,17.4,48.1
		c13.9,18.6,33,32.5,58,42.3c26.1,9.9,60.9,12.8,104.3,8.7c42.9-4.1,67.8-12.8,74.2-24.9l-17.4,0.6c-22.6,7.5-44.6,11-65.5,10.4
		c-22-0.6-50.4-8.7-85.8-24.3c-15.7-7-28.4-19.7-37.7-38.3c-8.7-16.8-5.2-44.6,10.4-83.5C1373.2,575.6,1381.9,557.7,1391.7,541.4
		L1391.7,541.4z"/>
	<path class="st60" d="M1391.7,541.4c5.2-6.4,2.9-7-7-0.6l-34.2,28.4c-28.4,27.2-42.3,56.2-42.9,86.4c-0.6,15.6,5.2,31.9,17.4,48.1
		c13.9,18.6,33,32.5,58,42.3c26.1,9.9,60.9,12.8,104.3,8.7c42.9-4.1,67.8-12.8,74.2-24.9l-17.4,0.6c-22.6,7.5-44.6,11-65.5,10.4
		c-22-0.6-50.4-8.7-85.8-24.3c-15.7-7-28.4-19.7-37.7-38.3c-8.7-16.8-5.2-44.6,10.4-83.5C1373.2,575.6,1381.9,557.7,1391.7,541.4
		L1391.7,541.4z"/>
	<path class="st60" d="M1391.7,541.4c5.2-6.4,2.9-7-7-0.6l-34.2,28.4c-28.4,27.2-42.3,56.2-42.9,86.4c-0.6,15.6,5.2,31.9,17.4,48.1
		c13.9,18.6,33,32.5,58,42.3c26.1,9.9,60.9,12.8,104.3,8.7c42.9-4.1,67.8-12.8,74.2-24.9l-17.4,0.6c-22.6,7.5-44.6,11-65.5,10.4
		c-22-0.6-50.4-8.7-85.8-24.3c-15.7-7-28.4-19.7-37.7-38.3c-8.7-16.8-5.2-44.6,10.4-83.5C1373.2,575.6,1381.9,557.7,1391.7,541.4
		L1391.7,541.4z"/>
	<path class="st60" d="M1391.7,541.4c5.2-6.4,2.9-7-7-0.6l-34.2,28.4c-28.4,27.2-42.3,56.2-42.9,86.4c-0.6,15.6,5.2,31.9,17.4,48.1
		c13.9,18.6,33,32.5,58,42.3c26.1,9.9,60.9,12.8,104.3,8.7c42.9-4.1,67.8-12.8,74.2-24.9l-17.4,0.6c-22.6,7.5-44.6,11-65.5,10.4
		c-22-0.6-50.4-8.7-85.8-24.3c-15.7-7-28.4-19.7-37.7-38.3c-8.7-16.8-5.2-44.6,10.4-83.5C1373.2,575.6,1381.9,557.7,1391.7,541.4
		L1391.7,541.4z"/>
	<path class="st3" d="M1391.7,541.4c5.2-6.4,2.9-7-7-0.6l-34.2,28.4c-28.4,27.2-42.3,56.2-42.9,86.4c-0.6,15.6,5.2,31.9,17.4,48.1
		c13.9,18.6,33,32.5,58,42.3c26.1,9.9,60.9,12.8,104.3,8.7c42.9-4.1,67.8-12.8,74.2-24.9l-17.4,0.6c-22.6,7.5-44.6,11-65.5,10.4
		c-22-0.6-50.4-8.7-85.8-24.3c-15.7-7-28.4-19.7-37.7-38.3c-8.7-16.8-5.2-44.6,10.4-83.5C1373.2,575.6,1381.9,557.7,1391.7,541.4
		L1391.7,541.4z"/>
	<path class="st3" d="M1391.7,541.4c5.2-6.4,2.9-7-7-0.6l-34.2,28.4c-28.4,27.2-42.3,56.2-42.9,86.4c-0.6,15.6,5.2,31.9,17.4,48.1
		c13.9,18.6,33,32.5,58,42.3c26.1,9.9,60.9,12.8,104.3,8.7c42.9-4.1,67.8-12.8,74.2-24.9l-17.4,0.6c-22.6,7.5-44.6,11-65.5,10.4
		c-22-0.6-50.4-8.7-85.8-24.3c-15.7-7-28.4-19.7-37.7-38.3c-8.7-16.8-5.2-44.6,10.4-83.5C1373.2,575.6,1381.9,557.7,1391.7,541.4
		L1391.7,541.4z"/>
	<path class="st4" d="M1391.7,541.4c5.2-6.4,2.9-7-7-0.6l-34.2,28.4c-28.4,27.2-42.3,56.2-42.9,86.4c-0.6,15.6,5.2,31.9,17.4,48.1
		c13.9,18.6,33,32.5,58,42.3c26.1,9.9,60.9,12.8,104.3,8.7c42.9-4.1,67.8-12.8,74.2-24.9l-17.4,0.6c-22.6,7.5-44.6,11-65.5,10.4
		c-22-0.6-50.4-8.7-85.8-24.3c-15.7-7-28.4-19.7-37.7-38.3c-8.7-16.8-5.2-44.6,10.4-83.5C1373.2,575.6,1381.9,557.7,1391.7,541.4
		L1391.7,541.4z"/>
	<path class="st4" d="M1391.7,541.4c5.2-6.4,2.9-7-7-0.6l-34.2,28.4c-28.4,27.2-42.3,56.2-42.9,86.4c-0.6,15.6,5.2,31.9,17.4,48.1
		c13.9,18.6,33,32.5,58,42.3c26.1,9.9,60.9,12.8,104.3,8.7c42.9-4.1,67.8-12.8,74.2-24.9l-17.4,0.6c-22.6,7.5-44.6,11-65.5,10.4
		c-22-0.6-50.4-8.7-85.8-24.3c-15.7-7-28.4-19.7-37.7-38.3c-8.7-16.8-5.2-44.6,10.4-83.5C1373.2,575.6,1381.9,557.7,1391.7,541.4
		L1391.7,541.4z"/>
	<path class="st4" d="M1391.7,541.4c5.2-6.4,2.9-7-7-0.6l-34.2,28.4c-28.4,27.2-42.3,56.2-42.9,86.4c-0.6,15.6,5.2,31.9,17.4,48.1
		c13.9,18.6,33,32.5,58,42.3c26.1,9.9,60.9,12.8,104.3,8.7c42.9-4.1,67.8-12.8,74.2-24.9l-17.4,0.6c-22.6,7.5-44.6,11-65.5,10.4
		c-22-0.6-50.4-8.7-85.8-24.3c-15.7-7-28.4-19.7-37.7-38.3c-8.7-16.8-5.2-44.6,10.4-83.5C1373.2,575.6,1381.9,557.7,1391.7,541.4
		L1391.7,541.4z"/>
	<path class="st5" d="M1316.2,689.8c-1.9-4.1-3.7-8.2-5.3-12.4c-2.4-7.3-3.4-14.6-3.2-21.7c0.6-30.1,14.5-59.1,42.9-86.4l34.2-28.4
		c9.9-6.4,12.2-5.8,7,0.6c-9.9,16.2-18.5,34.2-26.1,53.3c-15.6,38.8-19.1,66.7-10.4,83.5c9.3,18.6,22,31.3,37.7,38.3
		c35.4,15.7,63.8,23.8,85.8,24.3c20.9,0.6,42.9-2.9,65.5-10.4l17.4-0.6c-6.4,12.2-31.3,20.9-74.2,24.9c-43.5,4.1-78.3,1.2-104.3-8.7
		c-24.9-9.9-44-23.8-58-42.3C1321.6,699.1,1318.6,694.4,1316.2,689.8L1316.2,689.8z"/>
	<path class="st5" d="M1310.4,671.8c-0.8-2.3-1.6-4.7-2.4-7c-0.4-3.1-0.5-6.1-0.4-9.1c0.6-30.1,14.5-59.1,42.9-86.4l34.2-28.4
		c9.9-6.4,12.2-5.8,7,0.6c-9.9,16.2-18.5,34.2-26.1,53.3c-15.6,38.8-19.1,66.7-10.4,83.5c9.3,18.6,22,31.3,37.7,38.3
		c35.4,15.7,63.8,23.8,85.8,24.3c20.9,0.6,42.9-2.9,65.5-10.4l17.4-0.6c-6.4,12.2-31.3,20.9-74.2,24.9c-43.5,4.1-78.3,1.2-104.3-8.7
		c-24.9-9.9-44-23.8-58-42.3l0,0C1319.4,693.6,1314.5,683,1310.4,671.8L1310.4,671.8z"/>
	<path class="st6" d="M1311.9,671.2c-1.6-4.4-3-8.8-4.3-13.2c0-0.8,0-1.6,0-2.4c0.6-30.1,14.5-59.1,42.9-86.4l34.2-28.4
		c9.9-6.4,12.2-5.8,7,0.6c-9.9,16.2-18.5,34.2-26.1,53.3c-15.6,38.8-19.1,66.7-10.4,83.5c9.3,18.6,22,31.3,37.7,38.3
		c35.4,15.7,63.8,23.8,85.8,24.3c20.9,0.6,42.9-2.9,65.5-10.4l17.4-0.6c-6.4,12.2-31.3,20.9-74.2,24.9c-43.5,4.1-78.3,1.2-104.3-8.7
		c-21.2-8.4-38.1-19.6-51.3-34.2C1323.8,699.3,1317.1,685.8,1311.9,671.2L1311.9,671.2z"/>
	<path class="st6" d="M1313.4,670.7c-2.2-6-4-12.1-5.6-18.1c1.4-29,15.4-57,42.8-83.3l34.2-28.4c9.9-6.4,12.2-5.8,7,0.6
		c-9.9,16.2-18.5,34.2-26.1,53.3c-15.6,38.8-19.1,66.7-10.4,83.5c9.3,18.6,22,31.3,37.7,38.3c35.4,15.7,63.8,23.8,85.8,24.3
		c20.9,0.6,42.9-2.9,65.5-10.4l17.4-0.6c-6.4,12.2-31.3,20.9-74.2,24.9c-43.5,4.1-78.3,1.2-104.3-8.7c-18.1-7.2-33.2-16.5-45.4-28.1
		C1327.7,703.6,1319.5,687.8,1313.4,670.7L1313.4,670.7z"/>
	<path class="st6" d="M1314.8,670.2c-2.7-7.5-4.9-15-6.7-22.6c2.7-27.2,16.6-53.5,42.4-78.3l34.2-28.4c9.9-6.4,12.2-5.8,7,0.6
		c-9.9,16.2-18.5,34.2-26.1,53.3c-15.6,38.8-19.1,66.7-10.4,83.5c9.3,18.6,22,31.3,37.7,38.3c35.4,15.7,63.8,23.8,85.8,24.3
		c20.9,0.6,42.9-2.9,65.5-10.4l17.4-0.6c-6.4,12.2-31.3,20.9-74.2,24.9c-43.5,4.1-78.3,1.2-104.3-8.7c-15.5-6.1-28.8-13.8-40-23.3
		C1331.4,707.1,1321.8,689.5,1314.8,670.2L1314.8,670.2z"/>
	<path class="st7" d="M1316.3,669.7c-3.2-8.9-5.7-17.8-7.6-26.7c3.8-25.6,17.5-50.3,41.9-73.6l34.2-28.4c9.9-6.4,12.2-5.8,7,0.6
		c-9.9,16.2-18.5,34.2-26.1,53.3c-15.6,38.8-19.1,66.7-10.4,83.5c9.3,18.6,22,31.3,37.7,38.3c35.4,15.7,63.8,23.8,85.8,24.3
		c20.9,0.6,42.9-2.9,65.5-10.4l17.4-0.6c-6.4,12.2-31.3,20.9-74.2,24.9c-43.5,4.1-78.3,1.2-104.3-8.7c-13.2-5.2-24.8-11.6-34.8-19.2
		C1334.8,710.1,1323.9,690.9,1316.3,669.7L1316.3,669.7z"/>
	<path class="st7" d="M1317.8,669.1c-3.6-10.1-6.4-20.3-8.3-30.5c4.6-24,18.1-47.3,41.1-69.3l34.2-28.4c9.9-6.4,12.2-5.8,7,0.6
		c-9.9,16.2-18.5,34.2-26.1,53.3c-15.6,38.8-19.1,66.7-10.4,83.5c9.3,18.6,22,31.3,37.7,38.3c35.4,15.7,63.8,23.8,85.8,24.3
		c20.9,0.6,42.9-2.9,65.5-10.4l17.4-0.6c-6.4,12.2-31.3,20.9-74.2,24.9c-43.5,4.1-78.3,1.2-104.3-8.7c-11.1-4.4-21-9.5-29.8-15.6
		C1338.2,712.8,1326.1,692.2,1317.8,669.1L1317.8,669.1z"/>
	<path class="st8" d="M1319.2,668.6c-4-11.3-7-22.7-8.9-34.1c5.3-22.6,18.5-44.4,40.3-65.3l34.2-28.4c9.9-6.4,12.2-5.8,7,0.6
		c-9.9,16.2-18.5,34.2-26.1,53.3c-15.6,38.8-19.1,66.7-10.4,83.5c9.3,18.6,22,31.3,37.7,38.3c35.4,15.7,63.8,23.8,85.8,24.3
		c20.9,0.6,42.9-2.9,65.5-10.4l17.4-0.6c-6.4,12.2-31.3,20.9-74.2,24.9c-43.5,4.1-78.3,1.2-104.3-8.7c-9.1-3.6-17.4-7.7-25-12.4
		C1341.5,715.2,1328.1,693.3,1319.2,668.6L1319.2,668.6z"/>
	<path class="st8" d="M1320.7,668.1c-4.4-12.4-7.5-24.9-9.4-37.4c5.8-21.2,18.8-41.8,39.3-61.4l34.2-28.4c9.9-6.4,12.2-5.8,7,0.6
		c-9.9,16.2-18.5,34.2-26.1,53.3c-15.6,38.8-19.1,66.7-10.4,83.5c9.3,18.6,22,31.3,37.7,38.3c35.4,15.7,63.8,23.8,85.8,24.3
		c20.9,0.6,42.9-2.9,65.5-10.4l17.4-0.6c-6.4,12.2-31.3,20.9-74.2,24.9c-43.5,4.1-78.3,1.2-104.3-8.7c-7.3-2.9-14-6.1-20.3-9.6
		C1344.6,717.4,1330.1,694.4,1320.7,668.1L1320.7,668.1z"/>
	<path class="st8" d="M1322.2,667.5c-4.8-13.4-8-26.9-9.8-40.5c6.3-20,18.9-39.3,38.2-57.8l34.2-28.4c9.9-6.4,12.2-5.8,7,0.6
		c-9.9,16.2-18.5,34.2-26.1,53.3c-15.6,38.8-19.1,66.7-10.4,83.5c9.3,18.6,22,31.3,37.7,38.3c35.4,15.7,63.8,23.8,85.8,24.3
		c20.9,0.6,42.9-2.9,65.5-10.4l17.4-0.6c-6.4,12.2-31.3,20.9-74.2,24.9c-43.5,4.1-78.3,1.2-104.3-8.7c-5.5-2.2-10.8-4.5-15.7-7.1
		C1347.8,719.4,1332.1,695.3,1322.2,667.5L1322.2,667.5z"/>
	<path class="st9" d="M1323.6,667c-5.1-14.3-8.5-28.9-10.1-43.4c6.6-18.7,18.9-36.9,37.1-54.4l34.2-28.4c9.9-6.4,12.2-5.8,7,0.6
		c-9.9,16.2-18.5,34.2-26.1,53.3c-15.6,38.8-19.1,66.7-10.4,83.5c9.3,18.6,22,31.3,37.7,38.3c35.4,15.7,63.8,23.8,85.8,24.3
		c20.9,0.6,42.9-2.9,65.5-10.4l17.4-0.6c-6.4,12.2-31.3,20.9-74.2,24.9c-43.5,4.1-78.3,1.2-104.3-8.7c-3.8-1.5-7.6-3.1-11.1-4.8
		C1350.9,721.2,1334.1,696.2,1323.6,667L1323.6,667z"/>
	<path class="st9" d="M1325.1,666.5c-5.5-15.2-8.9-30.7-10.4-46.1c6.8-17.6,18.7-34.7,35.8-51.1l34.2-28.4c9.9-6.4,12.2-5.8,7,0.6
		c-9.9,16.2-18.5,34.2-26.1,53.3c-15.6,38.8-19.1,66.7-10.4,83.5c9.3,18.6,22,31.3,37.7,38.3c35.4,15.7,63.8,23.8,85.8,24.3
		c20.9,0.6,42.9-2.9,65.5-10.4l17.4-0.6c-6.4,12.2-31.3,20.9-74.2,24.9c-43.5,4.1-78.3,1.2-104.3-8.7c-2.2-0.9-4.4-1.8-6.6-2.7
		C1354,723,1336,697,1325.1,666.5L1325.1,666.5z"/>
	<path class="st10" d="M1326.6,666c-5.8-16.1-9.2-32.5-10.5-48.8c7-16.5,18.4-32.5,34.6-47.9l34.2-28.4c9.9-6.4,12.2-5.8,7,0.6
		c-9.9,16.2-18.5,34.2-26.1,53.3c-15.6,38.8-19.1,66.7-10.4,83.5c9.3,18.6,22,31.3,37.7,38.3c35.4,15.7,63.8,23.8,85.8,24.3
		c20.9,0.6,42.9-2.9,65.5-10.4l17.4-0.6c-6.4,12.2-31.3,20.9-74.2,24.9c-43.5,4.1-78.3,1.2-104.3-8.7l-2-0.8
		C1357.1,724.7,1338,697.8,1326.6,666L1326.6,666z"/>
	<path class="st10" d="M1328,665.4c-6.1-16.9-9.6-34.2-10.7-51.3c7.1-15.4,18.1-30.4,33.2-44.9l34.2-28.4c9.9-6.4,12.2-5.8,7,0.6
		c-9.9,16.2-18.5,34.2-26.1,53.3c-15.6,38.8-19.1,66.7-10.4,83.5c9.3,18.6,22,31.3,37.7,38.3c35.4,15.7,63.8,23.8,85.8,24.3
		c20.9,0.6,42.9-2.9,65.5-10.4l17.4-0.6c-6.4,12.2-31.3,20.9-74.2,24.9c-42.1,3.9-76.1,1.3-101.9-7.8
		C1360.1,726.2,1339.9,698.5,1328,665.4L1328,665.4z"/>
	<path class="st10" d="M1329.5,664.9c-6.4-17.7-9.9-35.8-10.7-53.7c7.1-14.4,17.7-28.4,31.8-42l34.2-28.4c9.9-6.4,12.2-5.8,7,0.6
		c-9.9,16.2-18.5,34.2-26.1,53.3c-15.6,38.8-19.1,66.7-10.4,83.5c9.3,18.6,22,31.3,37.7,38.3c35.4,15.7,63.8,23.8,85.8,24.3
		c20.9,0.6,42.9-2.9,65.5-10.4l17.4-0.6c-6.4,12.2-31.3,20.9-74.2,24.9c-39.8,3.7-72.3,1.6-97.6-6.4
		C1363.1,727.5,1341.8,699.2,1329.5,664.9L1329.5,664.9z"/>
	<path class="st11" d="M1331,664.4c-6.6-18.5-10.1-37.3-10.7-56c7.1-13.4,17.1-26.5,30.4-39.1l34.2-28.4c9.9-6.4,12.2-5.8,7,0.6
		c-9.9,16.2-18.5,34.2-26.1,53.3c-15.6,38.8-19.1,66.7-10.4,83.5c9.3,18.6,22,31.3,37.7,38.3c35.4,15.7,63.8,23.8,85.8,24.3
		c20.9,0.6,42.9-2.9,65.5-10.4l17.4-0.6c-6.4,12.2-31.3,20.9-74.2,24.9c-37.6,3.5-68.7,1.8-93.3-5.1
		C1366,728.8,1343.6,699.7,1331,664.4L1331,664.4z"/>
	<path class="st11" d="M1332.4,663.9c-6.9-19.2-10.4-38.8-10.7-58.2c7-12.4,16.6-24.6,28.9-36.4l34.2-28.4c9.9-6.4,12.2-5.8,7,0.6
		c-9.9,16.2-18.5,34.2-26.1,53.3c-15.6,38.8-19.1,66.7-10.4,83.5c9.3,18.6,22,31.3,37.7,38.3c35.4,15.7,63.8,23.8,85.8,24.3
		c20.9,0.6,42.9-2.9,65.5-10.4l17.4-0.6c-6.4,12.2-31.3,20.9-74.2,24.9c-35.5,3.3-65.3,2-89.2-4
		C1368.9,729.9,1345.5,700.2,1332.4,663.9L1332.4,663.9z"/>
	<path class="st12" d="M1333.9,663.3c-7.1-19.9-10.6-40.3-10.7-60.3c6.8-11.5,15.9-22.8,27.4-33.7l34.2-28.4c9.9-6.4,12.2-5.8,7,0.6
		c-9.9,16.2-18.5,34.2-26.1,53.3c-15.6,38.8-19.1,66.7-10.4,83.5c9.3,18.6,22,31.3,37.7,38.3c35.4,15.7,63.8,23.8,85.8,24.3
		c20.9,0.6,42.9-2.9,65.5-10.4l17.4-0.6c-6.4,12.2-31.3,20.9-74.2,24.9c-33.5,3.1-61.9,2.1-85.1-3
		C1371.8,731,1347.3,700.7,1333.9,663.3L1333.9,663.3z"/>
	<path class="st12" d="M1335.4,662.8c-7.4-20.6-10.8-41.7-10.6-62.4c6.6-10.6,15.2-21,25.8-31.2l34.2-28.4c9.9-6.4,12.2-5.8,7,0.6
		c-9.9,16.2-18.5,34.2-26.1,53.3c-15.6,38.8-19.1,66.7-10.4,83.5c9.3,18.6,22,31.3,37.7,38.3c35.4,15.7,63.8,23.8,85.8,24.3
		c20.9,0.6,42.9-2.9,65.5-10.4l17.4-0.6c-6.4,12.2-31.3,20.9-74.2,24.9c-31.6,2.9-58.6,2.2-80.9-2.2
		C1374.6,732,1349.1,701.2,1335.4,662.8L1335.4,662.8z"/>
	<path class="st12" d="M1336.8,662.3c-7.6-21.3-11-43.1-10.4-64.4c6.4-9.7,14.4-19.3,24.2-28.7l34.2-28.4c9.9-6.4,12.2-5.8,7,0.6
		c-9.9,16.2-18.5,34.2-26.1,53.3c-15.6,38.8-19.1,66.7-10.4,83.5c9.3,18.6,22,31.3,37.7,38.3c35.4,15.7,63.8,23.8,85.8,24.3
		c20.9,0.6,42.9-2.9,65.5-10.4l17.4-0.6c-6.4,12.2-31.3,20.9-74.2,24.9c-29.7,2.8-55.3,2.3-76.8-1.4
		C1377.5,732.9,1350.9,701.6,1336.8,662.3L1336.8,662.3z"/>
	<path class="st13" d="M1338.3,661.8c-7.9-21.9-11.1-44.3-10.3-66.3c6.1-8.9,13.6-17.7,22.6-26.2l34.2-28.4c9.9-6.4,12.2-5.8,7,0.6
		c-9.9,16.2-18.5,34.2-26.1,53.3c-15.6,38.8-19.1,66.7-10.4,83.5c9.3,18.6,22,31.3,37.7,38.3c35.4,15.7,63.8,23.8,85.8,24.3
		c20.9,0.6,42.9-2.9,65.5-10.4l17.4-0.6c-6.4,12.2-31.3,20.9-74.2,24.9c-27.8,2.6-52,2.3-72.7-0.7
		C1380.4,733.8,1352.8,702.1,1338.3,661.8L1338.3,661.8z"/>
	<path class="st13" d="M1339.8,661.2c-8.1-22.5-11.2-45.6-10-68.1c5.8-8.1,12.7-16,20.9-23.8l34.2-28.4c9.9-6.4,12.2-5.8,7,0.6
		c-9.9,16.2-18.5,34.2-26.1,53.3c-15.6,38.8-19.1,66.7-10.4,83.5c9.3,18.6,22,31.3,37.7,38.3c35.4,15.7,63.8,23.8,85.8,24.3
		c20.9,0.6,42.9-2.9,65.5-10.4l17.4-0.6c-6.4,12.2-31.3,20.9-74.2,24.9c-26,2.4-48.9,2.4-68.6-0.2
		C1383.3,734.7,1354.6,702.5,1339.8,661.2L1339.8,661.2z"/>
	<path class="st13" d="M1341.2,660.7c-8.3-23.1-11.4-46.9-9.8-69.9c5.4-7.3,11.8-14.5,19.2-21.5l34.2-28.4c9.9-6.4,12.2-5.8,7,0.6
		c-9.9,16.2-18.5,34.2-26.1,53.3c-15.6,38.8-19.1,66.7-10.4,83.5c9.3,18.6,22,31.3,37.7,38.3c35.4,15.7,63.8,23.8,85.8,24.3
		c20.9,0.6,42.9-2.9,65.5-10.4l17.4-0.6c-6.4,12.2-31.3,20.9-74.2,24.9c-24.2,2.3-45.7,2.4-64.5,0.3
		C1386.2,735.6,1356.4,702.9,1341.2,660.7L1341.2,660.7z"/>
	<path class="st14" d="M1342.7,660.2c-8.5-23.7-11.5-48.1-9.5-71.7c5-6.5,10.9-12.9,17.4-19.2l34.2-28.4c9.9-6.4,12.2-5.8,7,0.6
		c-9.9,16.2-18.5,34.2-26.1,53.3c-15.6,38.8-19.1,66.7-10.4,83.5c9.3,18.6,22,31.3,37.7,38.3c35.4,15.7,63.8,23.8,85.8,24.3
		c20.9,0.6,42.9-2.9,65.5-10.4l17.4-0.6c-6.4,12.2-31.3,20.9-74.2,24.9c-22.4,2.1-42.5,2.3-60.3,0.7
		C1389.1,736.4,1358.2,703.3,1342.7,660.2L1342.7,660.2z"/>
	<path class="st14" d="M1344.2,659.7c-8.7-24.3-11.6-49.3-9.2-73.4c4.6-5.7,9.8-11.4,15.7-17l34.2-28.4c9.9-6.4,12.2-5.8,7,0.6
		c-9.9,16.2-18.5,34.2-26.1,53.3c-15.6,38.8-19.1,66.7-10.4,83.5c9.3,18.6,22,31.3,37.7,38.3c35.4,15.7,63.8,23.8,85.8,24.3
		c20.9,0.6,42.9-2.9,65.5-10.4l17.4-0.6c-6.4,12.2-31.3,20.9-74.2,24.9c-20.6,1.9-39.3,2.3-56,1.1
		C1392.1,737.3,1360,703.8,1344.2,659.7L1344.2,659.7z"/>
	<path class="st15" d="M1345.6,659.1c-8.9-24.9-11.6-50.5-8.9-75.1c4.2-5,8.8-9.9,13.9-14.8l34.2-28.4c9.9-6.4,12.2-5.8,7,0.6
		c-9.9,16.2-18.5,34.2-26.1,53.3c-15.6,38.8-19.1,66.7-10.4,83.5c9.3,18.6,22,31.3,37.7,38.3c35.4,15.7,63.8,23.8,85.8,24.3
		c20.9,0.6,42.9-2.9,65.5-10.4l17.4-0.6c-6.4,12.2-31.3,20.9-74.2,24.9c-18.8,1.8-36.1,2.2-51.6,1.4
		C1395.2,738.1,1361.8,704.2,1345.6,659.1L1345.6,659.1z"/>
	<path class="st15" d="M1347.1,658.6c-9.1-25.4-11.7-51.6-8.6-76.7c3.7-4.3,7.7-8.5,12.1-12.7l34.2-28.4c9.9-6.4,12.2-5.8,7,0.6
		c-9.9,16.2-18.5,34.2-26.1,53.3c-14.1,35-18.3,61-12.7,78.1C1350.8,668.3,1348.8,663.5,1347.1,658.6L1347.1,658.6z M1440.2,756.3
		c-31.2-12.9-58.4-35.3-77.1-64.9c8.2,11.5,18.2,19.9,29.8,25.1c35.4,15.7,63.8,23.8,85.8,24.3c20.9,0.6,42.9-2.9,65.5-10.4
		l17.4-0.6c-6.4,12.2-31.3,20.9-74.2,24.9C1470.3,756.3,1454.5,756.9,1440.2,756.3L1440.2,756.3z"/>
	<path class="st15" d="M1348.6,658.1c-9.3-26-11.7-52.7-8.2-78.3c3.2-3.6,6.6-7.1,10.2-10.6l34.2-28.4c9.9-6.4,12.2-5.8,7,0.6
		c-9.9,16.2-18.5,34.2-26.1,53.3c-12,29.8-16.9,53.2-14.5,70C1350.2,662.6,1349.4,660.3,1348.6,658.1L1348.6,658.1z M1444.7,756.4
		c-27.9-10.7-52.7-28.9-71.4-53.1c5.9,5.6,12.5,10,19.6,13.2c35.4,15.7,63.8,23.8,85.8,24.3c20.9,0.6,42.9-2.9,65.5-10.4l17.4-0.6
		c-6.4,12.2-31.3,20.9-74.2,24.9C1472.1,756.2,1457.8,756.7,1444.7,756.4L1444.7,756.4z"/>
	<path class="st16" d="M1350,657.6c-9.5-26.5-11.8-53.8-7.8-79.8c2.6-2.9,5.4-5.7,8.4-8.5l34.2-28.4c9.9-6.4,12.2-5.8,7,0.6
		c-9.9,16.2-18.5,34.2-26.1,53.3c-10.7,26.7-15.8,48.1-15,64.4L1350,657.6L1350,657.6z M1449.4,756.5c-26.7-9.5-50.9-25.8-69.7-47.8
		c4.1,3.1,8.5,5.7,13.2,7.7c35.4,15.7,63.8,23.8,85.8,24.3c20.9,0.6,42.9-2.9,65.5-10.4l17.4-0.6c-6.4,12.2-31.3,20.9-74.2,24.9
		C1473.9,756,1461.2,756.6,1449.4,756.5L1449.4,756.5z"/>
	<path class="st16" d="M1350.6,654.4c-8.9-26.2-10.7-53.1-6.4-78.6c2.1-2.2,4.2-4.3,6.4-6.5l34.2-28.4c9.9-6.4,12.2-5.8,7,0.6
		c-9.9,16.2-18.5,34.2-26.1,53.3C1355.9,618.9,1350.9,638.8,1350.6,654.4L1350.6,654.4z M1454.2,756.5
		c-26.3-8.5-50.2-23.6-69.2-44.2c2.5,1.6,5.2,2.9,7.9,4.1c35.4,15.7,63.8,23.8,85.8,24.3c20.9,0.6,42.9-2.9,65.5-10.4l17.4-0.6
		c-6.4,12.2-31.3,20.9-74.2,24.9C1475.7,755.8,1464.7,756.4,1454.2,756.5L1454.2,756.5z"/>
	<path class="st17" d="M1350.8,650c-7.9-25.5-9.2-51.5-4.7-76.2c1.5-1.5,3-3,4.5-4.5l34.2-28.4c9.9-6.4,12.2-5.8,7,0.6
		c-9.9,16.2-18.5,34.2-26.1,53.3C1356.8,616.7,1351.9,635.1,1350.8,650L1350.8,650z M1459.3,756.4c-26.2-7.6-50.3-21.9-69.7-41.5
		c1.1,0.6,2.2,1.1,3.3,1.6c35.4,15.7,63.8,23.8,85.8,24.3c20.9,0.6,42.9-2.9,65.5-10.4l17.4-0.6c-6.4,12.2-31.3,20.9-74.2,24.9
		C1477.6,755.6,1468.2,756.2,1459.3,756.4L1459.3,756.4z"/>
	<path class="st17" d="M1351.2,645.9c-7.1-24.8-7.8-50.1-3.1-74.1l2.6-2.5l34.2-28.4c9.9-6.4,12.2-5.8,7,0.6
		c-9.9,16.2-18.5,34.2-26.1,53.3C1357.6,614.7,1352.8,631.7,1351.2,645.9L1351.2,645.9z M1464.6,756.3
		c-26.5-6.8-50.9-20.3-70.8-39.4c34.9,15.4,63,23.4,84.8,23.9c20.9,0.6,42.9-2.9,65.5-10.4l17.4-0.6c-6.4,12.2-31.3,20.9-74.2,24.9
		C1479.5,755.5,1471.9,756,1464.6,756.3L1464.6,756.3z"/>
	<path class="st17" d="M1351.7,641.9c-6.3-24.2-6.6-48.8-1.7-72.1l0.6-0.5l34.2-28.4c9.9-6.4,12.2-5.8,7,0.6
		c-9.9,16.2-18.5,34.2-26.1,53.3C1358.4,612.9,1353.7,628.6,1351.7,641.9L1351.7,641.9z M1470.2,756c-26.8-5.9-51.7-18.7-72.1-37.2
		c32.9,14.2,59.6,21.5,80.5,22.1s42.9-2.9,65.5-10.4l17.4-0.6c-6.4,12.2-31.3,20.9-74.2,24.9C1481.5,755.3,1475.8,755.7,1470.2,756
		L1470.2,756z"/>
	<path class="st18" d="M1352.3,638c-5.6-23.6-5.4-47.4-0.3-69.9l32.8-27.2c9.9-6.4,12.2-5.8,7,0.6c-9.9,16.2-18.5,34.2-26.1,53.3
		C1359.1,611.1,1354.6,625.6,1352.3,638L1352.3,638z M1476.3,755.6c-27.2-4.9-52.6-17-73.6-34.9c30.9,12.9,56.1,19.6,76,20.1
		c20.9,0.6,42.9-2.9,65.5-10.4l17.4-0.6c-6.4,12.2-31.3,20.9-74.2,24.9C1483.6,755.1,1479.9,755.4,1476.3,755.6L1476.3,755.6z"/>
	<path class="st18" d="M1353.1,634.3c-4.9-22.9-4.3-46,0.9-67.8l30.8-25.6c9.9-6.4,12.2-5.8,7,0.6c-9.9,16.2-18.5,34.2-26.1,53.3
		C1359.7,609.5,1355.5,622.7,1353.1,634.3L1353.1,634.3z M1483,755.1c-27.6-3.8-53.8-15.1-75.5-32.4c28.6,11.6,52.2,17.6,71.1,18.1
		c20.9,0.6,42.9-2.9,65.5-10.4l17.4-0.6c-6.4,12.2-31.3,20.9-74.2,24.9C1485.9,754.9,1484.4,755,1483,755.1L1483,755.1z"/>
	<path class="st19" d="M1353.9,630.5c-4.2-22.3-3.3-44.7,2.1-65.7l28.8-23.9c9.9-6.4,12.2-5.8,7,0.6c-9.9,16.2-18.5,34.2-26.1,53.3
		C1360.3,607.9,1356.4,619.9,1353.9,630.5L1353.9,630.5z M1490.6,754.4c-28.3-2.5-55.2-12.9-77.8-29.6c26.3,10.2,48.1,15.6,65.9,16
		c20.9,0.6,42.9-2.9,65.5-10.4l17.4-0.6C1555.3,741.7,1531.5,750.2,1490.6,754.4L1490.6,754.4z"/>
	<path class="st19" d="M1354.8,626.8c-3.6-21.7-2.3-43.3,3.2-63.7l26.7-22.2c9.9-6.4,12.2-5.8,7,0.6c-9.9,16.2-18.5,34.2-26.1,53.3
		C1360.9,606.4,1357.3,617.1,1354.8,626.8L1354.8,626.8z M1499.7,753.4c-29.2-0.8-57.4-10.2-81.1-26.4c23.8,8.8,43.7,13.4,60.2,13.9
		c20.9,0.6,42.9-2.9,65.5-10.4l17.4-0.6C1555.8,740.8,1535,748.9,1499.7,753.4L1499.7,753.4z"/>
	<path class="st19" d="M1355.8,623.1c-3-21-1.3-42,4.3-61.7l24.6-20.4c9.9-6.4,12.2-5.8,7,0.6c-9.9,16.2-18.5,34.2-26.1,53.3
		C1361.5,605,1358.3,614.4,1355.8,623.1L1355.8,623.1z M1511.3,751.7c-30.7,1.5-60.9-6.6-86.4-22.5c21,7.3,38.9,11.2,53.8,11.6
		c20.9,0.6,42.9-2.9,65.5-10.4l17.4-0.6C1556.5,739.5,1539.6,747,1511.3,751.7L1511.3,751.7z"/>
	<path class="st20" d="M1356.9,619.3c-2.4-20.4-0.4-40.8,5.4-59.8l22.5-18.7c9.9-6.4,12.2-5.8,7,0.6c-9.9,16.2-18.5,34.2-26.1,53.3
		C1362.1,603.5,1359.2,611.7,1356.9,619.3L1356.9,619.3z M1527.3,748.4c-33.4,5.4-66.9-1-95.3-16.8c17.9,5.8,33.4,8.8,46.6,9.2
		c20.9,0.6,42.9-2.9,65.5-10.4l17.4-0.6C1557.5,737.5,1546,743.8,1527.3,748.4L1527.3,748.4z"/>
	<path class="st20" d="M1358.1,615.5c-1.8-19.8,0.5-39.5,6.4-57.8l20.2-16.8c9.9-6.4,12.2-5.8,7,0.6c-9.9,16.2-18.5,34.2-26.1,53.3
		C1362.7,602.1,1360.2,609,1358.1,615.5L1358.1,615.5z M1543.8,743.2c-35.6,10.1-72.2,6.1-103.6-9c14.5,4.1,27.3,6.4,38.4,6.7
		c20.9,0.6,42.9-2.9,65.5-10.4l17.4-0.6C1558.9,734.9,1553,739.4,1543.8,743.2L1543.8,743.2z"/>
	<path class="st21" d="M1359.4,611.7c-1.3-19.2,1.4-38.1,7.4-55.9l18-14.9c9.9-6.4,12.2-5.8,7,0.6c-9.9,16.2-18.5,34.2-26.1,53.3
		C1363.3,600.7,1361.2,606.3,1359.4,611.7L1359.4,611.7z M1552.5,738.8c-34.7,12.3-71,10.7-102.7-2.1c10.6,2.5,20.3,3.9,28.9,4.2
		c20.9,0.6,42.9-2.9,65.5-10.4l17.4-0.6C1559.8,733.1,1556.8,736.1,1552.5,738.8L1552.5,738.8z"/>
	<path class="st21" d="M1360.7,607.7c-0.7-18.5,2.2-36.8,8.4-53.8l15.7-13c9.9-6.4,12.2-5.8,7,0.6c-9.9,16.2-18.5,34.2-26.1,53.3
		C1363.9,599.2,1362.2,603.6,1360.7,607.7L1360.7,607.7z M1557,735.4c-1.6,0.6-3.1,1.2-4.7,1.8c-30.7,11-62.8,10.9-91.7,1.7
		c6.4,1.1,12.5,1.8,18.1,1.9c20.9,0.6,42.9-2.9,65.5-10.4l17.4-0.6C1560.5,731.8,1559,733.6,1557,735.4L1557,735.4z"/>
	<path class="st21" d="M1362.2,603.7c-0.2-17.9,3.1-35.4,9.3-51.8l13.3-11c9.9-6.4,12.2-5.8,7,0.6c-9.9,16.2-18.5,34.2-26.1,53.3
		C1364.4,597.8,1363.3,600.8,1362.2,603.7L1362.2,603.7z M1559.7,732.7c-2.6,1.1-5.2,2.1-7.9,3.1c-26.6,9.5-54.2,10.7-79.8,4.7
		c2.3,0.2,4.5,0.3,6.7,0.4c20.9,0.6,42.9-2.9,65.5-10.4l17.4-0.6C1561,730.8,1560.4,731.7,1559.7,732.7L1559.7,732.7z"/>
	<path class="st22" d="M1363.8,599.5c0.3-17.2,3.9-34.1,10.2-49.7l10.8-9c9.9-6.4,12.2-5.8,7,0.6c-9.9,16.2-18.5,34.2-26.1,53.3
		C1365,596.4,1364.4,598,1363.8,599.5L1363.8,599.5z M1561.3,730.2c-3.3,1.5-6.6,2.8-10.1,4c-22.8,8.2-46.3,10.1-68.7,6.6
		c19.7,0.1,40.4-3.4,61.6-10.5l17.4-0.6L1561.3,730.2L1561.3,730.2z"/>
	<path class="st22" d="M1365.5,595.2c0.9-16.5,4.7-32.6,11.1-47.5l8.2-6.8c9.9-6.4,12.2-5.8,7,0.6c-9.9,16.2-18.5,34.2-26.1,53.3
		L1365.5,595.2L1365.5,595.2z M1558.1,729.9c-2.4,1-4.9,2-7.4,2.9c-19,6.8-38.5,9.2-57.4,7.8c16.4-1,33.4-4.4,50.8-10.2
		L1558.1,729.9L1558.1,729.9z"/>
	<path class="st22" d="M1367.4,590.5c1.4-15.7,5.4-30.9,11.9-45l5.5-4.6c9.9-6.4,12.2-5.8,7,0.6
		C1382.6,556.4,1374.5,572.9,1367.4,590.5L1367.4,590.5z M1553.6,730.1c-1.1,0.4-2.3,0.9-3.4,1.3c-14.8,5.3-29.8,7.9-44.7,8.1
		c12.6-1.6,25.5-4.7,38.6-9L1553.6,730.1L1553.6,730.1z"/>
	<path class="st23" d="M1369.5,585.4c1.9-14.8,6.2-29,12.6-42.3l2.7-2.2c9.9-6.4,12.2-5.8,7,0.6
		C1383.5,555,1376.1,569.7,1369.5,585.4L1369.5,585.4z M1548.6,730.2c-9.3,3.2-18.6,5.4-28,6.6c7.8-1.6,15.6-3.8,23.6-6.4
		L1548.6,730.2L1548.6,730.2z"/>
	<path class="st23" d="M1371.9,579.8c2.4-13.7,6.8-26.9,13.2-39.1c9.6-6.2,11.8-5.5,6.7,0.8C1384.5,553.4,1377.9,566.2,1371.9,579.8
		L1371.9,579.8z"/>
	<path class="st24" d="M1374.7,573.5c2.7-12.1,7.1-23.7,13-34.5c7.3-4.4,8.7-3.3,4,2.4C1385.6,551.5,1379.9,562.3,1374.7,573.5
		L1374.7,573.5z"/>
	<path class="st24" d="M1378.2,566.3c2.9-10,6.9-19.6,12.1-28.7c5-2.6,5.5-1.1,1.5,3.8C1386.9,549.3,1382.4,557.6,1378.2,566.3
		L1378.2,566.3z"/>
	<path class="st24" d="M1382.9,557c2.7-7.1,5.9-13.9,9.8-20.5c2.6-0.8,2.3,0.9-0.9,4.9C1388.7,546.5,1385.7,551.7,1382.9,557
		L1382.9,557z"/>
	<path class="st25" d="M1391.5,541.9c0.9-1.7,1.9-3.5,2.9-5.2c0.2,0.7-0.6,2.3-2.7,4.7L1391.5,541.9L1391.5,541.9z"/>
</g>
<path class="st61" d="M467.2,21.3h1614.6c244.8,0,442.7,197.9,442.7,442.7v1552.1c0,244.8-197.9,442.7-442.7,442.7H467.2
	c-244.8,0-442.7-197.9-442.7-442.7V464C24.5,219.2,222.4,21.3,467.2,21.3z"/>
</svg>
